<svg width="375" height="401" viewBox="0 0 375 401" fill="none" xmlns="http://www.w3.org/2000/svg">
<path opacity="0.35" fill-rule="evenodd" clip-rule="evenodd" d="M24.8619 123.721C26.5454 110.73 25.7036 99.5225 25.0623 88.7562C23.018 59.6253 21.3345 35.8874 71.8596 0C92.9434 41.461 76.2487 59.8458 55.1649 82.922C44.9436 94.3499 33.4597 106.7 24.902 123.721H24.8619ZM71.0178 121.717C87.2917 121.255 103.786 120.814 120.28 105.116C69.1339 72.637 47.8296 94.1293 23.6193 138.076C39.0514 122.599 54.9244 122.158 71.0178 121.717ZM86.6503 280.844C85.8487 344.058 113.807 353.02 161.807 353.02C141.565 346.524 133.227 332.169 124.87 317.614C116.512 302.818 107.734 288.022 86.6503 280.844ZM43.4605 175.287C57.2292 166.305 71.4187 157.123 78.1126 134.708C18.3884 133.806 10.2515 163.619 10.0511 214.503C16.1037 192.99 29.6719 184.229 43.4605 175.267V175.287ZM4.41937 204.197C-0.190208 192.088 -6.24279 182.665 -11.8745 173.924C-27.3066 149.965 -40.0531 130.217 -13.3175 72.1758C24.4811 97.0364 18.6289 121.696 11.3337 152.872C7.76633 168.11 3.77804 184.91 4.41937 204.197ZM6.28325 236.677C-2.05408 206.002 -8.748 181.342 -53 179.758C-48.8313 244.095 -28.5692 254.4 -3.938 267.171C5.04067 271.882 14.841 276.814 24.461 284.653C14.841 268.514 10.2515 251.693 6.28325 236.677ZM-36.7262 294.317C2.53546 272.123 19.651 289.826 41.5766 312.02C52.2187 323.007 64.1235 335.116 79.9765 343.858C67.8713 342.053 57.0287 342.955 47.0079 343.637C19.651 345.863 -2.89583 347.647 -36.7262 294.317ZM55.7661 182.705C3.77804 213.4 10.472 243.654 34.2614 287.821C29.251 265.848 36.9871 251.052 44.7031 236.256C52.4192 221.239 60.3557 205.781 55.7661 182.705ZM58.8926 236.256C73.7235 253.738 74.1243 271.241 74.5652 288.262C74.966 305.304 75.3869 322.105 89.7969 338.465C48.4509 312.922 28.2088 290.287 58.8926 236.256ZM107.534 358.413C78.1126 350.594 54.9244 344.519 31.3353 384.417C85.8487 412.886 104.407 399.453 127.175 383.073C135.512 377.018 144.29 370.743 155.774 365.591C137.817 366.272 121.944 362.002 107.534 358.413ZM212.953 353.04C260.993 352.82 288.971 344.078 288.109 280.864C267.045 288.042 258.488 303.058 249.93 317.634C241.572 332.189 233.195 346.544 212.953 353.04ZM304.002 121.737C287.708 121.275 271.214 120.834 254.72 105.136C305.866 72.657 327.17 94.1494 351.381 138.096C335.949 122.619 320.076 122.178 304.002 121.737ZM349.918 123.741C348.254 110.75 349.096 99.5425 349.918 88.7763C352.002 59.6453 353.685 35.8874 303.16 0.0200474C282.077 41.4811 298.771 59.8658 319.855 82.9421C330.076 94.3699 341.58 106.72 349.918 123.741ZM331.559 175.307C317.771 166.325 303.581 157.143 296.687 134.728C356.411 133.826 364.528 163.639 364.949 214.523C358.896 193.01 345.328 184.249 331.559 175.287V175.307ZM370.581 204.218C375.19 192.108 381.243 182.685 386.875 173.944C402.307 149.965 415.053 130.237 388.338 72.1959C350.539 97.0564 356.391 121.717 363.686 152.892C367.254 168.13 371.222 184.931 370.581 204.218ZM368.717 236.697C377.054 206.022 383.548 181.362 428 179.778C423.831 244.115 403.569 254.42 378.938 267.191C369.959 271.902 360.159 276.834 350.339 284.673C359.959 268.534 364.528 251.733 368.717 236.717V236.697ZM411.506 294.317C372.264 272.123 355.149 289.826 333.423 311.8C322.781 322.786 310.876 334.896 295.024 343.858C307.129 342.053 317.971 342.955 327.992 343.637C355.349 345.863 377.896 347.647 411.506 294.317ZM319.234 182.705C371.222 213.4 364.528 243.654 340.739 287.821C345.749 265.848 338.013 251.052 330.297 236.256C322.581 221.239 314.644 205.781 319.234 182.705ZM316.107 236.256C301.277 253.738 300.876 271.241 300.435 288.262C300.034 305.304 299.613 322.105 285.203 338.465C326.549 312.922 346.791 290.287 316.107 236.256ZM267.466 358.413C296.687 350.594 320.076 344.519 343.444 384.417C288.971 412.886 270.372 399.453 247.625 383.073C239.268 377.018 230.509 370.743 219.226 365.591C237.183 366.272 253.056 362.002 267.466 358.413Z" fill="#090405" fill-opacity="0.23"/>
</svg>
