<svg width="113" height="136" viewBox="0 0 113 136" fill="none" xmlns="http://www.w3.org/2000/svg">
<path d="M4.89782 3.5314C4.91695 3.60002 5.71736 4.41067 5.85448 4.56865L5.77475 4.9676C3.42457 4.34684 1.32312 2.5851 0.752319 0.18027C0.935678 0.124418 1.04729 -0.0622878 1.31037 0.0206925C1.65955 0.130801 3.6749 3.73406 4.89782 3.5314Z" fill="#EFCB58"/>
<path d="M6.65168 0.020752C6.76807 0.574486 7.88098 1.51759 7.92722 2.01547C7.97984 2.5724 7.43454 3.07985 7.44889 3.29209C7.45686 3.40699 7.91127 3.66391 7.92722 3.69104C8.42149 4.55276 10.4528 6.21715 10.4783 6.88259C8.57615 9.1438 6.67719 4.07402 5.53558 2.81336C5.95013 1.94526 6.64371 3.04794 6.97056 2.89315C7.0742 2.84368 7.34525 2.99847 7.28945 2.65378L5.85447 0.260118C6.11117 0.0670294 6.34396 0.0462844 6.65168 0.020752ZM6.41252 3.2123C5.94535 3.54103 8.59209 6.77248 9.28248 6.56343C9.74805 6.25545 6.60544 3.07666 6.41252 3.2123Z" fill="#CE911F"/>
<path d="M7.92721 3.69108C7.91127 3.66396 7.45686 3.40704 7.44888 3.29214C7.43453 3.0799 7.97983 2.57244 7.92721 2.01552C7.88097 1.51764 6.76807 0.574533 6.65167 0.0207992C8.69254 -0.15314 8.71486 2.31872 7.92721 3.69108Z" fill="#F3D972"/>
<path d="M105.506 0.180281L104.39 1.93563C104.39 1.34041 104.651 0.647844 105.028 0.180281C105.181 0.181877 105.339 0.175494 105.506 0.180281Z" fill="#F9E78D"/>
<path d="M106.781 0.180296C106.308 0.809031 105.997 1.30691 105.825 2.09523C105.718 2.58832 105.399 2.64258 105.745 3.21227C106.691 2.04416 108.355 1.45851 108.216 3.53142C107.866 3.45642 108.283 2.89631 107.818 2.89311C107.606 2.89311 105.622 5.53412 105.028 6.08467C109.879 0.0430593 104.149 5.10007 103.912 6.32403C103.795 6.92245 104.111 6.55702 104.39 6.5634C103.758 7.07564 103.395 8.46397 102.795 6.72298C103.132 5.98573 104.961 4.42665 105.028 4.08995C105.095 3.75164 104.388 2.73513 104.39 1.93565L105.506 0.180296C105.79 0.186679 106.477 0.0159308 106.781 0.180296Z" fill="#D59F1F"/>
<path d="M112.203 0.180314C111.71 2.62026 109.446 4.71711 107.021 5.12722C107.005 4.59902 107.847 4.00858 108.217 3.69102C108.856 3.14207 109.711 2.66015 110.449 1.85588C111.222 1.01331 110.972 0.0223325 112.203 0.180314Z" fill="#F3CD50"/>
<path d="M0.752341 0.180371C1.32474 2.58521 3.4246 4.34694 5.77478 4.9677L5.8545 4.56875C5.71738 4.41077 4.91698 3.60012 4.89784 3.5315C4.37806 1.60061 6.11758 1.54157 6.97059 2.89319C6.64374 3.04798 5.95016 1.9453 5.53561 2.8134C6.67722 4.07406 8.57618 9.14384 10.4783 6.88263C10.5341 8.33798 9.1135 7.75233 8.40558 7.36136C8.23976 7.2704 7.67374 6.53635 7.52864 6.56347C6.94987 9.18534 10.3412 12.787 13.0294 12.7072C13.0453 12.6386 12.2099 11.7896 12.0728 11.67C11.722 10.9152 11.3903 9.96886 12.3119 9.59545C13.3929 9.5396 13.7884 10.4316 14.4644 11.0316C14.5553 11.2279 14.7163 11.3907 14.7833 11.5104C15.0942 12.0641 15.7511 12.3865 16.0588 12.787C17.0792 14.1131 18.8076 16.0216 15.5805 15.4998C15.4545 15.3115 14.6525 14.1897 14.3049 14.4626C14.6573 17.2695 16.9262 20.2329 19.8854 20.3669C19.9763 20.1707 19.2333 19.6217 19.0882 19.3297C17.7553 16.6408 19.4071 17.1451 21.0015 18.5318C21.2184 18.7201 21.5468 19.0871 21.7987 19.3297C22.4939 19.9983 24.479 21.8654 24.1904 22.7606C23.5717 23.5282 23.0807 23.3287 22.2771 23C22.014 22.5611 21.5755 22.2595 21.2407 21.8829C20.8182 23.584 22.47 26.0303 23.7918 26.9894C24.9525 27.832 28.1988 29.0272 25.4659 26.6703C25.4181 24.0516 26.5453 25.1878 27.6981 26.1915C27.8623 26.3351 28.1398 26.6399 28.3359 26.8298C29.5716 28.0362 33.3153 32.0161 28.9736 30.6597C28.8301 30.4506 28.5208 29.8937 28.1764 30.1012C27.0858 31.9347 32.3379 36.7619 33.2786 35.5268C32.9485 35.2491 32.8178 34.9316 32.4814 34.6491C31.496 31.8948 33.7186 32.573 34.873 34.1704C34.9527 34.3986 35.0038 34.4289 35.0325 34.4896C35.3481 35.1741 37.4831 36.9199 37.5835 37.4417C37.896 39.0567 36.1565 38.8939 35.3513 38.0003C35.1935 37.7481 35.0085 37.5614 34.7933 37.3619C34.122 39.9918 37.4321 43.4578 40.1346 43.5057C40.1872 43.3972 39.3183 42.4254 39.178 42.3089C38.5131 39.7604 40.2223 40.6508 41.4101 41.6705C41.5218 41.7663 41.7386 42.0041 41.8885 42.1493C42.1787 42.4301 44.7042 45.21 44.7584 45.4206C45.0917 46.7036 43.4542 46.9909 42.6857 46.2983C42.4832 45.9871 42.2297 45.7557 41.9682 45.5004C40.4168 47.3691 46.3018 52.4883 47.1501 51.325C46.9651 50.8159 46.4262 50.4601 46.034 50.1282C45.2718 48.36 47.2378 47.6084 47.9473 49.1707C46.8009 48.5084 46.7626 49.2457 47.1501 50.2079C47.4626 50.9835 50.1412 53.9756 50.9767 53.3995L50.1795 54.1176C49.3233 53.6995 49.4747 53.7953 49.2228 54.7559C48.9406 54.1415 49.4126 53.4617 48.6648 53.0006L48.2662 53.2399L47.6284 57.3092C47.3558 55.8426 48.2088 52.5154 48.1067 52.2825C47.681 51.3011 46.6877 52.0543 45.9543 51.8835C44.1621 51.4654 41.3017 48.901 41.0913 47.0164C41.0084 46.2776 41.4707 45.0456 41.4101 44.7823C41.1136 43.4977 38.9818 44.0323 37.9821 43.7451C36.5488 43.3349 34.2448 40.67 34.0758 39.1971C33.9514 38.112 34.6514 37.4194 34.2352 36.6439C33.6469 35.5491 32.585 36.3087 31.6044 36.0853C30.2651 35.7805 28.0569 33.5161 27.6981 32.1757C27.3617 30.915 27.9293 29.6432 27.5387 28.9841C26.7973 27.733 26.3062 28.7224 25.5456 28.5852C23.7328 28.258 20.9744 25.8851 20.6826 24.0372C20.5471 23.1787 21.0557 21.7361 21.0015 21.484C20.7624 20.3765 18.6418 21.0627 17.4938 20.6063C16.0333 20.027 14.002 17.2983 13.8266 15.7392C13.7485 15.045 14.2619 14.3525 13.9861 13.6647C13.5524 12.5811 12.2322 13.2945 11.3553 13.1062C9.66198 12.7439 7.21454 10.3135 6.97059 8.5582C6.85739 7.73956 7.30861 6.29379 7.28948 6.16453C7.11569 4.97568 4.87074 5.35228 4.02091 5.12728C2.74378 4.78897 -0.665102 1.50965 0.114571 0.26016C0.222992 0.08622 0.584926 0.231436 0.752341 0.180371ZM13.1091 10.8721C13.7262 12.1806 14.7753 13.754 16.1385 14.3828C16.5945 14.0907 13.7054 10.9423 13.1091 10.8721ZM19.8057 18.2126C18.5971 18.4153 23.9911 23.3159 22.6757 21.085C22.5322 20.8425 20.0066 18.1791 19.8057 18.2126ZM26.8212 26.5107C26.3636 26.7421 29.4153 29.8937 29.6911 29.7022C30.2253 29.332 27.2628 26.2873 26.8212 26.5107ZM33.6772 34.1704C33.6437 34.8135 35.7962 37.7561 36.3877 37.3619C36.7768 37.1018 34.2081 34.1864 33.6772 34.1704ZM40.3738 41.8301C40.876 43.2089 42.2377 44.7408 43.5626 45.3408C43.9214 45.1318 40.9462 41.8971 40.3738 41.8301Z" fill="#9C5906"/>
<path d="M105.825 2.09523C105.997 1.30692 106.308 0.809034 106.781 0.180298L107.1 0.260087L105.825 2.09523Z" fill="#A34F01"/>
<path d="M99.9255 13.2657C100.342 12.7455 101.273 12.7982 101.919 12.4678C103.727 11.5423 105.884 8.72096 105.426 6.72305C105.117 7.03423 104.797 7.31189 104.549 7.68052C103.432 8.50873 102.064 8.32362 102.796 6.72305C103.395 8.46404 103.759 7.07572 104.39 6.56348C104.584 6.40549 104.846 6.2523 105.028 6.08474C105.622 5.5342 107.606 2.89159 107.818 2.89319C108.284 2.89638 107.866 3.4565 108.217 3.5315V3.69108C107.847 4.00864 107.005 4.59908 107.021 5.12728C109.446 4.71716 111.71 2.62031 112.203 0.180372C112.411 0.2075 112.883 0.0973914 113 0.260161C112.547 2.67297 110.422 5.06983 107.977 5.60601C107.177 5.78155 106.648 4.8161 105.984 6.00495C105.6 6.69433 106.141 7.65499 105.984 8.71777C105.616 11.2247 102.438 13.5306 99.9255 13.2657Z" fill="#9F5A04"/>
<path d="M105.028 6.08469C104.846 6.25225 104.584 6.40544 104.39 6.56343C104.111 6.55704 103.795 6.92248 103.912 6.32406C104.149 5.1001 109.879 0.0430861 105.028 6.08469Z" fill="#F8E59C"/>
<path d="M6.41253 3.21235C6.60546 3.07671 9.74807 6.25549 9.2825 6.56348C8.59211 6.77252 5.94537 3.54108 6.41253 3.21235Z" fill="#F7E18D"/>
<path d="M14.7832 11.5104C14.7163 11.3907 14.5552 11.2279 14.4644 11.0316C14.4054 10.9024 14.5249 10.5098 14.4644 10.3933C15.4864 10.1348 14.4564 8.5119 14.1455 7.99965C14.5058 7.90231 14.4404 7.68688 14.3049 7.44113C13.7564 6.43739 12.4697 5.30598 11.435 5.20705L11.9133 5.76557C11.875 5.7528 11.1814 5.81504 11.1161 5.92515C10.4911 5.32992 10.1148 4.81129 9.20276 4.56874C12.2003 2.55646 17.8716 9.22521 14.7832 11.5104Z" fill="#E8BE4B"/>
<path d="M102.795 5.28685C102.215 5.51984 101.818 5.46079 101.121 5.92516C100.48 6.35283 98.1764 9.17735 98.1716 9.83481C98.1716 10.0088 98.626 10.355 98.6499 10.3933C98.6754 10.4332 98.6706 10.7284 98.8093 10.8721C98.634 11.0109 98.2465 11.4481 98.0121 11.67C95.7433 8.98107 101 2.66818 103.911 4.88791C103.502 4.94376 103.167 5.13685 102.795 5.28685Z" fill="#EFCB59"/>
<path d="M14.1455 7.99964C13.8696 7.54325 12.4203 5.94268 11.9133 5.76555L11.4349 5.20703C12.4697 5.30597 13.7564 6.43737 14.3049 7.44112C14.4404 7.68687 14.5058 7.9023 14.1455 7.99964Z" fill="#F7E07B"/>
<path d="M102.795 5.28687L98.65 10.3933C98.626 10.355 98.17 10.0088 98.1716 9.83483C98.1764 9.17737 100.48 6.35284 101.121 5.92518C101.818 5.4608 102.215 5.51985 102.795 5.28687Z" fill="#A65801"/>
<path d="M11.9133 5.76556C12.4203 5.94269 13.8697 7.54326 14.1455 7.99965C14.4564 8.51189 15.4864 10.1348 14.4644 10.3933C13.4009 8.32997 12.8508 7.57517 11.1161 5.92514C11.1815 5.81503 11.875 5.7528 11.9133 5.76556Z" fill="#AE6104"/>
<path d="M8.40553 7.36137C8.56657 9.50609 10.7382 10.5066 12.0727 11.67C12.2098 11.7896 13.0453 12.6386 13.0294 12.7072C10.3412 12.787 6.94982 9.18534 7.5286 6.56348C7.67369 6.53635 8.23971 7.27041 8.40553 7.36137Z" fill="#EECC57"/>
<path d="M99.9255 13.2657C99.766 13.2481 99.7485 13.0966 99.6066 13.1061C100.067 12.5652 100.519 12.1455 101.042 11.6699C101.742 11.0348 102.732 10.7667 103.593 9.67521C104.055 9.08956 104.313 8.02996 104.549 7.68049C104.796 7.31186 105.117 7.0342 105.426 6.72302C105.884 8.72093 103.727 11.5423 101.918 12.4678C101.273 12.7981 100.342 12.7455 99.9255 13.2657Z" fill="#EBC44B"/>
<path d="M101.042 11.6699C100.519 12.1455 100.067 12.5651 99.6067 13.1061C99.4361 13.3072 98.5272 13.9535 98.4906 14.1434C98.4619 14.2854 98.8158 15.0514 98.8094 15.1008C98.4268 18.4679 96.4529 20.6557 92.9898 20.9254C92.7761 20.9414 92.4557 20.161 91.794 21.1648C91.3141 21.8941 91.947 22.9792 91.794 24.0372C91.7589 24.2829 91.3093 25.1064 91.1562 25.3936C90.3989 26.8202 88.5015 28.2883 86.931 28.5851C86.2837 28.708 84.7721 27.9756 84.4596 29.3032C84.3624 29.7197 84.879 30.8751 84.7785 31.6969C84.5378 33.6645 81.0763 37.0795 78.8792 36.0853C81.5737 35.2539 84.5696 33.0421 84.061 29.8618C83.8091 30.1251 83.5317 30.3389 83.3435 30.6597C82.3406 31.4464 80.8403 31.1894 81.4302 29.7022C81.6694 30.1889 81.848 30.5049 82.4666 30.5001C82.5607 30.4618 82.7281 29.8378 82.8652 29.7022C83.4472 29.1261 84.2571 28.3761 84.7785 27.7873C85.5119 26.959 87.7665 24.7888 84.938 25.8723C86.3793 24.7393 87.3631 24.6627 86.8513 26.8298C86.4654 27.1186 86.0716 27.7681 85.5757 28.0266C88.4313 28.3091 91.3826 24.9452 91.3157 22.1223C90.8883 22.0042 90.5328 22.7925 90.1996 22.9999C88.8315 23.8505 87.6453 23.5026 88.6051 21.8829L88.7646 22.601L89.3226 22.8404C89.9078 21.977 93.5128 19.0791 93.0695 18.1328C92.3664 17.4323 92.1097 18.7185 91.6345 18.5318C92.5019 17.0668 94.6273 16.7684 93.7073 19.0105C93.4394 19.6616 92.9499 19.8499 92.6709 20.4467C95.5393 20.4004 98.1462 17.4179 98.3311 14.6221C97.8289 14.6365 97.4717 15.1359 97.215 15.4998C93.1556 16.6392 96.9679 12.6577 98.0122 11.6699C98.2466 11.4481 98.6341 11.0109 98.8094 10.872C100.217 9.7502 101.549 9.05125 101.042 11.6699ZM100.005 10.5529C99.5875 10.8273 96.2233 14.2647 96.657 14.5423C97.3043 14.3732 100.383 11.2103 100.404 10.9518C100.421 10.73 100.235 10.5337 100.005 10.5529Z" fill="#975603"/>
<path d="M100.005 10.5528C100.235 10.5337 100.421 10.7299 100.404 10.9518C100.383 11.2103 97.3042 14.3731 96.6569 14.5422C96.2232 14.2646 99.5875 10.8273 100.005 10.5528Z" fill="#F4E097"/>
<path d="M13.1091 10.8721C13.7054 10.9423 16.5945 14.0908 16.1385 14.3828C14.7753 13.754 13.7262 12.1806 13.1091 10.8721Z" fill="#F3DF94"/>
<path d="M21.7987 19.3296C21.5468 19.0871 21.2184 18.72 21.0015 18.5317C21.2519 18.5477 21.1275 18.2509 21.161 18.2126C21.9677 17.2966 21.2534 16.5673 20.6826 15.6593C21.5341 14.8678 19.1791 13.0056 18.3707 12.9465C18.1794 13.1651 18.5971 13.3917 18.7693 13.5848L17.9721 13.7444C17.7967 13.5561 16.518 12.4869 16.5371 12.388C19.5091 10.8561 23.8811 16.5881 21.7987 19.3296Z" fill="#E5B944"/>
<path d="M94.6639 13.7445C94.3163 13.4844 94.3992 14.2216 94.0261 13.5849C94.2494 13.3902 94.7707 13.1828 94.5842 12.9466C93.2305 13.0312 91.0892 14.9525 91.3156 16.2977C91.1689 16.5658 90.7799 17.5328 90.8373 17.8137C90.8883 18.0642 91.3013 18.0307 91.3156 18.0531C91.3906 18.1664 91.1323 18.6244 91.6345 18.5318C92.1096 18.7185 92.3663 17.4323 93.0695 18.1329C93.5127 19.0791 89.9077 21.9771 89.3226 22.8404L88.7645 22.601L88.6051 21.8829C88.9208 21.3499 90.6507 19.6664 90.6779 19.4095C90.7161 19.0409 89.9412 18.0563 90.0401 17.0158C90.241 14.9062 94.5156 10.505 96.7367 12.7072C95.9123 13.0312 95.3862 13.1859 94.6639 13.7445ZM92.1926 18.5318C91.9741 18.5861 89.2285 21.9164 89.482 22.0425L92.5912 19.0903C92.6119 18.7807 92.6868 18.4073 92.1926 18.5318Z" fill="#E8C04B"/>
<path d="M20.6826 15.6594C20.1309 14.7801 19.4182 14.3125 18.7693 13.5848C18.5971 13.3918 18.1794 13.1652 18.3707 12.9465C19.1791 13.0056 21.534 14.8678 20.6826 15.6594Z" fill="#F7DF79"/>
<path d="M94.0262 13.5848C93.2513 14.2615 91.7988 15.4104 91.3157 16.2977C91.0893 14.9524 93.2306 13.0311 94.5842 12.9465C94.7708 13.1827 94.2494 13.3902 94.0262 13.5848Z" fill="#F7E182"/>
<path d="M18.7693 13.5848C19.4182 14.3125 20.131 14.7801 20.6826 15.6593C21.2534 16.5673 21.9677 17.2966 21.161 18.2126C20.8867 16.4509 19.152 15.0051 17.9721 13.7444L18.7693 13.5848Z" fill="#A95C04"/>
<path d="M94.6639 13.7444C93.484 14.6572 91.8657 16.6503 91.3156 18.053C91.3013 18.0307 90.8883 18.0642 90.8373 17.8136C90.7799 17.5328 91.1689 16.5657 91.3156 16.2977C91.7987 15.4104 93.2512 14.2614 94.0261 13.5848C94.3992 14.2216 94.3163 13.4843 94.6639 13.7444Z" fill="#A75A02"/>
<path d="M15.5805 15.4997C15.5884 15.5109 15.2887 15.5428 15.421 15.7391C16.3649 17.129 17.4667 18.7024 19.0882 19.3296C19.2333 19.6216 19.9763 20.1706 19.8854 20.3668C16.9262 20.2328 14.6573 17.2694 14.3049 14.4625C14.6525 14.1896 15.4545 15.3114 15.5805 15.4997Z" fill="#EECB53"/>
<path d="M93.7073 19.0105C95.603 19.1557 96.4034 16.6503 97.215 15.4997C97.4717 15.1359 97.8289 14.6364 98.3311 14.6221C98.1461 17.4179 95.5393 20.4004 92.6709 20.4467C92.9499 19.8498 93.4394 19.6615 93.7073 19.0105Z" fill="#EEC64E"/>
<path d="M19.8057 18.2126C20.0066 18.1791 22.5321 20.8424 22.6756 21.085C23.991 23.3159 18.5971 18.4153 19.8057 18.2126Z" fill="#F1DA8A"/>
<path d="M92.1925 18.5318C92.6868 18.4073 92.6118 18.7807 92.5911 19.0903L89.482 22.0425C89.2285 21.9164 91.9741 18.586 92.1925 18.5318Z" fill="#F5E49B"/>
<path d="M28.3359 26.8298C28.1398 26.6399 27.8623 26.3351 27.6981 26.1914C28.0345 26.1739 27.9771 25.7686 28.017 25.7127C28.5862 24.8925 28.2865 24.4824 27.6981 23.4786C28.5942 23.0366 27.2596 22.4988 27.2198 22.4414C27.1209 22.2962 27.3904 22.1366 27.3792 22.1222C26.6984 21.2541 25.9506 20.7754 24.9079 20.4466C24.707 20.6126 25.1901 20.9812 25.3065 21.085L24.8282 21.4041C24.3227 20.8807 22.5529 19.9615 23.7918 19.6488C26.1595 19.0519 31.3382 24.7536 28.3359 26.8298Z" fill="#E6BD48"/>
<path d="M87.9673 21.2445C88.2272 20.3748 88.1459 20.627 87.489 20.9254C87.5512 20.3222 86.341 21.0482 86.2932 21.0849C85.6506 21.5621 84.4118 22.8211 84.619 23.6382C84.5425 23.769 83.9845 24.9196 83.9813 24.9946C83.9573 25.526 84.4421 25.5212 84.4596 25.5531C84.5313 25.684 84.3081 26.1547 84.619 26.1914C84.4038 26.3797 84.0642 26.7515 83.8218 26.9893C81.5306 24.3036 86.5738 18.1407 89.4023 20.3668C88.79 20.6397 88.4759 20.8041 87.9673 21.2445Z" fill="#EAC24F"/>
<path d="M27.6981 23.4786C27.1687 22.5754 26.067 21.7616 25.3064 21.085C25.19 20.9812 24.7069 20.6126 24.9078 20.4467C25.9506 20.7754 26.6984 21.2541 27.3792 22.1222C27.3903 22.1366 27.1209 22.2962 27.2197 22.4414C27.2596 22.4988 28.5941 23.0366 27.6981 23.4786Z" fill="#F6E07B"/>
<path d="M87.489 20.9254C86.9326 21.1775 84.9108 23.1435 84.619 23.6382C84.4118 22.8212 85.6506 21.5621 86.2932 21.085C86.341 21.0483 87.5512 20.3222 87.489 20.9254Z" fill="#F8E68C"/>
<path d="M87.9674 21.2446C86.636 22.3999 85.1229 23.9063 84.4597 25.5532C84.4421 25.5213 83.9574 25.5261 83.9813 24.9947C83.9845 24.9197 84.5426 23.7691 84.6191 23.6383C84.9109 23.1436 86.9326 21.1776 87.4891 20.9254C88.146 20.627 88.2273 20.3749 87.9674 21.2446Z" fill="#AB6001"/>
<path d="M25.3065 21.085C26.067 21.7616 27.1687 22.5754 27.6981 23.4786C28.2864 24.4824 28.5862 24.8925 28.017 25.7127C27.4956 24.0387 26.0255 22.6456 24.8281 21.4041L25.3065 21.085Z" fill="#A95C04"/>
<path d="M22.2771 23C22.3695 23.1532 22.5465 24.1394 23.0743 24.8351C23.889 25.9091 24.8202 26.1133 25.4659 26.6703C28.1987 29.0272 24.9525 27.832 23.7918 26.9894C22.47 26.0304 20.8182 23.584 21.2407 21.8829C21.5755 22.2595 22.014 22.5611 22.2771 23Z" fill="#F0CD59"/>
<path d="M86.8512 26.8298C86.8799 26.8074 87.4013 26.809 87.5687 26.6702C88.6003 25.8164 90.1389 24.4903 90.1995 22.9999C90.5327 22.7924 90.8883 22.0041 91.3156 22.1222C91.3826 24.9451 88.4313 28.309 85.5757 28.0266C86.0715 27.7681 86.4654 27.1186 86.8512 26.8298Z" fill="#EEC84F"/>
<path d="M84.7785 27.7873L85.7351 25.9522C84.8343 26.8075 83.6161 27.8352 82.8652 28.8246C82.7679 28.9522 82.213 29.7453 82.8652 29.7022C82.728 29.8379 82.5606 30.4618 82.4665 30.5001C81.8479 30.5049 81.6693 30.1889 81.4302 29.7022C81.5322 29.4469 83.4742 27.3293 83.8218 26.9894C84.0642 26.7516 84.4038 26.3798 84.619 26.1915C84.7561 26.0702 84.7944 25.9857 84.9379 25.8724C87.7664 24.7888 85.5119 26.9591 84.7785 27.7873Z" fill="#CF9B24"/>
<path d="M84.7785 27.7873C84.2571 28.3761 83.4471 29.1261 82.8652 29.7022C82.2131 29.7453 82.7679 28.9522 82.8652 28.8245C83.6161 27.8352 84.8343 26.8075 85.7351 25.9521L84.7785 27.7873Z" fill="#F8E8A2"/>
<path d="M26.8211 26.5106C27.2628 26.2872 30.2252 29.3319 29.6911 29.7022C29.4153 29.8936 26.3635 26.742 26.8211 26.5106Z" fill="#F3DC8C"/>
<path d="M35.0325 34.4895C35.0038 34.4289 34.9527 34.3986 34.873 34.1704C34.7965 33.9486 34.9543 33.4012 34.873 33.2129C35.726 33.8959 34.5557 31.7879 34.5541 31.6969C34.5493 31.349 34.7152 31.2501 34.7136 31.1384C34.7136 31.1224 35.0149 31.1927 35.0325 31.0586C35.1042 30.5256 32.5994 28.2947 31.9233 28.1064C31.319 28.2373 32.2071 28.6474 32.3219 28.7447L31.5247 28.9043C31.0464 28.432 30.517 28.0394 29.9303 27.7075C32.7763 25.6218 38.6311 32.7709 35.0325 34.4895Z" fill="#EABE49"/>
<path d="M80.633 29.0638C80.3173 28.8628 80.4082 28.7686 80.3141 28.5851C80.3062 28.5708 80.6553 28.5452 80.3939 28.266C79.0402 28.6314 77.7168 30.0421 77.2847 31.3777L77.9225 31.1384C77.4761 31.8788 77.0344 32.3735 77.1253 33.2927C77.138 33.4251 77.4378 33.3565 77.4442 33.3724C77.5079 33.5432 77.2991 33.9677 77.6036 34.0108C77.3756 34.1927 77.1907 34.5884 76.9658 34.8086C74.4227 32.1437 79.391 25.8898 82.2274 28.0266C82.2274 28.2101 80.861 28.8516 80.633 29.0638Z" fill="#EAC148"/>
<path d="M34.7136 31.1384C33.977 30.224 33.2244 29.5012 32.3219 28.7448C32.2071 28.6474 31.319 28.2373 31.9233 28.1064C32.5994 28.2947 35.1042 30.5256 35.0325 31.0586C35.0149 31.1927 34.7136 31.1225 34.7136 31.1384Z" fill="#F8E589"/>
<path d="M80.3141 28.5851C79.4483 29.3511 78.5267 30.133 77.9224 31.1384L77.2847 31.3778C77.7168 30.0421 79.0401 28.6314 80.3938 28.266C80.6553 28.5453 80.3061 28.5708 80.3141 28.5851Z" fill="#FBE580"/>
<path d="M80.633 29.0638C79.4292 30.1841 78.058 31.8421 77.4441 33.3724C77.4378 33.3565 77.138 33.4251 77.1253 33.2926C77.0344 32.3735 77.476 31.8788 77.9225 31.1383C78.5268 30.133 79.4483 29.3511 80.3141 28.5851C80.4082 28.7686 80.3173 28.8627 80.633 29.0638Z" fill="#AA5F02"/>
<path d="M32.3219 28.7448C33.2244 29.5011 33.9769 30.224 34.7136 31.1384C34.7152 31.2501 34.5493 31.3491 34.5541 31.6969C34.5541 31.7879 35.726 33.8959 34.873 33.2129C34.0774 31.3698 32.9342 30.2927 31.5247 28.9043L32.3219 28.7448Z" fill="#AF6302"/>
<path d="M78.8791 36.0853C78.8009 36.1093 78.6622 36.0726 78.5602 36.0853C78.9779 35.5125 79.4945 35.1295 79.9952 34.6491C82.1492 32.589 81.7442 33.3805 83.3434 30.6597C83.5316 30.339 83.809 30.1251 84.0609 29.8618C84.5696 33.0422 81.5736 35.2539 78.8791 36.0853Z" fill="#F1C84A"/>
<path d="M28.9736 30.6596C30.6015 33.0181 30.2364 32.7644 32.4814 34.649C32.8178 34.9315 32.9485 35.249 33.2786 35.5267C32.3379 36.7618 27.0858 31.9346 28.1764 30.1011C28.5208 29.8936 28.8301 30.4505 28.9736 30.6596Z" fill="#F0CD56"/>
<path d="M79.9952 34.6491C79.4945 35.1294 78.9779 35.5124 78.5602 36.0853C77.2113 37.938 78.2955 37.2837 78.0819 39.197C77.8507 41.2636 74.901 43.7434 72.9 44.0641C72.3324 44.1551 70.8862 43.3652 70.5881 44.6227C70.4605 45.1636 71.0457 46.2934 70.7475 47.4951C70.4063 48.8674 68.0593 51.21 66.6817 51.5643C65.8144 51.7877 63.8835 51.226 63.732 52.2824C63.7081 52.4452 64.4878 54.7989 64.5293 55.4739C64.5739 56.2224 64.5611 56.8958 64.3698 57.6282C64.1705 56.9708 64.0414 52.576 63.3334 52.6813C62.3098 53.5127 63.1979 54.1287 63.2537 54.9952C63.3621 56.6596 63.8134 59.3948 61.181 58.5857C61.3978 58.474 61.9877 58.4628 62.0579 58.4261C63.5933 57.6219 62.9093 55.2122 62.6159 53.8782C61.3324 53.2813 62.3146 55.0431 62.2971 55.7133L50.0997 55.5537L50.02 56.8303C49.3344 56.3708 49.8462 54.7207 50.3389 54.2771C51.2333 53.4712 58.5039 53.7649 60.304 53.6388C60.4029 53.6324 60.3279 54.0569 60.6229 53.958C61.5429 53.6085 60.3295 53.2399 60.9418 52.6813C61.5381 53.551 61.8426 52.8952 62.2971 52.5218C62.5601 52.3047 63.3111 51.5308 63.5726 51.2451C63.8835 50.9052 65.9068 49.3222 64.9279 48.8515C64.5452 48.7669 64.2423 48.968 63.8915 49.011C64.8657 47.7249 66.551 48.1062 65.9642 49.8089C65.5784 50.0994 65.1463 50.8574 64.6887 51.1653C67.7037 51.368 70.2054 48.0999 70.4286 45.261C69.9694 45.1732 69.3492 45.9871 69.1531 46.2982C67.9493 46.9557 66.7901 46.453 67.5587 45.0216C67.8759 45.9663 68.4611 46.4371 68.6748 45.3408C69.3109 44.6147 71.9146 42.371 72.1825 41.6705C72.275 41.4279 72.3818 40.9907 72.1028 40.8726C71.8764 41.0082 71.4188 41.0896 71.2258 41.1917C72.3563 39.8816 73.7036 40.5199 72.8203 42.3088C72.5891 42.7764 72.023 43.0987 71.7042 43.5056C74.5725 43.7434 77.8395 40.1848 77.5238 37.3619C77.1698 37.5454 77.0088 37.8406 76.8063 38.1598C76.1861 38.3736 75.5866 38.9944 74.893 38.4789C76.2164 38.5396 76.4587 37.3332 77.1252 36.564C77.5971 36.0182 78.1121 35.3783 78.5602 34.8086C78.962 34.298 80.1769 33.7203 78.7993 33.2129C78.6271 33.556 78.2875 33.5735 78.0819 33.6916C79.0353 32.1772 80.7509 32.7884 79.9952 34.6491Z" fill="#955807"/>
<path d="M78.5602 34.8087C78.8902 33.1427 75.9294 36.7651 75.8497 36.963C75.6982 37.3348 75.51 37.5789 76.0888 37.5215L77.1252 36.564C76.4587 37.3332 76.2164 38.5396 74.893 38.479L74.4147 37.9204C74.4274 37.5757 76.5432 35.222 76.9658 34.8087C77.1906 34.5884 77.3755 34.1927 77.6035 34.0108C77.7438 33.8991 77.924 33.7826 78.0818 33.6916C78.2875 33.5735 78.6271 33.556 78.7993 33.2129C80.1769 33.7203 78.962 34.298 78.5602 34.8087Z" fill="#D5A32B"/>
<path d="M33.6771 34.1704C34.2081 34.1864 36.7767 37.1019 36.3877 37.362C35.7961 37.7561 33.6437 34.8135 33.6771 34.1704Z" fill="#F4DE90"/>
<path d="M78.5602 34.8086C78.1122 35.3783 77.5972 36.0182 77.1252 36.564L76.0888 37.5215C75.5101 37.5789 75.6982 37.3348 75.8497 36.9629C75.9294 36.7651 78.8902 33.1427 78.5602 34.8086Z" fill="#F5E49B"/>
<path d="M74.4146 36.2448C74.3716 35.9688 73.9841 36.1092 73.7769 36.0852C72.9366 35.9911 72.6592 36.1459 71.9433 36.7236C71.6786 36.9374 69.8211 38.8795 70.9069 38.9576C70.2325 40.0731 69.9168 40.0492 70.588 41.0322C70.6438 41.1135 70.4605 41.5045 70.7475 41.5109C70.6263 41.5987 70.1607 42.1125 69.9503 42.3088C67.573 39.6247 72.5826 33.599 75.6105 35.6065C75.7715 36.015 74.775 35.9783 74.4146 36.2448Z" fill="#EBC24A"/>
<path d="M41.8885 42.1493C41.7386 42.0041 41.5218 41.7663 41.4102 41.6705C41.3113 41.3642 41.4851 41.3211 41.5696 41.1918C42.2185 40.2008 41.5329 39.4381 40.9318 38.5588C40.5731 38.0338 38.5019 35.6353 37.743 36.4045C37.4751 36.1555 36.2091 35.5922 37.1849 35.2874C39.7137 34.4959 44.5639 39.853 41.8885 42.1493Z" fill="#EAC04A"/>
<path d="M73.7769 36.0853C72.6879 36.8736 71.6181 37.7832 70.9069 38.9577C69.8211 38.8795 71.6786 36.9375 71.9433 36.7236C72.6592 36.146 72.9366 35.9912 73.7769 36.0853Z" fill="#F9E483"/>
<path d="M41.5695 41.1917C40.8967 39.2018 39.2369 37.7943 37.7429 36.4044C38.5019 35.6352 40.573 38.0337 40.9318 38.5587C41.5329 39.438 42.2185 40.2007 41.5695 41.1917Z" fill="#B16504"/>
<path d="M74.4147 36.2449C73.0324 37.2662 71.1414 39.3918 70.5881 41.0322C69.9169 40.0492 70.2326 40.0732 70.907 38.9577C71.6181 37.7832 72.688 36.8736 73.777 36.0853C73.9842 36.1093 74.3717 35.9688 74.4147 36.2449Z" fill="#AF6101"/>
<path d="M35.3513 38.0002C36.4977 39.8322 36.6524 40.5854 38.4605 42.1493C38.6247 42.2913 39.1493 42.2849 39.178 42.3088C39.3183 42.4253 40.1872 43.3972 40.1346 43.5057C37.4321 43.4578 34.122 39.9918 34.7933 37.3619C35.0085 37.5614 35.1935 37.7481 35.3513 38.0002Z" fill="#F0CC53"/>
<path d="M72.8202 42.3088C75.0269 42.0966 75.8321 39.6886 76.8063 38.1598C77.0087 37.8407 77.1698 37.5455 77.5237 37.3619C77.8394 40.1849 74.5725 43.7434 71.7041 43.5057C72.023 43.0988 72.589 42.7764 72.8202 42.3088Z" fill="#EEC74B"/>
<path d="M72.1824 41.6704C71.787 40.8502 71.0902 41.9002 70.7474 42.229C70.4844 42.4811 68.5615 44.6194 68.5152 44.7822C68.402 45.1732 68.6795 45.312 68.6747 45.3407C68.461 46.437 67.8759 45.9663 67.5586 45.0216C67.7388 44.6865 69.5851 42.6503 69.9502 42.3088C70.1607 42.1125 70.6263 41.5986 70.7474 41.5109C70.8989 41.4008 71.0584 41.2811 71.2258 41.1917C71.4187 41.0896 71.8763 41.0082 72.1027 40.8726C72.3817 40.9906 72.2749 41.4279 72.1824 41.6704Z" fill="#CC9724"/>
<path d="M72.1825 41.6705C71.9146 42.3711 69.3109 44.6147 68.6748 45.3408C68.6796 45.3121 68.4021 45.1732 68.5153 44.7823C68.5616 44.6195 70.4844 42.4812 70.7475 42.229C71.0903 41.9003 71.7871 40.8503 72.1825 41.6705Z" fill="#F7E49B"/>
<path d="M40.3738 41.8301C40.9462 41.8971 43.9214 45.1317 43.5626 45.3408C42.2377 44.7408 40.876 43.2088 40.3738 41.8301Z" fill="#F5E292"/>
<path d="M67.3993 43.9046C66.1732 43.2104 63.0098 47.4679 62.9349 48.1334C62.8632 48.7669 63.3526 48.7749 63.4132 48.8515C63.4595 48.9089 63.3271 49.2424 63.4929 49.3302C63.5216 49.3462 63.705 49.0334 63.8916 49.0111C64.2423 48.968 64.5453 48.7669 64.9279 48.8515C65.9069 49.3222 63.8836 50.9052 63.5727 51.2451C63.662 50.4967 64.8626 50.2957 64.4496 49.4898C64.2774 49.3605 61.1061 52.2712 62.2971 52.5218C61.8427 52.8952 61.5382 53.551 60.9419 52.6813C60.3296 53.2399 61.543 53.6085 60.623 53.958C60.328 54.0569 60.403 53.6324 60.3041 53.6388C58.504 53.7649 51.2334 53.4712 50.339 54.2771C50.3645 54.0984 50.2369 54.1447 50.1795 54.1175L50.9767 53.3994C50.1412 53.9755 47.4626 50.9834 47.1501 50.2079C46.7627 49.2456 46.8009 48.5084 47.9473 49.1706C48.2407 49.3398 48.3156 49.5664 48.4256 49.6494C48.7015 49.8552 48.9135 50.0675 49.2229 50.2877C49.2468 50.6132 50.6212 52.1276 50.897 52.2026C53.3189 52.8633 58.4035 51.5595 61.1013 52.043C61.4712 51.9042 61.6976 51.2212 61.8188 51.0856C63.4786 49.2329 62.3163 50.3643 62.1377 49.0908C61.7439 46.2807 65.9213 41.2013 68.5951 43.5854C68.163 43.5312 67.7421 43.6572 67.3993 43.9046Z" fill="#ECC650"/>
<path d="M49.2228 50.2877C48.9135 50.0675 48.7014 49.8552 48.4256 49.6494C48.711 49.6047 48.5484 49.2153 48.585 49.0111C48.7907 47.8701 48.7732 47.9275 48.2662 46.9366C49.4636 46.4515 46.3991 44.1041 46.1137 44.2238L46.3529 44.8621C46.3034 44.8349 45.444 44.9514 45.2368 44.7025C44.7457 44.2301 44.135 43.9668 43.6423 43.5057C46.1296 41.8381 50.189 46.544 49.8606 48.7717C49.7872 49.276 49.1846 49.7467 49.2228 50.2877Z" fill="#E1B13E"/>
<path d="M67.3993 43.9046C65.9149 44.9738 64.1291 47.1712 63.4132 48.8515C63.3526 48.7749 62.8631 48.7669 62.9349 48.1334C63.0098 47.468 66.1732 43.2104 67.3993 43.9046Z" fill="#A75F03"/>
<path d="M48.2662 46.9366C48.0095 46.4355 46.8408 45.1286 46.3529 44.8621L46.1138 44.2238C46.3992 44.1041 49.4637 46.4515 48.2662 46.9366Z" fill="#F9E682"/>
<path d="M46.3529 44.8621C46.8408 45.1286 48.0095 46.4355 48.2662 46.9366C48.7732 47.9276 48.7908 47.8701 48.5851 49.0111C47.9681 47.3802 46.4821 45.8978 45.2368 44.7025C45.4441 44.9515 46.3035 44.835 46.3529 44.8621Z" fill="#A85C05"/>
<path d="M65.9643 49.8089C66.0073 49.777 66.5574 49.8887 67.0006 49.4898C68.501 48.1429 68.4229 47.4552 69.1531 46.2982C69.3492 45.9871 69.9695 45.1732 70.4286 45.261C70.2054 48.0999 67.7038 51.368 64.6887 51.1653C65.1463 50.8574 65.5784 50.0994 65.9643 49.8089Z" fill="#F1C94F"/>
<path d="M42.6856 46.2983C44.0903 48.4557 44.0058 48.4095 46.0339 50.1281C46.4262 50.46 46.9651 50.8159 47.15 51.3249C46.3018 52.4883 40.4168 47.369 41.9681 45.5004C42.2296 45.7557 42.4831 45.9871 42.6856 46.2983Z" fill="#F0CD58"/>
<path d="M63.5727 51.2451C63.3112 51.5308 62.5602 52.3047 62.2972 52.5217C61.1061 52.2712 64.2774 49.3605 64.4496 49.4898C64.8626 50.2956 63.662 50.4967 63.5727 51.2451Z" fill="#F5E399"/>
<path d="M50.4984 51.0856H61.8188C61.6977 51.2212 61.4713 51.9042 61.1014 52.0431C58.4036 51.5596 53.319 52.8633 50.897 52.2027C50.6212 52.1276 49.2468 50.6133 49.2229 50.2877C49.6534 50.5957 49.9149 51.0665 50.4984 51.0856Z" fill="#FDF8DE"/>
<path d="M61.6593 51.0856H50.4983C50.6243 51.0887 52.4897 50.61 52.9696 50.6068C55.0408 50.5893 59.3043 50.2749 61.1012 50.6068C61.1379 50.6132 61.5732 51.001 61.6593 51.0856Z" fill="#F6E5A8"/>
<path d="M64.3698 57.6282C63.5901 60.6091 59.8225 58.0718 60.304 60.6602C66.6977 61.6958 72.149 64.8954 76.4874 69.5965C76.5799 70.1535 77.1491 70.6226 77.4441 71.1125C77.8331 71.7604 78.5283 72.9939 79.0385 73.9051C76.7728 75.2679 77.9766 75.0653 78.4007 76.5382C78.4581 76.7376 78.1472 76.8429 78.2413 77.0967C78.0101 76.7153 77.6737 76.353 77.4441 75.9796C75.99 73.6195 74.7256 71.9391 72.6608 70.0753C67.4008 65.3262 60.6261 62.9469 53.448 63.5326C52.9585 63.5725 48.9852 64.3177 48.8242 64.49C48.6329 64.6927 48.6934 65.2736 48.9836 65.4475C49.3599 64.9034 50.2113 65.1587 50.5781 65.1284C56.3435 64.6496 62.4422 64.7661 67.7978 68.0008C68.021 68.1348 68.5616 68.4795 68.5153 68.7986C61.4759 64.5587 52.552 64.3624 45.2367 67.6816C39.0296 70.4981 32.1178 78.7627 32.4813 85.7139C31.8914 85.6788 32.0237 85.6963 32.0827 86.1926C32.5531 90.0991 32.2549 94.0949 33.438 97.9216C33.7043 98.7849 34.6785 100.2 35.0324 101.113C35.1488 101.41 35.3561 101.463 34.873 101.672C32.8066 98.4162 31.4035 94.114 31.2058 90.2618L30.8869 90.5012C30.855 90.0879 30.7323 89.6363 30.7275 88.9054C31.0814 88.8655 31.2951 88.066 30.7275 88.1075C30.7578 86.4926 30.9969 83.8117 31.5247 81.9638C32.0556 80.1063 33.843 77.5515 34.3947 75.8998C34.409 75.8568 34.3644 75.0461 34.2352 75.0222C38.5194 68.4364 45.3228 64.1055 53.1291 63.0538C54.6454 62.8496 55.5606 63.3283 57.0355 62.7347C57.2188 62.6613 57.6972 62.8464 57.8327 62.6549C57.8773 62.5927 57.8598 61.2155 57.753 61.1389C55.044 60.9969 52.6524 61.2075 50.02 61.7772C49.3902 61.9129 48.5388 62.0724 47.9473 62.256C48.373 61.4341 49.9004 61.3879 50.7375 61.2985V60.8198L46.3528 61.9368C48.1067 61.2474 49.9259 60.7192 51.7739 60.341C52.3989 60.8214 52.4659 60.491 52.7305 60.5006C54.6056 60.566 53.3858 60.4033 54.0061 59.6229C54.5577 58.9288 57.053 58.6064 57.6732 59.5431C57.23 60.3267 57.3751 60.258 57.9921 60.5006C59.8193 61.2187 58.9568 59.4889 60.304 58.7453C60.4396 58.6703 61.0789 58.6383 61.181 58.5857C63.8134 59.3947 63.3621 56.6596 63.2537 54.9952C63.1979 54.1287 62.3098 53.5127 63.3334 52.6813C64.0414 52.576 64.1705 56.9708 64.3698 57.6282Z" fill="#DAA13D"/>
<path d="M49.2228 54.7558C49.0411 55.4484 48.9486 56.8894 49.2228 57.5484C49.7426 58.7979 52.7561 58.2378 52.7306 60.5006C52.4659 60.4911 52.3989 60.8214 51.7739 60.3411C51.7293 60.3075 51.6097 59.516 51.2159 59.3836C49.5274 58.8171 48.1992 60.3873 47.6284 57.3091L48.2662 53.2399L48.6648 53.0005C49.4126 53.4617 48.9406 54.1415 49.2228 54.7558Z" fill="#D5911F"/>
<path d="M61.181 58.5857C61.0789 58.6384 60.4395 58.6703 60.304 58.7453C58.9567 59.4889 59.8193 61.2187 57.9921 60.5006C57.9124 60.1895 57.8518 59.8129 57.6732 59.5432C57.053 58.6065 54.5577 58.9288 54.006 59.623C53.3858 60.4033 54.6055 60.5661 52.7305 60.5006C52.756 58.2378 49.7426 58.7979 49.2228 57.5485C48.9485 56.8894 49.041 55.4484 49.2228 54.7558C49.4747 53.7952 49.3232 53.6994 50.1794 54.1175C50.2368 54.1447 50.3644 54.0984 50.3389 54.2771C49.8462 54.7207 49.3344 56.3708 50.02 56.8304C50.5334 57.1734 61.9893 57.132 62.297 56.591C62.3018 56.299 62.2891 56.0037 62.297 55.7133C62.3146 55.0431 61.3324 53.2813 62.6159 53.8782C62.9093 55.2122 63.5933 57.6219 62.0579 58.4261C61.9877 58.4628 61.3978 58.474 61.181 58.5857Z" fill="#FAF8F5"/>
<path d="M62.2971 55.7133C62.2891 56.0037 62.3019 56.2989 62.2971 56.591C61.9894 57.1319 50.5334 57.1734 50.02 56.8303L50.0997 55.5537L62.2971 55.7133Z" fill="#E2A73C"/>
<path d="M26.2631 59.0644L25.6254 59.3038C26.1866 60.2182 25.4436 61.0703 25.4659 62.0166C25.4659 62.0677 25.9426 62.1794 25.9442 62.3358C25.9522 63.0203 25.9235 63.8294 25.7848 64.4901C24.6049 64.1454 24.3674 62.2017 24.5093 61.2187C24.632 60.3602 25.493 58.5362 26.2631 59.0644Z" fill="#F9E79E"/>
<path d="M90.9967 70.8732C91.1801 71.5163 91.4767 71.604 91.6345 71.9902C92.0459 72.9908 92.5641 74.6089 93.3884 75.6605C93.3995 75.7052 93.7997 76.2174 93.8667 76.4584C94.5156 78.7946 95.5217 80.9888 95.78 83.4C96.1659 83.4862 96.2153 82.5686 96.4178 82.2032L96.4975 83.3202C97.1863 81.4867 99.2016 80.7813 100.882 80.1287C99.7932 81.3909 98.532 80.6489 98.8094 82.8415C98.8062 81.158 97.848 81.9 97.215 82.7617C96.5501 83.6665 96.5294 84.3383 96.4178 85.3947C96.3094 86.4176 96.2504 87.2554 96.4975 88.2671C97.1751 87.2682 97.8878 86.3219 98.9689 85.7139L97.3744 87.3895C97.4414 88.1028 99.7549 86.2979 100.005 86.1926C100.179 86.1192 101.223 85.8591 101.679 85.7139C100.421 87.0208 97.8799 87.1804 96.8961 88.9852C96.6171 89.4975 96.802 89.997 96.7367 90.3416C96.5262 91.4539 96.3731 92.5598 96.3381 93.6928C97.9293 90.9193 100.716 90.6432 103.672 90.8204C103.972 91.0103 103.491 91.8959 103.433 92.097L103.354 91.4587C101.585 91.7906 98.8923 92.2677 97.6933 93.7726C97.3617 94.1891 97.1193 95.8407 97.2947 95.9269C98.0218 96.2827 98.6484 95.6093 98.7297 95.6077C98.8078 95.6061 99.4631 96.0194 100.085 95.9269C98.8493 96.3801 97.0906 96.5109 96.0192 95.7673L95.3017 99.0386C96.1196 98.6125 96.6681 97.7429 97.5339 97.3631L97.2947 98.6397L99.208 97.8418L101.042 98.1609C99.3627 98.3429 98.3965 98.4865 96.8961 99.278C96.346 99.5668 95.5759 100.263 95.1422 100.714C95.1263 100.732 94.9876 100.306 94.6639 100.794C94.251 101.418 93.543 104.541 93.0695 105.581C92.4253 106.997 91.3714 108.573 90.5184 109.89L94.0261 107.895C94.7707 109.226 93.6228 108.232 93.4681 109.172L96.4975 109.012L98.0919 109.81C96.2759 109.518 94.3036 109.079 92.5114 109.651C92.3855 109.69 90.3239 110.836 90.1995 110.927C88.2735 112.351 85.3206 116.812 83.1043 118.746C81.8208 119.867 79.4691 121.528 78.0022 122.417C77.0997 122.964 75.3714 123.489 74.8931 124.013C74.8739 124.033 74.3605 123.95 74.6539 124.332C75.7859 123.677 76.0028 124.628 76.0889 124.651C76.1208 124.659 76.3201 124.386 76.7267 124.491C77.7072 124.745 80.2934 125.334 80.0749 126.406L83.503 128.88C81.5402 129.898 79.0832 129.368 76.9658 129.119C75.0398 128.238 73.836 126.13 74.335 124.013C73.6143 124.957 68.1152 126.133 67.8776 126.566C67.8218 126.668 67.7389 126.772 67.7182 126.885L63.5727 128.002C62.8647 128.072 62.6654 128.426 62.4566 128.481C62.2923 128.524 61.7407 128.455 61.181 128.64L60.2244 126.725C61.1268 126.681 62.5921 126.499 63.4132 126.087C64.0414 126.497 64.4193 126.054 65.0076 125.927C66.5941 125.588 68.4229 124.908 69.9504 124.332C70.1066 124.273 70.2916 124.226 70.4287 124.172C71.6341 123.701 72.7868 123.162 73.9364 122.576C73.9858 122.562 74.048 122.592 74.0959 122.576L74.0161 123.055L69.1531 125.369C72.342 124.785 75.196 123.055 77.9225 121.379L76.328 121.459C76.3567 121.336 76.5305 121.236 76.6469 121.14C77.6626 120.298 77.9049 119.568 77.763 118.507C77.2783 117.888 76.3424 119.713 75.6903 119.544C73.997 116.937 73.2285 114.446 75.5308 111.725C75.8609 113.755 77.6929 115.549 78.2414 117.39C78.3211 117.657 78.1856 118.183 78.2414 118.507C78.2493 118.553 78.7803 118.971 78.7197 119.305C78.6958 119.437 77.7519 120.192 77.6036 120.422C77.6179 120.88 77.8651 120.412 78.0819 120.342C81.3935 119.265 84.0562 115.513 86.2135 113.002C86.3793 112.809 86.813 112.804 87.1701 112.363C87.8637 111.511 89.7069 109.199 90.1995 108.374L90.5981 108.693C92.0778 107.029 92.3919 104.914 92.91 103.028C93.0089 102.667 94.1553 100.641 93.6275 100.555C93.5239 100.982 93.4155 100.797 93.2289 100.874C93.5239 99.9099 94.4391 98.22 94.5045 97.2833C94.5587 96.5045 94.1888 96.7567 94.1856 96.7247C93.9927 94.9439 93.5925 94.8417 92.4317 93.6928C91.0111 92.2853 90.8038 92.2406 89.0037 91.6183C88.3293 91.3853 88.5206 90.5858 87.9673 91.4587C87.9179 91.1635 87.8844 90.8714 87.8079 90.581C88.0439 90.2299 92.3329 91.1954 92.9898 91.6183C94.2717 92.4449 94.2621 93.9194 94.9031 95.129C95.096 93.7502 95.2283 92.3699 95.3017 90.98C95.332 90.4055 95.4563 89.8342 95.4611 89.2246C95.4691 88.0373 95.2666 86.5964 95.1422 85.3947C95.1247 85.2208 95.1837 84.7261 95.1422 84.4373C94.9796 83.2867 94.5443 81.3143 94.0261 80.2883C93.0854 78.4244 91.7174 78.3893 89.8806 78.2137C90.3638 77.1206 92.3711 78.4068 92.5114 78.3733C93.4856 78.1403 91.5612 77.3425 91.9534 76.9371C92.5051 77.1222 92.8271 77.601 93.2289 77.9744L93.8667 79.0914C93.551 77.727 92.8718 76.3435 92.1128 75.1818C92.1033 75.1674 92.403 75.0621 92.0331 74.8626C91.8896 74.9249 91.9789 75.1642 91.9534 75.1818C90.9393 75.8999 89.2668 76.2142 88.0471 76.1392C81.7028 75.7515 88.8012 70.1822 91.2359 73.4264C90.9904 72.4977 90.3351 71.5945 89.7212 70.8732C89.5729 70.6992 89.4804 70.471 89.4023 70.3944C88.6179 69.0572 87.481 67.9274 86.5324 66.7242C84.5585 64.2204 82.6786 61.4693 79.5966 60.1815L79.4372 60.5006L84.3002 64.2507L83.503 64.9688C82.111 64.6672 81.0125 65.4667 79.8358 63.772C79.4467 63.2119 78.624 60.5166 78.8791 59.9421C79.4133 58.7421 84.1678 60.44 84.2204 62.256C84.0514 61.5921 85.3222 58.6479 85.9743 58.7453C87.8509 60.9953 87.8796 62.7379 85.8946 64.889L90.9967 70.8732ZM87.7282 73.4264C87.5081 73.4695 86.864 73.7998 86.7715 74.0647C88.4887 73.3434 90.0162 73.9083 91.6345 74.4637C90.7911 73.6307 88.8506 73.2062 87.7282 73.4264ZM83.5827 117.151L81.7491 118.667C81.7858 118.772 82.4251 118.608 82.4666 118.587C82.5479 118.545 83.7995 117.379 83.5827 117.151Z" fill="#DAA43A"/>
<path d="M24.5092 72.7881C23.2576 72.4801 23.2353 73.3945 23.154 73.4264C22.9355 73.511 20.0608 74.0041 20.2043 74.4637L20.9218 74.3839C20.1389 75.6111 21.5819 75.0142 21.9582 75.8201C21.2247 75.7004 20.6236 75.319 19.9651 75.0222C19.474 75.3637 18.0933 78.1005 18.5301 78.3733C18.9367 77.8707 19.2126 77.1797 19.8854 76.9371C19.938 77.368 18.8969 77.9983 18.9288 78.2936C18.9973 78.9351 19.7531 77.9329 18.6896 79.4904C20.2585 77.8148 22.0953 78.1292 24.1903 78.3733C23.6275 79.1728 22.2085 80.4606 21.2407 80.6074C20.4419 80.7287 18.1204 80.1893 17.8924 80.2883C17.473 80.4702 17.033 83.9346 16.6966 84.5171C17.5033 84.3655 17.5767 83.1 17.9721 82.5224C18.2655 82.9788 17.7345 83.4128 18.3707 83.799L23.5526 81.5649C23.7056 81.6303 24.0182 81.466 24.1903 81.8043C23.3533 83.0553 21.668 85.2655 20.1246 85.5543C19.5012 85.6708 16.8704 85.2671 16.6966 85.6341C16.8353 86.6746 16.5722 87.7342 16.5371 88.7459C16.51 89.5246 16.6631 90.2363 16.6966 90.98C16.7651 92.5087 16.8624 94.0072 17.0154 95.5279C17.4587 95.7705 17.4412 94.6646 17.4938 94.4907L17.8924 95.6077C18.7422 94.2896 19.6526 93.5045 21.0015 92.7353C21.8338 92.2598 23.1875 92.1928 23.9512 91.2991L23.8715 92.5757C22.7745 95.6333 20.6762 96.7774 17.4938 96.8046L18.849 101.672C19.1265 100.737 18.9128 99.3945 19.2476 98.4801L19.6462 100.395C20.9313 98.3014 23.1157 97.7221 24.9078 96.246L25.147 97.2035C24.3625 100.813 22.588 101.595 19.0882 101.911C20.1325 105.774 22.2531 108.947 24.6687 112.044C24.7404 112.137 25.021 112.368 25.147 112.523C25.4595 112.909 25.7593 112.971 25.7848 113.002C25.847 113.077 25.6158 113.23 25.6253 113.241C27.9644 115.978 30.5298 118.724 33.7569 120.342C34.3692 120.867 34.857 120.776 35.1919 120.981C36.249 121.628 37.4145 122.294 38.6996 122.895C39.6403 123.336 40.4025 123.773 41.4101 124.172C41.6796 124.279 41.9315 124.389 42.2073 124.491C43.6423 125.023 45.1841 125.479 46.6717 125.848C44.3407 124.206 43.2868 122.019 44.9179 119.385C44.2227 121.691 44.1685 124.504 46.9906 125.209C46.5187 124.573 46.7451 123.741 46.6717 123.135C46.6558 123.009 46.3656 123.101 46.3528 122.975C46.2412 121.885 46.5537 118.56 46.3528 117.869C46.2699 117.586 46.0515 117.377 45.7151 117.47C45.8028 117.377 45.8538 117.077 46.1137 117.151C48.9167 118.981 50.5015 121.429 49.2228 124.81C49.0841 124.432 49.1383 124.93 48.9039 124.97C49.9467 122.216 48.9246 119.753 46.7514 117.949C46.4118 117.996 46.8949 124.316 47.2298 124.651C47.2553 124.676 47.5821 124.635 47.9473 124.81C46.8264 124.255 47.3892 126.097 47.5487 126.247C47.6156 126.309 48.1067 126.188 48.2662 126.247C49.3456 126.644 50.5031 126.639 51.6144 126.885C51.2047 127.217 51.0676 128.323 51.2956 128.8C50.9878 128.746 49.9642 128.318 49.7809 128.321C49.6661 128.324 49.5608 128.635 49.5417 128.64C47.3286 129.086 45.9415 131.913 44.9179 133.667C44.7664 133.929 44.6628 134.358 44.2801 134.066C44.6325 132.352 47.6172 129.023 49.2228 128.241C49.2148 127.949 48.4495 127.948 48.1067 127.842C46.938 127.48 45.444 127.003 44.2801 126.725C43.5913 126.561 43.1592 126.336 42.3668 126.247C42.6235 125.967 42.3492 125.844 42.1276 125.768C40.8425 125.321 38.7379 124.386 37.5835 124.172C37.3683 123.909 37.2104 123.931 36.9457 123.853C36.587 123.553 36.0911 123.397 35.6702 123.215L35.9891 122.736C36.9505 123.261 39.3996 124.63 40.3738 124.81C42.8084 125.262 38.1655 123.31 37.9821 123.215C37.558 122.994 36.3925 121.536 35.8296 122.417C35.549 122.259 34.9527 122.126 34.6338 121.938C33.9785 121.549 30.8981 118.919 30.6478 118.906C30.6143 118.904 30.3066 119.295 30.0897 119.305L30.7275 120.023C28.4698 118.253 26.4847 116.265 24.5092 114.199C23.669 113.319 22.4987 111.318 21.6393 110.768C21.3172 110.56 21.3188 111.064 21.0812 110.927C20.9154 110.831 21.0876 110.53 20.9218 110.448C18.0646 109.038 16.9883 109.502 13.986 109.81C14.2109 109.057 14.8247 109.397 15.3413 109.331C16.0078 109.247 17.7218 108.968 18.6896 109.012C18.7358 109.014 19.026 109.556 19.4868 109.491C20.0927 108.945 18.5014 108.739 18.6099 108.055C18.8682 108.151 21.2056 110.139 21.1609 109.571C19.2604 106.813 17.9019 103.603 17.1749 100.315C16.7492 100.212 16.9022 100.788 16.856 100.874C16.5658 100.786 16.349 101.081 16.6966 101.193C15.9775 101.94 13.3371 102.261 12.3916 101.672C13.0214 101.807 16.569 101.616 16.5371 100.634C14.8247 98.0445 11.5083 98.1977 8.72444 98.0014C8.68139 97.9104 8.23655 97.3375 8.24611 97.2833C11.0475 96.1551 14.56 96.578 16.6966 99.0386L15.9791 95.4481C16.2182 96.554 13.6735 96.3625 12.9497 96.246C10.6122 95.871 8.65747 93.2412 8.08667 91.0598C10.7143 90.2507 14.3336 90.8603 15.5007 93.6928C15.7303 93.5843 15.1739 90.9034 15.1021 90.5012C15.0926 90.4502 15.3732 89.8757 15.2616 89.464C14.9746 88.4076 13.4009 87.4725 12.4713 86.9905C11.8096 87.5826 12.1445 88.54 11.7538 89.3044C11.3999 89.997 11.1448 89.148 11.1161 89.7034C10.0574 88.9214 8.74038 86.5549 8.72444 85.2352C9.71936 85.0963 13.9223 87.7709 14.2252 87.7884C14.442 87.8012 14.4947 87.6799 14.6238 87.5491L13.3483 85.8735C14.5042 86.5629 14.9491 87.3975 15.5007 88.5863C16.3123 84.2155 14.5552 85.741 12.3119 84.4373C11.2532 83.8213 10.3332 81.4787 10.1594 80.2883C10.3396 79.9069 10.8084 80.1814 11.0364 80.2883C11.6215 80.5659 12.4825 81.1739 13.0294 81.5649C11.7666 81.9766 13.5237 84.4181 14.0658 84.7564C14.2188 84.8522 14.9379 84.6463 15.0224 85.0756L15.2616 84.8362C15.362 84.3463 15.2058 83.8261 14.9427 83.3202L15.1021 81.7245C15.2249 81.9144 15.4178 82.1186 15.5805 82.283L16.0588 84.5171C15.5103 83.2149 18.2256 77.0935 18.1315 76.6978C18.071 76.444 16.341 75.7467 16.0588 75.5009C15.6602 75.1547 15.1914 74.5515 14.9427 74.0647L16.7763 72.3094C17.7664 73.0546 18.0949 74.0887 18.5301 75.1818C18.7422 73.9929 18.4983 72.9413 18.1315 71.8307C19.1488 73.2876 18.9846 73.7105 18.849 75.5009C19.0946 74.3408 19.7802 73.3738 20.2043 72.3094C20.2091 72.2982 20.2776 72.3684 20.3637 72.1498C21.3539 71.2099 21.9342 69.8248 22.7554 68.7189C23.2098 68.1077 25.7401 65.5066 25.9442 65.0486C26.0192 64.8795 25.7242 64.7805 25.7848 64.4901C25.9235 63.8294 25.9522 63.0204 25.9442 62.3358C25.9426 62.1794 25.4675 62.0677 25.4659 62.0166C25.4436 61.0703 26.1866 60.2182 25.6253 59.3038L26.2631 59.0645C27.1368 59.6629 27.5291 61.415 27.6184 62.4156C28.575 60.2645 30.7945 59.0948 33.1191 59.9421C32.569 62.0869 32.3187 65.0327 29.3722 64.8092C28.7679 64.763 28.0026 64.1247 27.4589 64.3305C26.0016 64.8827 21.3714 71.5977 20.6826 73.3466C21.888 72.3397 23.1014 72.1993 24.5092 72.7881ZM32.4016 60.0219L27.0603 64.0911C29.2526 63.539 30.8439 61.8491 32.4814 60.4209L32.4016 60.0219Z" fill="#E6B350"/>
<path d="M57.9922 60.5007C57.3752 60.2581 57.2301 60.3267 57.6733 59.5432C57.8519 59.8129 57.9125 60.1895 57.9922 60.5007Z" fill="#A65315"/>
<path d="M32.4016 60.022L32.4813 60.4209C30.8439 61.8491 29.2526 63.5391 27.0603 64.0912L32.4016 60.022Z" fill="#F9EBB8"/>
<path d="M86.5323 66.7242C85.7797 66.5902 86.0891 67.7295 85.1771 68.0008C84.8135 68.1093 84.0626 67.9051 83.6624 68.0008C83.9334 66.8519 85.6554 67.3641 86.054 66.1657C86.0412 66.1018 85.3987 65.6965 85.2568 65.6072C84.6573 65.2306 84.1774 65.1157 83.5029 64.9688L84.3001 64.2507L79.4371 60.5007L79.5966 60.1815C82.6786 61.4693 84.5584 64.2204 86.5323 66.7242Z" fill="#F6E5A3"/>
<path d="M47.9473 62.256C42.4545 63.9667 36.5583 68.0583 33.2786 72.7881C32.8465 72.8823 31.9233 73.9148 31.6841 74.2243C34.8411 68.6519 40.4232 64.2683 46.3528 61.9369L50.7375 60.8198V61.2986C49.9004 61.3879 48.373 61.4342 47.9473 62.256Z" fill="#FEF19A"/>
<path d="M57.0355 62.7347L50.2592 63.2134L50.02 61.7772C52.6524 61.2075 55.044 60.9969 57.753 61.1389C57.8598 61.2155 57.8773 62.5927 57.8327 62.6549C57.6972 62.8464 57.2188 62.6613 57.0355 62.7347Z" fill="#E8C06C"/>
<path d="M22.3567 61.2986C23.9974 63.2997 25.5344 65.6678 23.3134 68.0008C20.9744 65.9567 20.5758 63.9204 22.3567 61.2986Z" fill="#F8E398"/>
<path d="M89.3226 61.2986C91.4703 63.4816 91.1227 65.904 88.6848 67.6817C86.2071 65.4747 87.7632 63.4545 89.3226 61.2986Z" fill="#E9BC50"/>
<path d="M50.02 61.7772L50.2592 63.2134L57.0355 62.7347C55.5606 63.3283 54.6454 62.8496 53.1292 63.0538C45.3229 64.1055 38.5194 68.4364 34.2352 75.0222C31.8643 78.6685 30.6047 82.5032 30.0897 86.8309C30.0212 87.3639 28.8062 87.6128 28.6547 87.3894C28.5415 82.1952 30.348 77.0121 33.2786 72.7881C36.5583 68.0582 42.4545 63.9666 47.9473 62.256C48.5388 62.0724 49.3902 61.9129 50.02 61.7772Z" fill="#FCF5D7"/>
<path d="M72.6609 70.0753C71.3566 70.1727 72.9351 71.0376 72.9798 71.1126C73.0786 71.2754 72.7119 71.4413 72.8203 71.5913C73.4405 72.4467 75.4958 73.969 76.328 74.9425C76.6326 75.2983 76.454 76.5015 77.4441 75.9797C77.6737 76.3531 78.0102 76.7154 78.2414 77.0967C78.9955 79.1489 79.4563 79.2494 79.9952 81.7245C79.5472 80.8357 78.978 81.099 78.8791 81.0064C78.6926 80.8341 77.9065 78.4595 77.6036 77.9744C75.5436 74.668 71.8589 70.8126 68.5154 68.7987C68.5616 68.4796 68.0211 68.1349 67.7979 68.0008C62.4422 64.7662 56.3435 64.6497 50.5781 65.1284C50.2114 65.1588 49.36 64.9034 48.9837 65.4476C48.6935 65.2736 48.6329 64.6928 48.8242 64.4901C48.9853 64.3178 52.9586 63.5725 53.4481 63.5327C60.6262 62.947 67.4009 65.3263 72.6609 70.0753Z" fill="#AB5B12"/>
<path d="M20.0449 67.2029L19.1679 68.0008C19.0356 67.988 17.8748 66.3364 17.8127 66.0859C17.041 63.006 19.6191 66.4178 20.0449 67.2029Z" fill="#FBEEC7"/>
<path d="M94.0261 69.9158L92.2722 68.4796C92.6294 68.0647 94.0835 66.1689 93.7869 65.7667C93.763 65.7348 93.3724 66.3971 93.0694 65.4476C93.1141 65.3981 93.1986 64.7439 93.6275 64.8093C94.6575 66.4689 95.0912 68.1732 94.0261 69.9158Z" fill="#EFC051"/>
<path d="M68.5154 68.7987C71.8589 70.8126 75.5436 74.6679 77.6036 77.9744C77.9066 78.4595 78.6926 80.834 78.8792 81.0064C78.978 81.0989 79.5472 80.8356 79.9953 81.7245C80.0973 82.1968 80.2296 82.4474 80.3141 83.0011C80.8802 86.6698 81.0045 89.5374 80.3141 93.2141C79.7306 96.321 78.7054 98.3908 77.1253 101.033C78.3626 98.3189 79.7417 95.2439 80.1547 92.2566C80.2615 91.489 80.861 89.0539 79.9155 88.7459C79.4213 88.5847 76.5975 88.6581 75.9295 88.7459C75.8418 88.7571 75.5436 89.2103 75.4511 89.2246C73.8073 89.4975 73.718 88.6182 73.5378 88.5863C72.5796 88.4188 71.2068 88.706 70.1895 88.5863C65.7826 88.0661 60.8 87.7485 56.3978 87.7884L57.3544 86.1129C55.3534 78.5712 49.5386 73.7488 45.2368 67.6816C52.552 64.3624 61.476 64.5587 68.5154 68.7987Z" fill="#E5BC5D"/>
<path d="M28.9736 65.9262L27.2995 65.7666L27.6981 66.3252C27.4111 66.7018 25.8246 65.8257 26.2631 66.8837C26.1132 66.7449 25.7338 66.614 25.7848 66.3252C26.9758 65.3119 27.6885 65.1299 28.9736 65.9262Z" fill="#E6B74A"/>
<path d="M92.2723 68.4795C92.1432 68.6295 92.0555 68.8433 91.8737 68.9582C91.6377 68.7667 92.1177 68.2864 92.1129 68.2401C92.081 67.897 91.4384 68.2433 91.3157 67.8412C91.6792 67.1103 92.5115 66.0603 93.0695 65.4475C93.3725 66.397 93.7631 65.7347 93.787 65.7667C94.0836 66.1688 92.6295 68.0646 92.2723 68.4795Z" fill="#FBE68F"/>
<path d="M85.2569 65.6071C85.3988 65.6965 86.0413 66.1018 86.0541 66.1657C85.6555 67.3641 83.9335 66.8518 83.6624 68.0008C82.7584 68.2162 82.0074 68.1732 81.3505 68.7987C81.0731 68.6471 81.6567 67.8412 81.7491 67.6817C82.4905 66.3971 83.6433 65.3151 85.2569 65.6071Z" fill="#E8BE59"/>
<path d="M28.9736 65.9263C29.8107 66.4449 30.3002 67.4199 30.6478 68.32C29.224 67.7056 27.4669 67.9992 26.2631 66.8838C25.8247 65.8258 27.4111 66.7018 27.6981 66.3252L27.2995 65.7667L28.9736 65.9263Z" fill="#F2D06D"/>
<path d="M17.8127 66.0858C17.8748 66.3364 19.0356 67.988 19.1679 68.0007L20.0448 67.2029C21.2933 69.5072 21.3044 69.7529 20.3637 72.1498C20.2776 72.3684 20.2091 72.2982 20.2043 72.3093C20.1533 72.2056 19.9316 71.8673 19.8854 71.8306C21.2423 71.8354 19.8838 68.5657 19.4868 68.4795C18.6848 68.88 18.181 69.3476 17.9721 70.2348C17.0872 69.0173 16.6296 67.2811 17.8127 66.0858Z" fill="#FBE8A0"/>
<path d="M92.2722 68.4795L94.0261 69.9157C93.5063 70.7678 92.4301 71.4205 91.6345 71.9902C91.4766 71.604 91.1801 71.5163 90.9967 70.8732C90.9361 70.6577 90.689 70.538 90.6778 70.4742C90.4737 69.279 90.8405 68.7971 91.3156 67.8412C91.4384 68.2433 92.0809 67.897 92.1128 68.2401C92.1176 68.2864 91.6377 68.7667 91.8736 68.9582C92.0554 68.8433 92.1431 68.6295 92.2722 68.4795Z" fill="#D29734"/>
<path d="M19.8854 71.8306C19.1392 71.2242 18.645 71.1588 17.9721 70.2348C18.181 69.3476 18.6848 68.88 19.4868 68.4795C19.8838 68.5657 21.2423 71.8354 19.8854 71.8306Z" fill="#E8BB5C"/>
<path d="M24.2701 68.9583C26.3603 68.521 27.2006 70.2317 28.6547 71.2721C27.6949 73.2254 22.3807 72.3142 22.4365 70.6338C22.4476 70.2812 23.8826 69.0396 24.2701 68.9583Z" fill="#EEC357"/>
<path d="M18.1315 71.8306C18.4983 72.9413 18.7422 73.9929 18.5302 75.1817C18.0949 74.0886 17.7664 73.0546 16.7763 72.3093L14.9427 74.0647C14.1614 72.5344 14.0881 70.5955 14.863 69.1178C15.9456 70.0258 17.2961 70.6354 18.1315 71.8306Z" fill="#F1D38A"/>
<path d="M89.4024 70.3945C89.4805 70.4711 89.573 70.6993 89.7212 70.8732C87.8845 72.7962 85.1181 73.1552 83.0247 71.4318C85.319 69.5711 86.7859 67.8269 89.4024 70.3945ZM86.7716 69.437C86.6759 69.453 85.504 70.4998 85.2569 70.6339C86.4001 70.2333 86.8959 69.678 88.2065 70.0754C88.1587 69.761 86.8497 69.4243 86.7716 69.437Z" fill="#D69F40"/>
<path d="M97.215 69.2774C97.2693 69.4673 97.3091 69.7992 97.3745 70.0753C96.3572 70.9051 95.4022 72.2822 94.3451 73.0275C94.1091 73.1934 94.208 72.737 94.1059 72.7881C93.8955 72.8934 93.3964 74.6121 93.3884 72.3094C93.7201 71.5179 95.4548 70.1407 96.1787 69.5966C96.4402 69.4003 96.8675 68.9774 97.215 69.2774Z" fill="#D5A556"/>
<path d="M86.7715 69.437C86.8497 69.4242 88.1587 69.7609 88.2065 70.0753C86.8959 69.678 86.4 70.2333 85.2568 70.6338C85.504 70.4998 86.6759 69.453 86.7715 69.437Z" fill="#EED184"/>
<path d="M77.1252 70.0753C91.483 86.6538 81.6215 112.997 60.0649 116.034C59.7747 115.453 59.2852 116.303 59.4271 115.236C72.3866 113.541 82.4617 102.425 83.184 89.3842C83.5061 83.574 81.8846 78.9957 79.0385 73.9052C78.5283 72.994 77.8331 71.7604 77.4441 71.1125C77.1491 70.6226 76.5799 70.1535 76.4874 69.5966C76.6054 69.7242 77.0168 69.9508 77.1252 70.0753Z" fill="#C98018"/>
<path d="M72.6609 70.0753C74.7256 71.9392 75.99 73.6195 77.4441 75.9797C76.454 76.5015 76.6326 75.2983 76.328 74.9424C75.4957 73.969 73.4405 72.4466 72.8203 71.5913C72.7119 71.4413 73.0786 71.2753 72.9797 71.1126C72.9351 71.0376 71.3566 70.1727 72.6609 70.0753Z" fill="#97460D"/>
<path d="M97.3744 70.0753C98.1253 73.2397 96.7478 75.3111 93.8666 76.4584C93.7997 76.2175 93.3995 75.7052 93.3883 75.6605C93.0933 74.3967 92.8574 73.5733 93.3883 72.3094C93.3963 74.6121 93.8953 72.8935 94.1058 72.7881C94.2078 72.7371 94.109 73.1935 94.345 73.0275C95.4021 72.2823 96.3571 70.9051 97.3744 70.0753Z" fill="#CD9441"/>
<path d="M24.5092 72.7881C25.4244 73.1711 26.1722 74.1749 26.4225 75.102C25.383 76.3786 23.4266 76.0595 21.9582 75.8201C21.5819 75.0143 20.1389 75.6111 20.9218 74.3839L20.2043 74.4637C20.0608 74.0041 22.9355 73.511 23.154 73.4265C23.2353 73.3945 23.2576 72.4802 24.5092 72.7881Z" fill="#EDC25E"/>
<path d="M33.2786 72.7881C30.3481 77.0121 28.5416 82.1952 28.6548 87.3894C28.8062 87.6128 30.0212 87.3639 30.0898 86.8309C30.026 87.3735 30.2715 89.3602 30.0898 89.7831C29.8809 90.2666 28.7728 89.732 28.4953 90.4214C28.1493 91.2815 29.4504 94.0757 28.6548 94.9694C28.5081 94.3438 28.4379 93.6896 28.3359 93.0544C27.3984 87.2203 27.9325 79.0866 31.6842 74.2243C31.9233 73.9147 32.8465 72.8822 33.2786 72.7881Z" fill="#F9DA75"/>
<path d="M87.7281 73.4264C88.8506 73.2062 90.791 73.6307 91.6345 74.4637C90.0161 73.9084 88.4887 73.3434 86.7715 74.0647C86.864 73.7998 87.5081 73.4695 87.7281 73.4264Z" fill="#EFD690"/>
<path d="M83.1841 89.3842L81.2708 89.5438C81.3075 88.5113 81.2437 87.4677 81.2708 86.432L80.3141 83.0011C80.2296 82.4473 80.0973 82.1968 79.9953 81.7245C79.4563 79.2494 78.9956 79.1489 78.2414 77.0967C78.1473 76.843 78.4582 76.7377 78.4008 76.5382C77.9767 75.0653 76.7729 75.2679 79.0386 73.9052C81.8847 78.9957 83.5062 83.574 83.1841 89.3842Z" fill="#EDBC4B"/>
<path d="M15.5805 75.6605C15.6076 75.6876 15.5534 75.7898 15.5805 75.8201C16.3888 76.7392 16.518 77.9233 16.6966 79.0914L15.5008 77.5754C14.7291 78.2552 14.6206 79.0164 14.4644 79.9691C13.0724 79.0547 12.6164 77.9058 12.3916 76.2988C12.2912 75.5855 11.9516 74.7429 12.4714 74.0647C12.6595 73.9913 15.3589 75.4307 15.5805 75.6605Z" fill="#F0CE7C"/>
<path d="M97.5339 79.8095C96.1914 80.7318 95.2634 81.2712 94.9828 79.251C94.5523 76.1488 97.0826 75.0988 99.4472 74.0647C98.819 75.7498 96.7877 76.2334 95.78 77.6552L96.7367 77.1765C95.6222 78.5568 95.5759 79.6627 97.5339 79.8095Z" fill="#CA9039"/>
<path d="M97.5339 79.8095C95.5759 79.6627 95.6222 78.5568 96.7367 77.1765L95.78 77.6552C96.7877 76.2334 98.819 75.7498 99.4472 74.0647L99.7661 74.3041C99.8841 76.4424 99.342 78.568 97.5339 79.8095Z" fill="#E8BD5D"/>
<path d="M92.1129 75.1818H91.9534C91.9789 75.1643 91.8897 74.9249 92.0332 74.8627C92.4031 75.0621 92.1033 75.1675 92.1129 75.1818Z" fill="#995825"/>
<path d="M30.7275 88.1076C30.7227 88.3725 30.7259 88.6406 30.7275 88.9055C30.7323 89.6363 30.8551 90.0879 30.8869 90.5012C31.3095 96.0035 33.057 100.513 36.6269 104.704L35.0324 105.821C34.3899 105.114 33.4476 102.982 32.6408 103.906C30.8152 101.207 29.4057 98.1658 28.6548 94.9694C29.4504 94.0758 28.1493 91.2816 28.4953 90.4215C28.7727 89.7321 29.8809 90.2667 30.0897 89.7831C30.2715 89.3603 30.026 87.3735 30.0897 86.831C30.6047 82.5032 31.8643 78.6686 34.2352 75.0222C34.3644 75.0462 34.409 75.8568 34.3947 75.8999C33.843 77.5515 32.0557 80.1064 31.5247 81.9638C30.997 83.8117 30.7578 86.4927 30.7275 88.1076Z" fill="#EDBC4B"/>
<path d="M14.4644 79.9691C14.6206 79.0164 14.729 78.2552 15.5007 77.5754L16.6965 79.0914C16.518 77.9233 16.3888 76.7392 15.5805 75.8201C17.2833 77.0871 17.2546 78.9941 16.4574 80.767C16.1927 80.909 14.7545 80.159 14.4644 79.9691Z" fill="#D69F41"/>
<path d="M24.1903 78.3733C22.0953 78.1292 20.2585 77.8148 18.6896 79.4904C19.7531 77.9329 18.9973 78.9351 18.9287 78.2935C18.8969 77.9983 19.938 77.368 19.8854 76.9371C21.2566 76.444 23.3692 77.1175 24.6687 77.6552C24.8106 78.1068 24.3083 78.2058 24.1903 78.3733Z" fill="#EAC36B"/>
<path d="M91.9534 76.9371C91.5612 77.3424 93.4857 78.1403 92.5115 78.3733C92.3712 78.4068 90.3638 77.1206 89.8807 78.2137C88.8156 78.1116 88.1332 78.7706 87.1702 77.735C88.4011 77.2515 90.7225 76.5254 91.9534 76.9371Z" fill="#D6A85B"/>
<path d="M89.8806 78.2137C91.7174 78.3893 93.0854 78.4244 94.0261 80.2882C92.749 80.3473 91.5835 80.8116 90.2792 80.4478C89.7961 80.3122 86.8098 78.2504 87.1701 77.735C88.1331 78.7706 88.8155 78.1116 89.8806 78.2137Z" fill="#CF953D"/>
<path d="M99.2877 84.4373L98.331 84.198C98.3087 84.1294 98.8094 83.0394 98.8094 82.8416C98.5319 80.649 99.7931 81.391 100.882 80.1287C101.15 79.8192 101.525 79.3069 101.201 79.0117C101.225 79.0085 101.372 78.6271 101.679 79.0915C101.671 81.1181 101.234 83.4671 99.2877 84.4373Z" fill="#D59C3F"/>
<path d="M15.1021 81.7245L14.9427 83.3202C14.3767 82.2303 13.8872 82.1777 13.0294 81.5649C12.4825 81.1739 11.6215 80.5659 11.0364 80.2883C10.8084 80.1813 10.3396 79.9069 10.1594 80.2883C10.1004 79.8861 9.96172 79.5079 9.99998 79.0914C11.7092 79.2941 14.1024 80.1845 15.1021 81.7245Z" fill="#E3BA70"/>
<path d="M101.201 79.0117C101.525 79.3069 101.15 79.8192 100.882 80.1288C99.2016 80.7814 97.1862 81.4868 96.4974 83.3203L96.4177 82.2033C97.1878 80.8102 99.6688 79.2271 101.201 79.0117Z" fill="#CC9C55"/>
<path d="M23.5526 81.5649L18.3707 83.7989C17.7345 83.4128 18.2655 82.9787 17.9721 82.5223C19.329 80.5404 21.448 80.6696 23.5526 81.5649Z" fill="#EAC26A"/>
<path d="M92.1129 81.0861C91.4719 81.4468 92.6215 81.584 92.7507 81.8042C93.17 82.5159 92.7188 83.017 92.7507 83.0808C92.7698 83.1207 93.0281 83.1846 93.229 83.4798C92.7379 83.1957 91.617 82.6979 91.0765 82.5223C90.4483 82.3181 88.3947 82.4569 88.6052 81.5649C89.4853 81.2856 91.2328 80.9074 92.1129 81.0861Z" fill="#DAAE64"/>
<path d="M95.1422 84.4373C95.1837 84.7261 95.1247 85.2208 95.1422 85.3948C91.821 86.5262 89.1472 84.5203 87.8079 81.6447C87.9609 81.4564 88.401 81.6287 88.6051 81.5649C88.3946 82.457 90.4482 82.3181 91.0764 82.5224C91.6169 82.6979 92.7378 83.1958 93.2289 83.4798C93.3915 83.7208 93.8013 84.3719 94.1856 84.1979C93.932 83.807 93.6004 83.6953 93.2289 83.4798C93.028 83.1846 92.7697 83.1208 92.7506 83.0809C92.7187 83.0171 93.1699 82.516 92.7506 81.8043C92.6214 81.5841 91.4718 81.4468 92.1128 81.0862C93.8061 81.4293 93.8603 83.6921 95.1422 84.4373Z" fill="#DCA84F"/>
<path d="M14.9427 83.3203C15.2058 83.8262 15.362 84.3464 15.2616 84.8363L15.0224 85.0756C14.9379 84.6464 14.2188 84.8522 14.0657 84.7565C13.5236 84.4182 11.7666 81.9767 13.0294 81.5649C13.8872 82.1777 14.3767 82.2304 14.9427 83.3203Z" fill="#D79C3D"/>
<path d="M98.8094 82.8415C98.8094 83.0394 98.3087 84.1293 98.331 84.1979L99.2877 84.4373C98.457 84.8506 97.3122 85.0437 96.4177 85.3947C96.5293 84.3383 96.5501 83.6665 97.2149 82.7617C97.8479 81.9 98.8062 81.1579 98.8094 82.8415Z" fill="#BE7F2D"/>
<path d="M81.2707 89.5438C81.2277 90.763 81.0236 92.172 80.7924 93.3736L80.3141 93.2141C81.0045 89.5374 80.8801 86.6698 80.3141 83.0011L81.2707 86.432C81.2436 87.4677 81.3074 88.5113 81.2707 89.5438Z" fill="#F4E0A9"/>
<path d="M93.2289 83.4799C93.6004 83.6953 93.932 83.807 94.1855 84.198C93.8013 84.3719 93.3915 83.7208 93.2289 83.4799Z" fill="#DAAE64"/>
<path d="M13.3483 85.8735L14.6238 87.5491C14.4947 87.6799 14.4421 87.8012 14.2252 87.7884C13.9223 87.7709 9.71937 85.0963 8.72445 85.2352C8.72126 84.9974 8.72604 84.7564 8.72445 84.5171L9.12306 84.2777C10.448 84.9846 12.0616 85.1043 13.3483 85.8735Z" fill="#E5BC6C"/>
<path d="M102.955 86.0331C102.652 84.699 102.558 85.4315 101.679 85.7139C101.223 85.8591 100.179 86.1192 100.005 86.1926C99.7549 86.298 97.4414 88.1028 97.3744 87.3895L98.9688 85.7139C100.134 85.058 101.671 84.8889 102.875 84.2777C103.371 84.4628 103.023 85.6517 102.955 86.0331Z" fill="#D2A04F"/>
<path d="M102.955 86.033C102.421 89.0139 99.9271 91.6023 96.7366 90.3416C96.802 89.9969 96.617 89.4975 96.8961 88.9852C97.8798 87.1804 100.421 87.0208 101.679 85.7139C102.558 85.4314 102.652 84.699 102.955 86.033Z" fill="#D0973F"/>
<path d="M32.4814 85.7139C32.6456 88.8592 32.9342 86.9474 33.8366 87.7884C34.1603 88.09 33.4093 88.173 33.6772 88.2671C34.7056 88.631 35.4773 87.8028 35.5905 87.7884C36.7353 87.6512 38.2165 87.9671 39.4171 87.7884L39.2577 88.4267C40.0374 88.3693 40.8808 88.5049 41.6493 88.4267C43.4845 88.24 45.6992 87.5985 47.7081 87.4693C47.7544 87.4661 48.1291 87.4724 48.3459 87.4693C49.1543 87.4565 50.8539 87.3304 51.5347 87.4693C51.6894 87.5012 51.2844 87.9049 51.5347 87.948C52.7353 88.1522 54.5976 87.9735 55.9194 87.948C55.9114 88.1443 56.3196 88.1602 56.3977 88.2671C57.053 89.1608 57.6446 91.631 57.9922 92.6555C59.7476 93.1885 60.4938 96.0944 61.181 96.8045C61.3054 96.9322 61.8889 96.8779 62.0579 97.0439C65.293 100.216 68.9698 103.108 71.465 107.097L75.8497 102.948C68.9474 112.288 57.1136 115.619 46.2731 111.246C45.3595 110.878 44.2562 109.749 43.164 109.81C41.9698 108.19 39.7153 107.168 38.1416 105.661C36.9633 104.533 35.7484 103.05 34.873 101.672C35.3561 101.463 35.1489 101.41 35.0325 101.113C34.6785 100.2 33.7043 98.7849 33.438 97.9216C32.255 94.0949 32.5531 90.0991 32.0828 86.1926C32.0238 85.6963 31.8914 85.6788 32.4814 85.7139Z" fill="#E5BC5E"/>
<path d="M23.2337 85.8735C23.7694 87.2188 21.1083 87.1182 20.284 87.4693C18.6976 88.1427 17.1749 88.9885 16.856 90.8204C16.8544 90.8316 16.6679 90.7949 16.6966 90.98C16.6631 90.2364 16.51 89.5247 16.5371 88.7459L19.3274 86.0331C19.9779 85.8321 22.5944 85.7427 23.2337 85.8735Z" fill="#EDCA75"/>
<path d="M16.856 90.8204C17.1749 88.9885 18.6976 88.1427 20.284 87.4693C21.1083 87.1182 23.7694 87.2188 23.2337 85.8735C23.4761 85.923 23.6802 85.7906 23.8715 86.1129C22.6964 89.3076 20.4993 91.4955 16.856 90.8204Z" fill="#E9BA5C"/>
<path d="M90.3589 85.8735C90.4912 86.5102 91.6105 86.0794 92.033 86.1927C92.7585 86.3874 95.0497 88.7491 94.5841 88.9055C93.7837 88.106 92.7952 87.4406 91.7142 87.1502C91.6791 87.1406 91.4319 87.4789 91.3953 87.4693C90.5247 87.2555 88.6943 87.0177 89.2428 86.0331C89.5138 85.99 90.1452 85.8767 90.3589 85.8735Z" fill="#E7C372"/>
<path d="M95.461 89.2246C95.4562 89.8341 95.3319 90.4054 95.3016 90.9799C93.6482 91.082 92.1494 91.0118 90.7575 90.0224C90.2871 89.6873 87.9433 86.8086 87.9672 86.432C88.0071 85.8048 88.825 86.0984 89.2428 86.033C88.6943 87.0176 90.5247 87.2554 91.3952 87.4692C91.4319 87.4788 91.679 87.1405 91.7141 87.1501C92.7951 87.4405 93.7837 88.1059 94.5841 88.9054C95.0497 88.749 92.7585 86.3873 92.033 86.1926C91.6105 86.0793 90.4912 86.5101 90.3589 85.8734C91.5786 85.8511 92.4061 85.8319 93.468 86.5117C94.5155 87.182 94.7084 88.3964 95.461 89.2246Z" fill="#E3B55B"/>
<path d="M15.1021 90.5012C13.5667 90.8762 12.3837 90.64 11.1161 89.7033C11.1448 89.148 11.3999 89.9969 11.7539 89.3044C12.1445 88.54 11.8097 87.5825 12.4713 86.9905C13.4009 87.4724 14.9746 88.4075 15.2616 89.4639C15.3732 89.8756 15.0926 90.4501 15.1021 90.5012Z" fill="#DFAA4B"/>
<path d="M30.7275 88.9055C30.7259 88.6406 30.7227 88.3725 30.7275 88.1076C31.2951 88.0661 31.0815 88.8656 30.7275 88.9055Z" fill="#F6D974"/>
<path d="M83.1841 89.3842C82.4618 102.425 72.3866 113.541 59.4272 115.236C54.4813 115.882 49.3408 115.189 44.7585 113.161C41.0626 111.526 37.727 108.782 35.0325 105.821L36.6269 104.704C38.4812 106.88 40.5412 108.525 43.0046 109.97C58.0575 118.79 77.4776 110.624 80.7924 93.3736C81.0236 92.172 81.2277 90.7629 81.2708 89.5437L83.1841 89.3842Z" fill="#DAA13D"/>
<path d="M34.873 101.672C35.7484 103.05 36.9633 104.533 38.1416 105.661C39.7153 107.167 41.9698 108.19 43.164 109.81C43.0413 109.816 42.9886 109.836 43.0046 109.97C40.5412 108.525 38.4812 106.88 36.6269 104.704C33.057 100.513 31.3095 96.0034 30.887 90.5012L31.2058 90.2618C31.4036 94.114 32.8066 98.4163 34.873 101.672Z" fill="#F3D88C"/>
<path d="M24.1904 91.9375C24.1824 91.9726 23.9273 92.421 23.8715 92.5758L23.9512 91.2992C23.1875 92.1928 21.8338 92.2598 21.0015 92.7354C19.6893 93.1407 20.2202 92.496 19.0882 91.6183C20.4227 90.8013 22.6629 90.9641 24.1106 90.1821C24.5395 90.3449 24.2589 91.6088 24.1904 91.9375Z" fill="#EBC36E"/>
<path d="M92.4317 93.6928C91.0955 94.063 92.446 95.5311 91.9533 96.4056C90.005 95.7322 88.3165 93.5204 87.9673 91.4587C88.5206 90.5858 88.3292 91.3853 89.0037 91.6183C90.8038 92.2406 91.011 92.2853 92.4317 93.6928Z" fill="#DFAB4E"/>
<path d="M103.433 92.0971C103.049 93.4407 101.443 95.429 100.085 95.9269C99.4631 96.0195 98.8078 95.6062 98.7297 95.6078C98.6483 95.6094 98.0217 96.2828 97.2947 95.9269C97.1193 95.8407 97.3616 94.1891 97.6933 93.7726C98.8923 92.2678 101.585 91.7907 103.353 91.4587L103.433 92.0971Z" fill="#E7B851"/>
<path d="M21.0015 92.7353C19.6526 93.5045 18.7422 94.2896 17.8924 95.6077L17.4938 94.4907C17.835 93.3545 17.9322 92.3252 19.0882 91.6183C20.2202 92.496 19.6893 93.1407 21.0015 92.7353Z" fill="#F7DF94"/>
<path d="M80.7923 93.3737C77.4775 110.624 58.0574 118.79 43.0045 109.97C42.9885 109.836 43.0412 109.817 43.1639 109.81C44.2561 109.75 45.3595 110.878 46.2731 111.246C57.1135 115.619 68.9474 112.288 75.8496 102.948C76.4013 102.202 76.6484 101.831 77.1252 101.033C78.7052 98.3908 79.7304 96.3211 80.314 93.2141L80.7923 93.3737Z" fill="#FBF4DC"/>
<path d="M92.4317 93.6927C93.5924 94.8417 93.9926 94.9438 94.1855 96.7247C93.3772 96.8093 92.7091 96.6673 91.9533 96.4056C92.446 95.5311 91.0955 94.063 92.4317 93.6927Z" fill="#C78934"/>
<path d="M93.2289 100.874C93.4155 100.797 93.5239 100.982 93.6275 100.555C94.1553 100.641 93.0089 102.667 92.91 103.028C92.3919 104.914 92.0778 107.029 90.5981 108.693L90.1995 108.374C91.2885 106.548 92.0506 103.745 92.91 101.752C88.5238 102.103 86.7301 99.0084 86.5323 95.0492C86.6647 94.8992 86.7109 94.8226 86.931 94.8099C87.1701 94.7971 90.9712 96.6897 91.2359 96.8844C92.6629 97.9408 93.0376 99.3834 92.91 101.113C93.2911 101.408 93.2098 100.882 93.2289 100.874Z" fill="#DAA13C"/>
<path d="M25.147 97.2035L24.9078 96.246C23.1157 97.7221 20.9313 98.3014 19.6462 100.395L19.2476 98.4801C19.6558 97.3679 23.83 95.03 24.7484 94.9694C25.9968 94.8864 25.3016 96.4918 25.147 97.2035Z" fill="#E8C06C"/>
<path d="M103.114 98.1609C102.378 97.8561 101.772 98.0827 101.042 98.1609L99.208 97.8418L97.2947 98.6397L97.5338 97.363C99.1745 96.6433 102.292 96.4247 103.752 97.2832C103.782 97.4412 103.161 98.0779 103.114 98.1609Z" fill="#E5B351"/>
<path d="M12.3916 101.672C11.1464 101.405 9.27131 99.1583 8.72443 98.0013C11.5083 98.1976 14.8247 98.0444 16.5371 100.634C16.569 101.616 13.0214 101.807 12.3916 101.672Z" fill="#DBA03E"/>
<path d="M103.114 98.1609C102.467 99.3306 101.456 100.708 100.244 101.352C98.0201 101.662 96.6026 102.235 96.896 99.278C98.3963 98.4865 99.3626 98.3428 101.041 98.1609C101.772 98.0827 102.378 97.8561 103.114 98.1609Z" fill="#D3983A"/>
<path d="M100.244 101.352C98.8333 102.104 95.5775 102.541 95.1422 100.714C95.5759 100.263 96.346 99.5668 96.8961 99.278C96.6027 102.235 98.0201 101.662 100.244 101.352Z" fill="#BD7B29"/>
<path d="M21.4798 106.619C21.1881 104.621 26.9487 101.297 27.0603 100.475C27.1337 99.9323 26.6872 100.157 26.582 99.7568C26.6314 99.7408 27.0189 99.2541 27.2198 99.5174C27.7778 102.036 26.4162 105.867 23.7918 106.778C23.4442 106.899 21.8147 107.209 21.5596 107.097C21.3937 107.024 21.5277 106.682 21.4798 106.619Z" fill="#DBA548"/>
<path d="M90.6778 105.342C90.8245 103.879 90.5455 103.052 89.3226 101.991C87.5543 100.457 87.5049 102.012 86.9309 101.991C86.6758 101.981 85.5645 100.411 85.4162 101.193C84.9953 100.845 85.3636 100.61 84.619 100.714C84.635 100.114 84.3878 99.4232 85.1771 99.4376C85.4481 99.4424 89.6526 101.705 89.9603 101.991C91.0015 102.958 91.6185 104.772 90.7575 105.98C90.3223 105.98 90.6507 105.612 90.6778 105.342Z" fill="#DFB25F"/>
<path d="M26.582 99.7567C26.6872 100.157 27.1336 99.9322 27.0603 100.475C26.9487 101.297 21.188 104.621 21.4798 106.619C18.8203 103.055 23.8396 100.646 26.582 99.7567Z" fill="#EAC97B"/>
<path d="M85.4162 101.193C86.2581 101.889 87.151 102.602 88.1267 103.108C89.1041 104.236 90.4371 105.398 90.3589 107.017C86.8257 107.67 84.5313 103.893 84.619 100.714C85.3636 100.61 84.9953 100.845 85.4162 101.193Z" fill="#EBBA4E"/>
<path d="M16.856 100.874C16.8145 100.952 16.9054 100.976 16.6965 101.193C16.349 101.081 16.5658 100.786 16.856 100.874Z" fill="#B1600C"/>
<path d="M90.6779 105.342L88.1268 103.108C87.151 102.602 86.2581 101.889 85.4163 101.193C85.5645 100.411 86.6759 101.981 86.931 101.991C87.505 102.012 87.5544 100.457 89.3226 101.991C90.5455 103.052 90.8245 103.879 90.6779 105.342Z" fill="#EAC874"/>
<path d="M18.7693 105.661C17.5783 105.46 16.9548 104.281 15.6602 104.065C14.3894 103.853 10.9917 104.458 10.0797 104.225C9.88516 104.175 9.49294 103.524 9.52163 103.267C10.2519 102.696 14.5265 102.233 15.5007 102.47C16.4287 102.695 18.6928 104.705 18.7693 105.661Z" fill="#DDAC5A"/>
<path d="M102.477 103.267C101.319 105.058 98.5783 103.789 96.657 104.065C95.3862 104.249 94.5715 105.186 93.3884 105.502C93.6563 104.684 95.6732 102.64 96.4976 102.47C97.4335 102.276 101.745 102.674 102.477 103.267Z" fill="#D19D50"/>
<path d="M18.7693 105.661C18.9048 107.332 14.6366 107.351 13.428 107.097C11.6614 106.726 10.0048 105.06 9.20276 103.507C9.26813 103.373 9.44989 103.323 9.52164 103.267C9.49294 103.524 9.88517 104.175 10.0797 104.225C10.9917 104.458 14.3894 103.853 15.6602 104.065C16.9548 104.281 17.5783 105.46 18.7693 105.661Z" fill="#D39437"/>
<path d="M93.3884 105.502C94.5715 105.186 95.3862 104.249 96.657 104.065C98.5783 103.789 101.319 105.058 102.477 103.267C102.515 103.298 102.749 103.202 102.796 103.347C102.226 105.195 100.348 106.749 98.4109 107.097C97.1879 107.316 92.7554 107.431 93.3884 105.502Z" fill="#C68833"/>
<path d="M35.0324 105.821C37.727 108.782 41.0626 111.526 44.7584 113.161L43.9612 113.48C39.3119 111.345 35.5171 108.155 32.6408 103.906C33.4476 102.982 34.3899 105.114 35.0324 105.821Z" fill="#D89323"/>
<path d="M87.1701 112.363C86.8129 112.804 86.3793 112.809 86.2134 113.002C84.6302 112.017 82.9784 110.496 82.3868 108.693C84.3113 109.473 86.4016 110.16 86.2134 107.177C85.1563 106.808 84.5616 106.593 83.5826 106.14C83.7628 107.266 82.8508 107.032 82.0679 107.576C82.0058 106.986 81.9468 104.084 82.4665 103.906C84.4532 105.189 88.688 106.657 88.2862 109.571L87.1701 112.363Z" fill="#E0B057"/>
<path d="M28.9737 109.81C27.8639 109.173 26.8292 109.965 25.6254 109.491C26.2552 108.155 29.267 105.744 29.452 104.943C29.5413 104.554 29.2351 104.501 29.1331 104.225C29.1538 104.222 29.2144 103.946 29.5317 104.065C30.1806 106.231 30.0355 107.855 28.9737 109.81Z" fill="#DCA74B"/>
<path d="M29.1331 104.225C29.2351 104.501 29.5413 104.554 29.452 104.943C29.267 105.744 26.2551 108.155 25.6253 109.491C25.0753 110.657 25.0211 111.272 25.147 112.523C25.0211 112.368 24.7404 112.137 24.6687 112.044C24.1011 110.552 23.1986 109.299 24.0309 107.656C24.3929 106.941 28.3167 104.368 29.1331 104.225Z" fill="#E3BD71"/>
<path d="M82.3868 108.693C82.3373 108.543 82.2512 108.325 82.2273 108.214C86.2293 109.842 84.6461 106.339 82.2273 107.895C82.2018 107.74 82.0838 107.724 82.0679 107.576C82.8507 107.032 83.7627 107.267 83.5826 106.14C84.5615 106.593 85.1563 106.809 86.2134 107.177C86.4015 110.16 84.3112 109.473 82.3868 108.693Z" fill="#F9DF8F"/>
<path d="M82.2274 108.214C82.2066 108.119 82.2433 107.994 82.2274 107.895C84.6461 106.339 86.2294 109.842 82.2274 108.214Z" fill="#FBEDBF"/>
<path d="M18.6099 108.055C18.5015 108.739 20.0927 108.945 19.4868 109.491C19.026 109.556 18.7359 109.014 18.6896 109.012C17.7218 108.968 16.0078 109.247 15.3413 109.331C14.8247 109.397 14.2109 109.057 13.9861 109.81C13.039 109.908 12.0345 109.767 11.1161 110.129C10.9981 109.946 10.5868 109.461 10.6378 109.252C12.6691 108.076 16.365 107.219 18.6099 108.055Z" fill="#DCAA57"/>
<path d="M32.8002 113.64C33.0075 111.91 33.3455 110.238 32.7205 108.533C32.121 109.272 29.2765 113.18 29.7708 113.879C29.9574 114.072 30.4118 113.881 30.568 113.959C28.7982 113.86 29.2861 115.099 29.133 116.512C25.764 114.13 29.8043 108.961 32.4016 107.736C33.6628 109.041 33.5065 112.097 32.8002 113.64Z" fill="#D2A357"/>
<path d="M83.8217 112.523C82.7901 115.544 82.6211 112.785 81.9084 111.645C81.4811 110.962 80.7238 109.989 80.0748 109.491L82.3867 113.241L79.9951 114.597C78.5777 112.62 77.9622 109.773 79.5965 107.736C81.1463 109.098 83.404 110.287 83.8217 112.523Z" fill="#D8A34C"/>
<path d="M90.1995 110.927C90.3238 110.836 92.3854 109.69 92.5114 109.651C94.3035 109.079 96.2758 109.518 98.0919 109.81L96.4974 109.012L93.468 109.172C93.6227 108.232 94.7707 109.226 94.0261 107.895C95.1788 107.514 100.241 108.206 100.962 108.853C101.668 109.486 100.303 110.839 99.8457 111.246C97.0651 113.725 92.8462 113.383 90.1995 110.927Z" fill="#D39C45"/>
<path d="M32.8002 113.64C32.5196 114.253 32.2948 114.235 32.003 114.597C31.4912 114.487 31.0304 114.187 30.568 113.959C30.4118 113.881 29.9574 114.072 29.7708 113.879C29.2766 113.18 32.121 109.272 32.7205 108.533C33.3455 110.238 33.0075 111.91 32.8002 113.64Z" fill="#D0963C"/>
<path d="M21.6393 110.768C19.042 113.93 13.2877 113.514 11.1161 110.129C12.0345 109.767 13.039 109.908 13.9861 109.81C16.9884 109.502 18.0646 109.038 20.9218 110.448C21.0876 110.53 20.9154 110.831 21.0812 110.927C21.3188 111.064 21.3172 110.56 21.6393 110.768Z" fill="#D9A245"/>
<path d="M28.9736 109.81C28.709 110.295 28.5208 110.515 28.1764 110.927C27.8049 110.764 26.4497 111.771 26.7414 112.204C26.4831 112.414 26.1882 112.872 25.7848 113.002C25.7593 112.971 25.4595 112.909 25.147 112.523C25.0211 111.272 25.0753 110.657 25.6253 109.491C26.8291 109.965 27.8639 109.173 28.9736 109.81Z" fill="#C68631"/>
<path d="M83.8217 112.523C84.131 114.178 83.6097 115.62 82.4665 116.832C81.3599 116.495 80.6377 115.493 79.9951 114.597L82.3867 113.241L80.0748 109.491C80.7238 109.989 81.4811 110.962 81.9084 111.645C82.6211 112.785 82.7901 115.544 83.8217 112.523Z" fill="#BF883D"/>
<path d="M28.1764 110.927C27.6295 111.578 27.3457 111.711 26.7414 112.204C26.4497 111.771 27.8049 110.764 28.1764 110.927Z" fill="#E3BD71"/>
<path d="M36.308 111.725L35.3513 114.199C34.8044 115.073 33.5177 116.774 33.7569 117.789L32.88 118.747L32.1625 116.832C32.3666 114.369 34.3596 112.952 35.7499 111.087C35.8568 111.087 36.2123 111.623 36.308 111.725Z" fill="#D09F51"/>
<path d="M78.0818 120.342C77.865 120.413 77.6179 120.88 77.6035 120.422C77.7518 120.192 78.6957 119.437 78.7196 119.305C78.7802 118.972 78.2493 118.553 78.2413 118.507C78.1855 118.183 78.321 117.657 78.2413 117.39C77.6928 115.549 75.8608 113.755 75.5308 111.725C75.5627 111.688 75.636 111.176 75.9294 111.087C78.498 113.685 81.9053 116.994 78.0818 120.342Z" fill="#CE9A49"/>
<path d="M36.308 111.725C38.0236 113.552 37.9646 115.991 37.1052 118.108C36.4706 117.282 33.6756 117.191 34.1555 118.747C33.9801 118.432 33.8398 118.143 33.7569 117.789C33.5177 116.774 34.8044 115.073 35.3513 114.199L36.308 111.725Z" fill="#D7A54E"/>
<path d="M19.6463 113.002C21.3188 112.845 23.1141 113.134 24.3498 114.358C22.2595 119.519 17.2467 118.997 13.6672 115.635C13.6672 114.877 18.814 113.08 19.6463 113.002ZM21.4001 113.959C21.2566 113.967 19.7627 114.569 19.6463 114.597C19.219 114.701 16.8417 115.111 17.1749 115.635C19.1456 115.054 21.0494 114.262 23.154 114.278C22.7841 114.16 21.735 113.94 21.4001 113.959Z" fill="#C58A36"/>
<path d="M90.4387 113.002C92.7856 112.734 96.4783 114.049 98.331 115.475C96.1355 117.684 92.8303 119.426 89.9603 117.31C87.7265 115.663 86.789 113.417 90.4387 113.002ZM90.2792 113.959C90.1325 113.953 88.9192 114.17 88.6848 114.278C90.6587 114.266 92.4827 114.928 94.345 115.475C94.2318 114.76 93.3038 114.972 93.1492 114.917C92.4094 114.647 90.9186 113.991 90.2792 113.959Z" fill="#C68A38"/>
<path d="M59.4271 115.236C59.2852 116.303 59.7747 115.453 60.0649 116.034C54.2867 116.847 49.1909 115.882 43.9612 113.48L44.7584 113.161C49.3408 115.189 54.4812 115.882 59.4271 115.236Z" fill="#BA6F11"/>
<path d="M21.4001 113.959C21.735 113.94 22.7841 114.16 23.154 114.278C21.0494 114.262 19.1456 115.054 17.1749 115.635C16.8417 115.111 19.219 114.701 19.6463 114.597C19.7627 114.569 21.2566 113.967 21.4001 113.959Z" fill="#D09D51"/>
<path d="M30.568 113.959C31.0304 114.187 31.4912 114.487 32.003 114.597C31.3828 115.37 29.9749 117.108 29.1331 116.512C29.2861 115.099 28.7982 113.86 30.568 113.959Z" fill="#BD7D2B"/>
<path d="M90.2792 113.959C90.9186 113.991 92.4094 114.647 93.1492 114.917C93.3039 114.972 94.2318 114.76 94.345 115.475C92.4827 114.928 90.6587 114.266 88.6848 114.278C88.9192 114.17 90.1326 113.953 90.2792 113.959Z" fill="#CE9D52"/>
<path d="M73.6176 121.459C73.4581 120.854 73.7292 119.645 72.9001 119.385C71.1095 118.821 71.3423 119.736 71.0665 120.821C70.8751 119.664 71.3009 118.322 71.2259 117.23C71.218 117.106 70.9214 117.197 70.907 117.071C70.8592 116.642 71.2243 115.129 70.4287 115.555C70.8225 115.205 71.0569 114.553 71.784 114.597C72.9718 117.077 74.5965 118.592 73.6176 121.459Z" fill="#DEB057"/>
<path d="M40.9317 115.236C40.3482 115.167 40.4502 115.332 40.4534 115.794C40.4662 117.7 40.5283 119.889 40.7723 121.778C40.8791 122.602 41.072 123.413 41.4101 124.172C40.4024 123.773 39.6403 123.336 38.6995 122.896C38.6948 122.675 38.8654 122.744 39.0184 122.736C39.7933 122.696 38.2993 121.376 38.3807 120.262C38.387 120.186 38.9339 118.968 39.0981 118.906C39.3421 118.812 40.1425 119.04 40.294 118.826C40.4135 118.657 40.5842 114.586 39.6562 115.236C40.4391 114.31 40.3115 114.891 40.9317 115.236Z" fill="#EBC86A"/>
<path d="M39.0185 122.736C37.1228 120.917 38.1751 116.986 39.6563 115.236C40.5843 114.586 40.4136 118.657 40.2941 118.826C40.1426 119.04 39.3422 118.812 39.0982 118.906C38.934 118.968 38.3871 120.186 38.3808 120.262C38.2994 121.376 39.7934 122.696 39.0185 122.736Z" fill="#D9A854"/>
<path d="M40.9318 115.236C42.0686 115.866 42.6841 116.774 43.164 117.949C42.6235 118.083 43.4797 119.382 43.4829 119.465C43.5562 122.037 42.6649 120.984 40.7724 121.778C40.5284 119.889 40.4662 117.7 40.4535 115.794C40.4503 115.332 40.3482 115.167 40.9318 115.236Z" fill="#CF9B49"/>
<path d="M71.0664 120.821C70.7826 121.938 70.6917 123.058 70.4287 124.172C70.2915 124.226 70.1066 124.273 69.9503 124.332C67.6193 121.389 67.5427 118.123 70.4287 115.555C71.2243 115.129 70.8591 116.642 70.907 117.071C70.9213 117.197 71.2179 117.106 71.2259 117.231C71.3008 118.322 70.8751 119.664 71.0664 120.821Z" fill="#D39D45"/>
<path d="M33.7569 117.789C33.8398 118.143 33.9801 118.432 34.1555 118.746C33.6756 117.191 36.4706 117.282 37.1052 118.108C36.6699 119.179 36.0162 120.173 35.1919 120.981C34.857 120.776 34.3691 120.867 33.7569 120.342C32.6169 119.366 32.0349 118.365 32.1625 116.832L32.8799 118.746L33.7569 117.789Z" fill="#B87B2E"/>
<path d="M91.7939 120.502C91.6711 120.203 92.0761 119.908 91.8736 119.704C91.5946 119.423 85.0096 117.791 84.1406 118.268C86.6359 115.651 90.7686 117.921 92.91 119.784C92.6341 120.179 92.1701 120.269 91.7939 120.502Z" fill="#E1B85F"/>
<path d="M27.6981 118.108C26.9695 118.241 26.118 118.131 25.3862 118.268C23.5462 118.612 21.0366 120.467 19.4071 119.385C20.1565 118.735 23.3214 117.24 24.2701 117.151C24.9748 117.084 27.4797 117.242 27.6981 118.108Z" fill="#E2BA62"/>
<path d="M66.1237 117.47C65.8191 117.341 65.7075 117.599 65.6454 117.629C63.9967 118.454 63.7623 119.482 62.7754 120.901C63.622 121.47 64.0557 121.992 65.167 121.778C65.1814 121.898 65.1878 121.956 65.3265 121.938C65.3169 122.883 65.0044 124.242 65.8845 124.81L66.1237 124.092L66.4426 124.651C66.1045 124.986 65.6214 125.458 65.167 125.608C63.7193 126.084 64.9709 124.536 64.4495 124.332L62.7754 124.81C61.3356 121.609 63.056 118.949 65.7251 117.151C65.985 117.077 66.036 117.377 66.1237 117.47Z" fill="#C88C32"/>
<path d="M83.5826 117.151C83.7995 117.379 82.5478 118.545 82.4665 118.587C82.4251 118.608 81.7857 118.772 81.749 118.667L83.5826 117.151Z" fill="#B76606"/>
<path d="M44.9178 119.385C45.0582 118.919 45.4105 117.787 45.7151 117.47C46.0515 117.377 46.2699 117.586 46.3528 117.869C46.5537 118.56 46.2412 121.885 46.3528 122.975C46.3656 123.101 46.6558 123.009 46.6717 123.135C46.7451 123.741 46.5187 124.573 46.9906 125.209C44.1685 124.504 44.2227 121.691 44.9178 119.385Z" fill="#CC9849"/>
<path d="M66.1237 117.47C66.2592 117.612 67.683 120.816 67.7181 121.06C67.962 122.758 67.5762 123.532 66.4426 124.651L66.1237 124.092L65.8845 124.81C65.0044 124.242 65.3169 122.883 65.3265 121.938C65.336 120.91 65.3807 119.607 65.4859 118.587C65.4987 118.461 65.7984 117.95 65.6453 117.629C65.7075 117.599 65.8191 117.341 66.1237 117.47Z" fill="#DEAE53"/>
<path d="M65.6454 117.629C65.7984 117.95 65.4987 118.461 65.4859 118.587C64.88 118.893 65.0841 121.068 65.167 121.778C64.0557 121.992 63.622 121.47 62.7754 120.901C63.7623 119.482 63.9967 118.454 65.6454 117.629Z" fill="#DAA74C"/>
<path d="M43.164 117.949C44.3231 120.784 43.6806 121.964 42.2073 124.491C41.9315 124.389 41.6796 124.279 41.4101 124.172C41.0721 123.413 40.8792 122.602 40.7723 121.778C42.6649 120.984 43.5562 122.037 43.4829 119.465C43.4797 119.382 42.6235 118.083 43.164 117.949Z" fill="#B87F36"/>
<path d="M48.904 124.97C48.4336 125.05 48.3794 125.018 47.9473 124.81C47.5822 124.635 47.2554 124.676 47.2298 124.651C46.895 124.316 46.4119 117.996 46.7515 117.949C48.9247 119.753 49.9467 122.216 48.904 124.97Z" fill="#CF9942"/>
<path d="M27.6981 118.108C27.9388 119.062 26.3093 120.203 25.6253 120.661C25.1135 121.004 24.1983 121.395 23.5526 121.778C21.9582 121.242 20.2346 120.918 18.9288 119.784C18.9176 119.696 19.3274 119.453 19.4071 119.385C21.0366 120.467 23.5462 118.612 25.3862 118.268C26.118 118.13 26.9694 118.241 27.6981 118.108Z" fill="#BF802E"/>
<path d="M91.7939 120.502C90.7033 121.175 89.6733 121.426 88.4456 121.699L90.9967 123.135C90.6922 123.454 90.3972 123.751 90.0401 124.013C90.064 123.111 88.275 123.111 87.7281 122.895C86.8113 122.535 85.1978 121.625 84.5393 121.459C82.9831 121.068 83.7198 124.041 81.4302 123.693C81.0906 123.376 80.7175 123.16 80.4735 122.736L80.3938 121.459C80.794 121.107 84.1933 121.635 83.9812 120.183C84.9586 120.342 85.7144 120.931 86.6918 120.901C85.759 120.079 84.5696 119.508 84.1407 118.268C85.0097 117.791 91.5946 119.423 91.8736 119.704C92.0761 119.908 91.6712 120.203 91.7939 120.502Z" fill="#C08536"/>
<path d="M76.6468 121.14C76.2897 120.645 76.017 120.049 75.6902 119.544C76.3423 119.713 77.2782 117.888 77.7629 118.507C77.9048 119.568 77.6625 120.298 76.6468 121.14Z" fill="#B77625"/>
<path d="M65.3266 121.938C65.1879 121.956 65.1815 121.898 65.1671 121.778C65.0842 121.068 64.8801 118.893 65.486 118.587C65.3808 119.607 65.3361 120.91 65.3266 121.938Z" fill="#E8C16B"/>
<path d="M35.8296 122.417C35.8456 122.425 35.9731 122.728 35.9891 122.736L35.6702 123.215C33.7457 122.385 32.3697 121.309 30.7275 120.023L30.0897 119.305C30.3066 119.295 30.6143 118.904 30.6478 118.906C30.8981 118.919 33.9785 121.549 34.6338 121.938C34.9527 122.126 35.549 122.259 35.8296 122.417Z" fill="#D18E14"/>
<path d="M73.6176 121.459C73.4278 122.016 73.2939 122.286 72.8203 122.656C72.8427 122.707 73.8822 122.591 73.9364 122.576C72.7869 123.162 71.6341 123.701 70.4287 124.172C70.6918 123.058 70.7827 121.938 71.0665 120.821C71.3423 119.736 71.1095 118.821 72.9001 119.385C73.7292 119.645 73.4581 120.854 73.6176 121.459Z" fill="#F5DD77"/>
<path d="M30.0897 120.342C30.5298 120.511 30.9379 120.826 31.2855 121.14L28.6547 121.379L31.6044 121.459L31.2058 123.055C30.7434 123.695 29.8521 124.493 29.133 124.81L29.5316 124.013C28.854 123.947 26.1897 122.114 25.8645 122.098C25.4148 122.075 24.5666 123.034 24.0309 122.736C24.9397 122.182 25.9075 121.79 25.7847 120.821C27.4685 120.323 28.5016 119.734 30.0897 120.342Z" fill="#BF8431"/>
<path d="M83.9813 120.183C84.1933 121.635 80.794 121.107 80.3938 121.459L80.4735 122.736C80.2232 122.3 79.9314 121.93 79.9952 121.379C81.3728 120.068 82.1206 119.879 83.9813 120.183Z" fill="#A5621D"/>
<path d="M31.2058 123.055L31.6044 121.459L28.6547 121.38L31.2855 121.14C30.9379 120.826 30.5298 120.511 30.0897 120.342C32.1194 120.705 32.3825 121.423 31.2058 123.055Z" fill="#9A5510"/>
<path d="M25.7848 120.821C25.9075 121.79 24.9397 122.182 24.0309 122.736C23.3867 123.128 22.7107 123.467 21.9581 123.614L23.2337 124.651C19.5171 123.203 21.6169 122.927 23.5526 121.778C24.1983 121.395 25.1135 121.004 25.6253 120.661C25.5966 120.846 25.7832 120.81 25.7848 120.821Z" fill="#C6934E"/>
<path d="M74.0958 122.576C74.6825 122.39 75.5866 121.523 76.328 121.459L77.9224 121.38C75.1959 123.055 72.3419 124.785 69.1531 125.369L74.0161 123.055L74.0958 122.576Z" fill="#F7DF94"/>
<path d="M90.0401 124.013C87.3248 126.003 83.884 125.988 81.4302 123.693C83.7198 124.041 82.9831 121.068 84.5393 121.459C85.1978 121.625 86.8114 122.535 87.7281 122.896C88.275 123.111 90.064 123.111 90.0401 124.013Z" fill="#DFAE50"/>
<path d="M29.133 124.81C27.2723 125.631 25.1247 125.386 23.2337 124.651L21.9581 123.614C22.7107 123.467 23.3867 123.128 24.0309 122.736C24.5666 123.034 25.4148 122.075 25.8645 122.098C26.1897 122.114 28.854 123.947 29.5316 124.012L29.133 124.81Z" fill="#DBA84D"/>
<path d="M35.989 122.736C35.9731 122.728 35.8455 122.425 35.8296 122.417C36.3924 121.536 37.5579 122.994 37.9821 123.215C38.1654 123.31 42.8084 125.262 40.3737 124.81C39.3995 124.63 36.9505 123.261 35.989 122.736Z" fill="#F0D381"/>
<path d="M36.9457 123.853C37.2104 123.931 37.3682 123.909 37.5835 124.172C37.5101 124.159 36.5391 124.186 36.308 124.172C34.7502 124.07 33.4173 123.901 31.8436 124.172C33.159 123.674 35.5889 123.448 36.9457 123.853Z" fill="#9E5A19"/>
<path d="M76.9657 129.119C79.0831 129.368 81.5401 129.898 83.5029 128.88L80.0749 126.406C80.2933 125.334 77.7071 124.745 76.7266 124.491C76.32 124.386 76.1207 124.659 76.0888 124.651C76.0027 124.629 75.7859 123.677 74.6538 124.332C74.3604 123.95 74.8738 124.033 74.893 124.013C79.6986 122.926 82.4505 124.873 84.9378 128.72C82.8826 130.021 79.166 130.124 76.9657 129.119Z" fill="#C79147"/>
<path d="M36.308 124.172C35.203 124.636 33.7569 124.863 32.7205 125.449C32.4032 125.629 28.7424 128.32 28.6547 128.561C28.4283 129.175 29.3355 128.744 29.3722 129.279L33.7569 129.438C31.5773 129.831 29.0517 129.745 27.0603 128.72C28.4235 127.048 29.7357 124.97 31.8436 124.172C33.4173 123.901 34.7502 124.07 36.308 124.172Z" fill="#C18B43"/>
<path d="M37.5835 124.172C39.1413 126.074 35.6878 129.09 33.7569 129.438L29.3723 129.279C29.3356 128.744 28.4284 129.175 28.6548 128.56C28.7425 128.32 32.4033 125.629 32.7205 125.449C33.7569 124.863 35.2031 124.636 36.308 124.172C36.5392 124.186 37.5102 124.159 37.5835 124.172Z" fill="#DEAB4C"/>
<path d="M65.167 125.608L65.0076 125.927C64.4192 126.054 64.0414 126.497 63.4132 126.087C63.2442 125.977 62.8854 125.056 62.7754 124.81L64.4495 124.332C64.9709 124.536 63.7193 126.084 65.167 125.608Z" fill="#AF6C1C"/>
<path d="M49.2227 124.81C49.0139 125.363 48.8114 125.927 48.2661 126.247C48.1066 126.188 47.6156 126.309 47.5486 126.247C47.3892 126.097 46.8263 124.255 47.9472 124.81C48.3793 125.018 48.4335 125.05 48.9039 124.97C49.1382 124.93 49.084 124.432 49.2227 124.81Z" fill="#A36420"/>
<path d="M60.2243 126.725L61.181 128.64C60.1893 128.969 60.0298 129.851 58.7096 129.438C58.4386 129.354 58.3413 128.754 58.0719 128.8C58.0097 128.811 57.6063 129.59 57.2747 129.757C54.9851 130.913 54.03 128.792 53.7669 128.8C53.6186 128.805 52.08 130.442 51.2956 128.8C51.0676 128.323 51.2047 127.217 51.6145 126.885C52.375 126.267 53.6505 127.07 53.7669 127.044C54.1034 126.973 54.6518 124.917 57.1152 125.768C57.7928 126.002 58.158 126.856 58.2313 126.885C58.3238 126.922 59.8959 126.741 60.2243 126.725ZM55.2019 126.247C54.1034 126.585 54.2421 129.475 56.1586 128.959C58.0049 128.463 56.951 125.707 55.2019 126.247ZM52.1725 126.885C51.6113 127.054 51.1537 129.151 52.6508 128.8C53.9216 128.501 52.898 126.666 52.1725 126.885ZM58.7096 127.204C57.812 127.429 58.6044 129.445 59.6663 128.64C60.481 128.021 59.2709 127.064 58.7096 127.204Z" fill="#9E550E"/>
<path d="M42.3668 126.247C43.1592 126.336 43.5913 126.561 44.2801 126.725C44.4076 127.672 44.2147 128.256 43.9612 129.119L43.8815 127.204L42.0479 127.523C42.641 127.207 43.3745 127.151 43.9612 126.805C43.341 126.95 42.8419 126.593 42.6857 126.566C41.9809 126.443 41.281 126.46 40.6129 126.247C41.5409 126.089 41.501 126.149 42.3668 126.247Z" fill="#914D0F"/>
<path d="M40.613 126.247C41.2811 126.46 41.981 126.443 42.6857 126.566C42.8819 127.233 41.8806 127.016 41.8088 127.044C39.3183 128.035 37.5708 131.04 36.1486 133.188C36.619 133.825 41.3385 132.312 42.048 131.832C41.4293 133.191 35.0054 134.026 34.7136 133.188C36.4547 130.372 36.8215 126.896 40.613 126.247Z" fill="#BF8C45"/>
<path d="M55.2019 126.247C56.951 125.707 58.0049 128.463 56.1585 128.959C54.242 129.475 54.1033 126.585 55.2019 126.247Z" fill="#F1D77A"/>
<path d="M71.3853 126.406C70.6391 126.693 69.9886 126.502 69.1531 126.725C68.7561 126.832 68.5616 126.966 68.1965 127.124L70.2692 128.002C69.0734 128.058 69.1021 129.055 68.037 129.438C67.8122 128.704 67.5779 127.641 67.7182 126.885C67.7389 126.772 67.8218 126.668 67.8776 126.566C69.1069 126.366 70.1241 126.234 71.3853 126.406Z" fill="#98510F"/>
<path d="M73.1392 126.885C73.4342 127.174 72.1092 128.133 72.0231 128.162C71.8589 128.216 68.8821 127.11 69.1532 126.725C69.9887 126.502 70.6392 126.693 71.3854 126.406C72.0136 126.491 72.57 126.595 73.1392 126.885Z" fill="#B17732"/>
<path d="M42.0479 127.523C41.6892 127.715 39.3454 129.303 39.6563 129.678C41.1997 129.626 41.981 129.922 43.3235 130.555C42.9567 131.125 42.6076 131.454 42.0479 131.832C41.3384 132.312 36.6189 133.825 36.1486 133.188C37.5708 131.04 39.3183 128.036 41.8088 127.045C41.8805 127.016 42.8818 127.233 42.6857 126.566C42.842 126.593 43.341 126.95 43.9612 126.805C43.3745 127.151 42.6411 127.207 42.0479 127.523Z" fill="#DCAB50"/>
<path d="M69.1532 126.725C68.8821 127.11 71.8589 128.216 72.0232 128.162C73.5028 129.649 74.7751 131.206 75.8498 133.029L74.4148 133.428C72.1874 133.353 69.9058 132.642 68.6749 130.715C69.5725 129.665 71.2754 130.287 72.342 129.199C72.3771 129.084 70.4096 127.996 70.2693 128.002L68.1965 127.124C68.5617 126.966 68.7562 126.832 69.1532 126.725Z" fill="#DFB156"/>
<path d="M52.1725 126.885C52.898 126.666 53.9216 128.502 52.6509 128.8C51.1537 129.151 51.6113 127.054 52.1725 126.885Z" fill="#FBF1B3"/>
<path d="M74.4147 133.428L75.8497 133.029C74.775 131.206 73.5027 129.649 72.0231 128.162C72.1092 128.133 73.4341 127.174 73.1392 126.885C74.2457 127.451 77.1141 131.948 77.1252 132.869C77.1348 133.702 75.0668 133.45 74.4147 133.428Z" fill="#CB994D"/>
<path d="M43.9612 129.119C43.8209 129.596 43.5897 130.142 43.3234 130.555C41.9809 129.922 41.1997 129.626 39.6563 129.678C39.3453 129.303 41.6891 127.715 42.0479 127.523L43.8815 127.204L43.9612 129.119Z" fill="#B47A2D"/>
<path d="M58.7096 127.204C59.2708 127.064 60.481 128.021 59.6662 128.64C58.6044 129.445 57.8119 127.429 58.7096 127.204Z" fill="#F6E39C"/>
<path d="M48.1067 127.842C48.4495 127.948 49.2149 127.949 49.2228 128.241C47.6172 129.023 44.6325 132.352 44.2801 134.066C44.0585 135.146 43.8401 135.232 44.9179 135.502C44.5288 135.635 42.9041 136.388 42.6857 135.741C42.5677 135.39 44.1876 130.26 44.599 129.677C45.3675 128.589 46.7371 127.825 48.1067 127.842Z" fill="#B07834"/>
<path d="M65.486 128.162C64.5213 128.178 64.2009 128.087 63.2538 128.481C62.9795 128.596 62.9843 128.401 62.7754 128.561L64.3699 129.837L62.1377 130.874C62.0819 129.99 62.4821 129.336 62.4566 128.481C62.6654 128.427 62.8647 128.072 63.5726 128.002C64.5484 127.905 64.5309 127.82 65.486 128.162Z" fill="#A76A24"/>
<path d="M70.2692 128.002C70.4095 127.996 72.377 129.084 72.3419 129.199C71.2753 130.287 69.5724 129.665 68.6748 130.715C68.4994 130.44 68.1263 129.73 68.037 129.438C69.1021 129.055 69.0734 128.058 70.2692 128.002Z" fill="#BB8132"/>
<path d="M65.4859 128.162C68.1725 129.124 68.9202 133.474 69.0733 135.981C68.19 136.034 67.3354 135.801 66.602 135.343C67.1138 135.456 67.7499 135.612 68.0369 135.103C67.1217 132.37 65.7011 130.005 63.2537 128.481C64.2007 128.087 64.5212 128.178 65.4859 128.162Z" fill="#B77F39"/>
<path d="M49.5416 128.64C50.7789 132.133 47.8994 134.492 44.9178 135.502C43.84 135.232 44.0584 135.146 44.28 134.066C44.6627 134.358 44.7663 133.929 44.9178 133.667C45.9414 131.913 47.3286 129.085 49.5416 128.64Z" fill="#BF8534"/>
<path d="M63.2538 128.481C65.7012 130.005 67.1219 132.37 68.0371 135.103C67.7501 135.612 67.1139 135.456 66.6021 135.343C64.8131 134.95 62.2589 132.792 62.1377 130.874L64.3699 129.837L62.7755 128.561C62.9843 128.401 62.9796 128.596 63.2538 128.481Z" fill="#C88F3B"/>
<ellipse cx="56.4998" cy="89" rx="24.5" ry="24" fill="#E5BC5E"/>
<path d="M52.4998 97C52.3028 97.0001 52.1077 96.9614 51.9256 96.8861C51.7436 96.8107 51.5781 96.7003 51.4388 96.561L44.3788 89.5L46.4998 87.379L52.4998 93.379L65.4998 80.379L67.6208 82.5L53.5608 96.561C53.4214 96.7003 53.256 96.8107 53.074 96.8861C52.8919 96.9614 52.6968 97.0001 52.4998 97Z" fill="#BC8F27"/>
</svg>
