<svg width="70" height="53" viewBox="0 0 70 53" fill="none" xmlns="http://www.w3.org/2000/svg">
<g filter="url(#filter0_d_2757_58733)">
<g clip-path="url(#clip0_2757_58733)">
<path d="M9.99985 10.8519C9.99985 9.28335 11.2961 8.00001 12.8805 8.00001H57.1192C58.7035 8.00001 59.9998 9.28335 59.9998 10.8519V36.9667C59.9998 38.5352 58.7035 39.8185 57.1192 39.8185H12.8805C11.2961 39.8185 9.99985 38.5352 9.99985 36.9667V10.8519Z" fill="black"/>
<path d="M61.605 7.26673H8.60089V41.163H61.605V7.26673Z" fill="#AD9651"/>
<path d="M34.5475 45.726C27.7368 45.7056 23.745 44.5241 23.8685 36.1315C29.8561 38.0463 28.745 44.0148 34.5475 45.726Z" fill="#C2AF7C"/>
<path d="M28.6216 12.8278C23.9508 17.0038 19.3006 13.0723 14.8973 17.1871C18.3129 11.3612 21.3376 8.50932 28.6216 12.8278Z" fill="#C2AF7C"/>
<path d="M15.0822 15.2723C15.9876 8.876 11.9341 5.3723 21.7283 -1.12585C26.1728 7.10378 18.7242 8.4686 15.0822 15.2723Z" fill="#C2AF7C"/>
<path d="M22.6546 16.7389C20.7205 22.6667 14.6917 21.5871 12.9839 27.3315C13.0044 20.5889 14.1773 16.6371 22.6546 16.7389Z" fill="#C2AF7C"/>
<path d="M12.1606 25.9668C9.71208 19.9779 4.44459 18.9594 9.65035 8.44825C17.6545 13.3779 11.8931 18.2464 12.1606 25.9668Z" fill="#C2AF7C"/>
<path d="M4.01245 22.7482C13.4157 23.0334 10.8849 30.1222 15.0207 36.6611C9.87665 32.6889 4.81492 34.4204 4.01245 22.7482Z" fill="#C2AF7C"/>
<path d="M6.33731 37.9037C14.6295 33.4833 16.0287 40.8982 22.9011 44.5037C16.4402 43.6278 12.9217 47.6204 6.33731 37.9037Z" fill="#C2AF7C"/>
<path d="M16.4198 37.0685C13.0247 31.2019 12.0576 27.1889 19.4445 23.1148C20.7613 29.2259 15 31.2426 16.4198 37.0685Z" fill="#C2AF7C"/>
<path d="M19.8971 30.2038C24.1152 34.8279 20.144 39.4519 24.3004 43.8112C18.4156 40.4093 15.5555 37.4149 19.8971 30.2038Z" fill="#C2AF7C"/>
<path d="M35.4322 45.726C42.2429 45.7056 46.2347 44.5241 46.0907 36.1315C40.103 38.0463 41.2141 44.0148 35.4322 45.726Z" fill="#C2AF7C"/>
<path d="M41.3373 12.8278C46.0081 17.0037 50.6583 13.0722 55.0616 17.187C51.6254 11.3407 48.6213 8.50926 41.3373 12.8278Z" fill="#C2AF7C"/>
<path d="M54.8766 15.2723C53.9713 8.87598 58.0248 5.37228 48.2305 -1.14624C43.7861 7.08339 51.2552 8.4482 54.8766 15.2723Z" fill="#C2AF7C"/>
<path d="M47.3253 16.7389C49.2595 22.6667 55.2883 21.5871 56.9961 27.3315C56.9755 20.5889 55.8027 16.6371 47.3253 16.7389Z" fill="#C2AF7C"/>
<path d="M57.7982 25.9668C60.2468 19.9779 65.5143 18.9594 60.3085 8.44825C52.3044 13.3779 58.0863 18.2464 57.7982 25.9668Z" fill="#C2AF7C"/>
<path d="M65.9466 22.7482C56.5433 23.0334 59.0742 30.1222 54.9384 36.6611C60.0824 32.6889 65.1441 34.4204 65.9466 22.7482Z" fill="#C2AF7C"/>
<path d="M63.6213 37.9037C55.3292 33.4833 53.93 40.8982 47.0576 44.5037C53.5185 43.6074 57.037 47.6204 63.6213 37.9037Z" fill="#C2AF7C"/>
<path d="M53.5392 37.0685C56.9343 31.2019 57.9013 27.1889 50.5145 23.1148C49.1976 29.2056 54.959 31.2426 53.5392 37.0685Z" fill="#C2AF7C"/>
<path d="M50.0618 30.2038C45.8437 34.8279 49.8149 39.4519 45.6585 43.8112C51.5433 40.4093 54.4034 37.4149 50.0618 30.2038Z" fill="#C2AF7C"/>
<path d="M13.1687 13.5204C13.1687 13.3371 13.1893 13.1741 13.2716 13.0315C13.3313 12.8822 13.4202 12.7459 13.5332 12.6305C13.6462 12.5152 13.7811 12.423 13.93 12.3593C14.0741 12.2982 14.2387 12.2575 14.4239 12.2778C14.6091 12.2778 14.7737 12.3186 14.9383 12.3593C15.1029 12.4204 15.2263 12.5223 15.3292 12.6445L15.0823 12.8686C15.0206 12.7871 14.9177 12.726 14.7942 12.6852C14.6708 12.6241 14.5473 12.6038 14.4239 12.6038C14.3004 12.6038 14.177 12.6241 14.0741 12.6649C13.9712 12.7056 13.8683 12.7871 13.786 12.8686C13.7037 12.9501 13.642 13.0519 13.6008 13.1538C13.5568 13.271 13.5358 13.3954 13.5391 13.5204C13.5391 13.663 13.5597 13.7852 13.6008 13.9075C13.642 14.0297 13.7243 14.1112 13.786 14.1927C13.8683 14.2741 13.9712 14.3352 14.0947 14.3964C14.2181 14.4371 14.321 14.4575 14.465 14.4575C14.5885 14.4575 14.7119 14.4371 14.8148 14.3964C14.9177 14.3556 15 14.2945 15.0617 14.2334V13.6019H14.3621V13.276H15.4115V14.3352C15.3498 14.3964 15.2881 14.4575 15.2263 14.5186C15.0825 14.6359 14.9137 14.7195 14.7325 14.763C14.6296 14.7834 14.5473 14.8038 14.465 14.7834C14.2798 14.7834 14.1152 14.763 13.9506 14.7019C13.7969 14.6418 13.657 14.5518 13.5391 14.4371C13.4224 14.3211 13.3313 14.1824 13.2716 14.0297C13.2052 13.8679 13.1703 13.6951 13.1687 13.5204Z" fill="white"/>
<path d="M15.8025 13.5204C15.8025 13.3371 15.8231 13.1741 15.9054 13.0315C15.9605 12.8813 16.0443 12.7429 16.1523 12.6241C16.2635 12.5109 16.3964 12.4208 16.5433 12.3593C16.7005 12.299 16.8686 12.2713 17.0371 12.2778C17.2223 12.2778 17.3663 12.3186 17.5309 12.3593C17.675 12.4204 17.819 12.5223 17.9219 12.6241C18.0248 12.7463 18.1276 12.8686 18.1688 13.0315C18.2305 13.1945 18.2717 13.3575 18.2717 13.5204C18.2717 13.7038 18.2511 13.8667 18.1688 14.0297C18.1118 14.1729 18.0281 14.3042 17.9219 14.4167C17.8073 14.5341 17.6697 14.6272 17.5176 14.6902C17.3655 14.7533 17.202 14.785 17.0371 14.7834C16.8519 14.7834 16.7079 14.7426 16.5433 14.6815C16.3964 14.62 16.2635 14.53 16.1523 14.4167C16.0469 14.3037 15.9632 14.1725 15.9054 14.0297C15.8437 13.8871 15.8025 13.7038 15.8025 13.5204ZM16.1523 13.5204C16.1523 13.663 16.1729 13.7852 16.2141 13.8871C16.2552 14.0093 16.3169 14.0908 16.3992 14.1926C16.4815 14.2741 16.5639 14.3352 16.6873 14.376C16.7902 14.4167 16.9136 14.4371 17.0371 14.4575C17.1606 14.4575 17.284 14.4371 17.3869 14.376C17.4898 14.3352 17.5927 14.2741 17.675 14.1926C17.7573 14.1112 17.819 14.0093 17.8601 13.8871C17.9037 13.7698 17.9247 13.6454 17.9219 13.5204C17.9219 13.3778 17.9013 13.2556 17.8601 13.1538C17.8178 13.0477 17.7549 12.9508 17.675 12.8686C17.5942 12.7817 17.4961 12.7124 17.3869 12.6649C17.284 12.6241 17.1606 12.6038 17.0371 12.6038C16.9136 12.6038 16.7902 12.6241 16.6873 12.6649C16.5844 12.7056 16.4815 12.7871 16.3992 12.8686C16.3169 12.95 16.2552 13.0519 16.2141 13.1538C16.1729 13.276 16.1523 13.3982 16.1523 13.5204Z" fill="white"/>
<path d="M18.7036 14.7426V12.2982H19.0534V14.4167H20.1439V14.7426H18.7036Z" fill="white"/>
<path d="M20.5351 14.7426V12.2982H21.2759C21.4816 12.2982 21.6463 12.3185 21.7697 12.3593C21.9137 12.4 22.0166 12.4611 22.1195 12.5426C22.2755 12.6541 22.4024 12.8007 22.4899 12.9704C22.5722 13.1333 22.6133 13.337 22.6133 13.5204C22.6133 13.7241 22.5722 13.9074 22.4899 14.0907C22.4038 14.2613 22.2766 14.4082 22.1195 14.5185C22.0166 14.6 21.8932 14.6611 21.7697 14.6815C21.6257 14.7222 21.4611 14.7426 21.2759 14.7426H20.5351ZM20.8849 14.4167H21.2553C21.4405 14.4167 21.564 14.3963 21.6874 14.3759C21.7903 14.3352 21.8932 14.2945 21.9755 14.213C22.0784 14.1315 22.1401 14.0296 22.1812 13.9074C22.2224 13.7852 22.2635 13.663 22.2635 13.5204C22.263 13.3872 22.235 13.2555 22.1812 13.1333C22.1333 13.0252 22.0632 12.9281 21.9755 12.8482C21.8932 12.787 21.8109 12.7259 21.6874 12.6852C21.5845 12.6445 21.4405 12.6241 21.2553 12.6445H20.8849V14.4167Z" fill="white"/>
<path d="M25.3912 22.1575C25.3912 22.7686 25.8645 23.2371 26.4818 23.2371C26.8933 23.2371 27.2019 23.0334 27.3871 22.8093L27.8192 23.176C27.5312 23.5427 27.0579 23.7871 26.4818 23.7871C25.4941 23.7871 24.7945 23.0742 24.7739 22.1575C24.7739 21.2612 25.453 20.5279 26.4612 20.5279C26.9344 20.5279 27.346 20.7112 27.634 20.976L27.2431 21.4038C27.0579 21.2205 26.7904 21.0779 26.4612 21.0779C25.8645 21.0779 25.3912 21.5668 25.3912 22.1575Z" fill="white"/>
<path d="M28.0452 23.7259L29.4033 20.5685H29.8354L31.214 23.7259H30.5761L30.2675 23.0333H28.9917L28.6831 23.7259H28.0452ZM29.2181 22.5037H30.0205L29.6296 21.5667L29.2181 22.5037Z" fill="white"/>
<path d="M32.284 21.1185V21.7704H33.2716V22.3204H32.284V23.1963H33.642V23.7259H31.6872V20.5685H33.5803V21.1185H32.284Z" fill="white"/>
<path d="M34.5266 22.8908C34.7118 23.0945 34.9793 23.2371 35.288 23.2371C35.5554 23.2371 35.7612 23.0742 35.7406 22.8297C35.7406 22.4223 35.1439 22.3816 34.7324 22.1371C34.4855 21.9945 34.2797 21.7705 34.2797 21.4242C34.2797 20.8538 34.7941 20.5279 35.3291 20.5279C35.6583 20.5279 35.9464 20.6093 36.255 20.8334L35.9258 21.2816C35.8024 21.1593 35.576 21.0779 35.3703 21.0779C35.1439 21.0779 34.8764 21.1797 34.8764 21.4038C34.8764 21.913 36.3579 21.7501 36.3579 22.8297C36.3579 23.3797 35.8435 23.7871 35.288 23.7871C34.8559 23.7871 34.4649 23.6038 34.1357 23.2982L34.5266 22.8908Z" fill="white"/>
<path d="M36.5846 23.7259L37.9632 20.5685H38.3953L39.7534 23.7259H39.1155L38.8069 23.0333H37.5311L37.2225 23.7259H36.5846ZM37.7575 22.5037H38.5805L38.169 21.5667L37.7575 22.5037Z" fill="white"/>
<path d="M40.7821 22.3407V23.7259H40.1649V20.5685H41.3171C41.6463 20.5685 41.8521 20.65 42.0167 20.813C42.1047 20.894 42.1754 20.9916 42.2249 21.1C42.2743 21.2085 42.3015 21.3255 42.3048 21.4444C42.3055 21.567 42.2802 21.6883 42.2306 21.8006C42.181 21.9129 42.1081 22.0136 42.0167 22.0963C41.9344 22.1778 41.8315 22.2389 41.6875 22.2796L42.8809 23.7259H42.1402L40.9879 22.3407H40.7821ZM41.276 21.7907C41.4612 21.7907 41.5229 21.75 41.5846 21.7093C41.6463 21.6481 41.6669 21.5667 41.6875 21.4648C41.6875 21.363 41.6463 21.2815 41.5846 21.2204C41.5229 21.1593 41.4612 21.1185 41.276 21.1185H40.7821V21.7907H41.276Z" fill="white"/>
<path d="M43.4569 22.8908C43.642 23.0945 43.9095 23.2371 44.1976 23.2371C44.4651 23.2371 44.6708 23.0742 44.6708 22.8297C44.6708 22.4223 44.0741 22.3816 43.6626 22.1371C43.4157 21.9945 43.2099 21.7705 43.2099 21.4242C43.2099 20.8538 43.7243 20.5279 44.2593 20.5279C44.5885 20.5279 44.8766 20.6093 45.1853 20.8334L44.856 21.2816C44.7326 21.1593 44.5062 21.0779 44.3005 21.0779C44.0741 21.0779 43.8067 21.1797 43.8067 21.4038C43.8067 21.913 45.2881 21.7501 45.2881 22.8297C45.2881 23.3797 44.7737 23.7871 44.2182 23.7871C43.7861 23.7871 43.3951 23.6038 43.0659 23.2982L43.4569 22.8908Z" fill="white"/>
<path d="M45.5351 27.5557H45.5968V27.4131H45.638C45.6791 27.4131 45.6997 27.4131 45.7203 27.4131C45.7409 27.4334 45.7614 27.4538 45.7409 27.4946V27.5353H45.7614V27.5557H45.8026V27.4742C45.8026 27.4521 45.7954 27.4307 45.782 27.4131C45.7737 27.4057 45.7639 27.4001 45.7533 27.3966C45.7426 27.3931 45.7314 27.3918 45.7203 27.3927C45.7409 27.3927 45.7614 27.3927 45.782 27.3723C45.8026 27.352 45.8232 27.3316 45.8026 27.2909C45.8026 27.2501 45.782 27.2094 45.7614 27.2094C45.7409 27.2094 45.6997 27.189 45.6586 27.189H45.5351V27.5557ZM45.7203 27.352C45.7009 27.362 45.6801 27.3688 45.6586 27.3723H45.5968V27.2501H45.6586C45.6997 27.2501 45.7203 27.2501 45.7203 27.2501C45.7409 27.2501 45.7409 27.2705 45.7409 27.3112C45.7409 27.3316 45.7203 27.352 45.7203 27.352ZM45.8849 27.1483C45.8232 27.0871 45.7409 27.0464 45.6586 27.0464C45.5762 27.0464 45.4939 27.0668 45.4322 27.1483C45.3705 27.2094 45.3293 27.2909 45.3499 27.3723C45.3499 27.4538 45.3705 27.5353 45.4322 27.5964C45.4939 27.6575 45.5762 27.6983 45.6586 27.6983C45.7409 27.6983 45.8232 27.6779 45.8849 27.5964C45.9466 27.5353 45.9878 27.4538 45.9878 27.3723C45.9878 27.2909 45.9672 27.2094 45.8849 27.1483ZM45.8643 27.189C45.926 27.2501 45.9466 27.3112 45.9466 27.3723C45.9466 27.4538 45.926 27.5149 45.8643 27.576C45.8026 27.6371 45.7409 27.6575 45.6586 27.6575C45.5762 27.6575 45.5145 27.6371 45.4734 27.576C45.4322 27.5149 45.3911 27.4538 45.3911 27.3723C45.3911 27.2909 45.4116 27.2297 45.4734 27.189C45.5351 27.1279 45.5968 27.1075 45.6586 27.1075C45.7203 27.1075 45.8026 27.1279 45.8643 27.189Z" fill="white"/>
<path d="M26.7903 26.0482C26.8606 25.9827 26.9169 25.9038 26.9557 25.8163C26.9946 25.7288 27.0153 25.6345 27.0167 25.5389C27.0182 25.4399 26.9988 25.3417 26.9598 25.2505C26.9209 25.1593 26.8631 25.0772 26.7903 25.0093C26.6463 24.8871 26.4611 24.826 26.2142 24.826H25.206V27.7186H25.4735V26.2519H25.9467L27.0784 27.7186H27.387L26.2759 26.2519C26.5023 26.2315 26.6669 26.1908 26.7903 26.0482ZM26.7492 25.5389C26.7492 25.6612 26.6874 25.7834 26.6051 25.8649C26.5228 25.9464 26.3994 25.9871 26.1936 25.9871H25.4735V25.0704H26.1936C26.3788 25.0704 26.5023 25.1112 26.6051 25.1926C26.708 25.2741 26.7492 25.3964 26.7492 25.5389Z" fill="white"/>
<path d="M28.3539 26.2519H29.3827V25.9871H28.3539V25.0704H29.6708V24.826H28.0864V27.7186H29.7119V27.4741H28.3539V26.2519Z" fill="white"/>
<path d="M32.9424 27.1889L32.1811 24.826H31.9959L31.2346 27.1889L30.4527 24.826H30.1852L31.1317 27.7186H31.3169L32.0782 25.376L32.8601 27.7186H33.0247L33.9918 24.826H33.7243L32.9424 27.1889Z" fill="white"/>
<path d="M35.5554 24.826H35.3702L34.1151 27.6982V27.7186H34.3826L34.7735 26.8426H36.1727L36.5431 27.7186H36.8106L35.5554 24.826ZM36.0492 26.5982H34.8764L35.4525 25.2334L36.0492 26.5982Z" fill="white"/>
<path d="M39.0536 26.0482C39.1239 25.9827 39.1802 25.9038 39.2191 25.8163C39.2579 25.7288 39.2787 25.6345 39.28 25.5389C39.2815 25.4399 39.2621 25.3417 39.2231 25.2505C39.1842 25.1593 39.1264 25.0772 39.0536 25.0093C38.9096 24.8871 38.7244 24.826 38.4775 24.826H37.4899V27.7186H37.7368V26.2519H38.2306L39.3417 27.7186H39.6709L38.5392 26.2315C38.7656 26.2315 38.9302 26.1704 39.0536 26.0482ZM39.0125 25.5389C39.0125 25.6612 38.9508 25.7834 38.8685 25.8649C38.7862 25.9464 38.6627 25.9871 38.4775 25.9871H37.7573V25.0704H38.4775C38.6627 25.0704 38.7862 25.1112 38.8685 25.1926C38.9713 25.2741 39.0125 25.3964 39.0125 25.5389Z" fill="white"/>
<path d="M42.1604 25.0908C41.9135 24.9075 41.5843 24.826 41.1522 24.826H40.3085V27.7186H41.1522C41.5843 27.7186 41.8929 27.6371 42.1604 27.4334C42.5308 27.1686 42.7365 26.7204 42.7365 26.2723C42.7365 25.8038 42.5102 25.376 42.1604 25.0908ZM40.576 25.0704H41.1316C41.5225 25.0704 41.79 25.1519 42.0163 25.3149C42.3044 25.5389 42.469 25.8852 42.469 26.2723C42.469 26.6593 42.3044 27.0056 42.0163 27.2297C41.79 27.3926 41.5225 27.4741 41.1316 27.4741H40.576V25.0704Z" fill="white"/>
<path d="M44.6711 26.2722C44.5476 26.1908 44.4036 26.1296 44.2595 26.0889C43.9303 25.9463 43.6628 25.8445 43.6628 25.5389C43.6628 25.2537 43.9097 25.0296 44.2389 25.0296C44.4653 25.0296 44.6299 25.0908 44.8151 25.2537V25.2741L44.9797 25.0704C44.8974 25.0093 44.6505 24.7852 44.2389 24.7852C43.7451 24.7852 43.3953 25.1111 43.3953 25.5389C43.3953 25.7019 43.4365 25.9259 43.8069 26.15C43.9303 26.2315 44.0538 26.2722 44.1978 26.3333C44.527 26.4759 44.8562 26.6185 44.8357 26.9852C44.8357 27.3111 44.527 27.5148 44.2595 27.5148C44.0538 27.5148 43.7657 27.4741 43.4776 27.1074V27.0871L43.2719 27.2704H43.2924C43.5394 27.5963 43.8686 27.7593 44.2595 27.7593C44.4859 27.7593 44.7122 27.6778 44.8562 27.5352C45.0208 27.3926 45.1031 27.1889 45.1031 26.9852C45.1031 26.7 44.9591 26.4759 44.6711 26.2722Z" fill="white"/>
</g>
</g>
<defs>
<filter id="filter0_d_2757_58733" x="0" y="0" width="70" height="53" filterUnits="userSpaceOnUse" color-interpolation-filters="sRGB">
<feFlood flood-opacity="0" result="BackgroundImageFix"/>
<feColorMatrix in="SourceAlpha" type="matrix" values="0 0 0 0 0 0 0 0 0 0 0 0 0 0 0 0 0 0 127 0" result="hardAlpha"/>
<feOffset dy="2"/>
<feGaussianBlur stdDeviation="5"/>
<feComposite in2="hardAlpha" operator="out"/>
<feColorMatrix type="matrix" values="0 0 0 0 0 0 0 0 0 0 0 0 0 0 0 0 0 0 0.4 0"/>
<feBlend mode="normal" in2="BackgroundImageFix" result="effect1_dropShadow_2757_58733"/>
<feBlend mode="normal" in="SourceGraphic" in2="effect1_dropShadow_2757_58733" result="shape"/>
</filter>
<clipPath id="clip0_2757_58733">
<rect x="10" y="8" width="50" height="33" rx="1.5" fill="white"/>
</clipPath>
</defs>
</svg>
