<svg width="20" height="20" viewBox="0 0 20 20" fill="none" xmlns="http://www.w3.org/2000/svg">
<path opacity="0.5" fill-rule="evenodd" clip-rule="evenodd" d="M10 20C12.6522 20 15.1957 18.9464 17.0711 17.0711C18.9464 15.1957 20 12.6522 20 10C20 7.34784 18.9464 4.8043 17.0711 2.92893C15.1957 1.05357 12.6522 0 10 0C7.34784 0 4.8043 1.05357 2.92893 2.92893C1.05357 4.8043 0 7.34784 0 10C0 12.6522 1.05357 15.1957 2.92893 17.0711C4.8043 18.9464 7.34784 20 10 20ZM11.25 5.05833C11.25 5.775 10.6917 6.34167 10 6.34167C9.325 6.34167 8.75 5.76667 8.75 5.05833C8.75 4.34167 9.325 3.75 10 3.75C10.6917 3.75 11.25 4.34167 11.25 5.05833ZM11.0417 7.61667V16.25H8.95833V7.61667H11.0417Z" fill="white"/>
</svg>
