<svg width="309" height="55" viewBox="0 0 309 55" fill="none" xmlns="http://www.w3.org/2000/svg">
<g filter="url(#filter0_d_2757_57430)">
<path d="M124.829 20.4751C125.991 21.799 127.734 22.8076 129.653 22.8076C131.396 22.8076 132.617 21.6729 132.617 20.16C132.617 17.3863 128.839 17.0711 126.107 15.3691C124.538 14.4235 123.259 12.9106 123.201 10.5152C123.201 6.73293 126.514 4.52661 129.943 4.52661C131.977 4.52661 133.895 5.03091 135.813 6.54382L133.779 9.56963C132.965 8.75013 131.629 8.18279 130.292 8.18279C128.839 8.18279 127.154 8.87621 127.154 10.5152C127.154 13.9822 136.51 12.9106 136.51 20.0969C136.51 23.8792 133.314 26.5267 129.653 26.4637C126.921 26.4637 124.422 25.266 122.271 23.3119L124.829 20.4751ZM7.77771 15.4952C7.77771 19.6557 10.6837 22.8076 14.5195 22.8076C17.0767 22.8076 18.9365 21.4837 20.0988 19.8448L22.7142 22.4293C20.9706 24.8248 18.0647 26.5267 14.4613 26.4637C8.30078 26.4637 4 21.6098 4 15.4952C4 9.38051 8.24266 4.52661 14.4033 4.52661C17.3091 4.52661 19.8083 5.72433 21.6099 7.55242L19.1689 10.3891C18.0066 9.12836 16.3211 8.18279 14.3451 8.18279C10.6255 8.18279 7.77771 11.4607 7.77771 15.4952ZM31.432 17.8906H36.4302L33.9311 11.3977L31.432 17.8906ZM24.2253 26.4637L32.5943 4.52661H35.2678L43.6951 26.4637H39.743L37.8832 21.6098H30.0372L28.1774 26.4637H24.2253ZM51.9479 8.30887V12.8476H57.9341V16.6298H51.9479V22.7445H60.1426V26.4637H48.1702V4.52661H59.852V8.30887H51.9479ZM67.1751 20.4751C68.3371 21.799 70.0808 22.8076 71.9986 22.8076C73.7424 22.8076 74.9631 21.6729 74.9631 20.16C74.9631 17.3863 71.1852 17.0711 68.4534 15.3691C66.8842 14.4235 65.6059 12.9106 65.5477 10.5152C65.5477 6.73293 68.8601 4.52661 72.2895 4.52661C74.3236 4.52661 76.2414 5.03091 78.1591 6.54382L76.125 9.56963C75.3116 8.75013 73.9751 8.18279 72.638 8.18279C71.1852 8.18279 69.4996 8.87621 69.4996 10.5152C69.4996 13.9822 78.8568 12.9106 78.8568 20.0969C78.8568 23.8792 75.6601 26.5267 71.9986 26.4637C69.2674 26.4637 66.7678 25.266 64.6179 23.3119L67.1751 20.4751ZM87.5745 17.8906H92.5731L90.0735 11.3977L87.5745 17.8906ZM80.3678 26.4637L88.737 4.52661H91.4105L99.8373 26.4637H95.8855L94.0259 21.6098H86.1798L84.3202 26.4637H80.3678ZM111.403 12.9736C112.508 12.9736 113.031 12.7215 113.379 12.3433C113.728 11.965 113.96 11.3346 113.96 10.7043C113.96 10.0739 113.728 9.44355 113.379 9.00229C113.031 8.62406 112.566 8.30887 111.403 8.30887H108.207V12.9736H111.403ZM108.207 16.7559V26.4637H104.313V4.52661H111.636C113.728 4.52661 115.007 5.15699 116.053 6.16559C116.607 6.74505 117.048 7.44043 117.347 8.2097C117.647 8.97897 117.799 9.80615 117.796 10.6413C117.799 11.4764 117.647 12.3035 117.347 13.0728C117.048 13.8421 116.607 14.5375 116.053 15.1169C115.478 15.7232 114.782 16.1764 114.019 16.4407L121.516 26.4637H116.75L109.602 16.7559H108.207Z" fill="#F3F3F3"/>
<path d="M158.867 25.9221L151.205 15.1732H147.911V25.9221H146.163V4.91929H152.952C154.767 4.91929 155.91 5.4143 156.784 6.26293C157.282 6.7495 157.677 7.34105 157.943 7.99896C158.21 8.65694 158.341 9.36656 158.33 10.0816C158.332 10.7848 158.196 11.4808 157.93 12.1259C157.664 12.771 157.273 13.351 156.784 13.8296C155.977 14.6075 154.902 15.1025 153.288 15.1732L160.884 25.9221H158.867ZM152.885 13.476C154.297 13.476 155.036 13.1224 155.641 12.5567C155.961 12.2383 156.215 11.8545 156.388 11.4288C156.562 11.0032 156.651 10.5447 156.649 10.0816C156.649 9.09159 156.246 8.17223 155.641 7.53577C155.103 6.97004 154.297 6.61649 152.885 6.61649H147.911V13.476H152.885ZM169.555 6.61649V13.476H176.815V15.1732H169.555V24.2249H179.1V25.9221H167.808V4.91929H178.831V6.61649H169.555ZM197.854 4.91929L203.164 22.3155L208.542 4.91929H210.289L203.702 25.9221H202.559L197.249 8.66724L192.006 25.9221H190.863L184.276 4.91929H186.024L191.401 22.3155L196.711 4.91929H197.854ZM218.691 17.8604H226.893L222.792 7.74795L218.691 17.8604ZM223.397 4.91929L231.934 25.9221H230.186L227.631 19.6283H218.02L215.398 25.9221H213.718L222.254 4.91929H223.397ZM244.638 13.476C246.05 13.476 246.789 13.1224 247.394 12.5567C248.066 11.9203 248.47 11.0009 248.47 10.0816C248.47 9.09159 248.066 8.17223 247.394 7.53577C246.856 6.97004 246.05 6.61649 244.638 6.61649H239.664V13.476H244.638ZM250.688 25.9221L243.025 15.1732H239.664V25.9221H237.983V4.91929H244.773C246.587 4.91929 247.73 5.4143 248.604 6.26293C249.102 6.7495 249.497 7.34105 249.763 7.99896C250.03 8.65694 250.162 9.36656 250.15 10.0816C250.152 10.7848 250.016 11.4808 249.75 12.1259C249.484 12.771 249.094 13.351 248.604 13.8296C247.797 14.6075 246.721 15.1025 245.041 15.1732L252.704 25.9221H250.688ZM271.256 8.38441C269.845 7.18222 267.963 6.61649 265.207 6.61649H261.308V24.2249H265.207C267.963 24.2249 269.845 23.6592 271.256 22.457C273.206 20.8305 274.348 18.2847 274.348 15.456C274.348 12.6274 273.206 10.0816 271.256 8.38441ZM272.13 23.942C270.517 25.2149 268.433 25.9221 265.274 25.9221H259.628V4.91929H265.274C268.433 4.91929 270.517 5.62647 272.13 6.89939C274.55 8.80869 276.096 11.9203 276.096 15.456C276.096 18.9211 274.617 22.0327 272.13 23.942ZM282.482 21.1134C283.625 22.7398 285.17 24.1542 287.725 24.1542C289.674 24.1542 291.758 22.6692 291.691 20.1941C291.691 16.3047 287.523 15.8804 284.7 13.971C283.288 12.981 282.078 11.7788 282.078 9.5866C282.078 6.26293 284.498 4 287.59 4C290.078 4 291.691 5.27285 292.565 6.12148L291.556 7.46512C290.413 6.33365 289.271 5.6972 287.658 5.76792C285.507 5.76792 283.759 7.25294 283.759 9.51587C283.759 12.7688 287.658 13.1931 290.413 15.0317C292.027 16.1632 293.371 17.719 293.371 20.1941C293.371 23.5885 290.884 25.9221 287.725 25.9221C285.17 25.9221 282.952 24.7199 281.272 22.3155L282.482 21.1134ZM303.387 18.8504C304.039 19.5623 304.404 20.513 304.404 21.5023C304.404 22.4916 304.039 23.4424 303.387 24.1542C302.042 25.5685 299.757 25.6392 298.345 24.2249V24.1542C298.014 23.8061 297.751 23.3927 297.572 22.9377C297.392 22.4827 297.3 21.9949 297.3 21.5023C297.3 21.0097 297.392 20.5219 297.572 20.0669C297.751 19.612 298.014 19.1985 298.345 18.8504C299.69 17.4361 301.975 17.3654 303.387 18.8504ZM303.79 18.4261C303.01 17.6186 301.96 17.1659 300.866 17.1659C299.772 17.1659 298.722 17.6186 297.942 18.4261C297.552 18.8337 297.242 19.3185 297.031 19.8525C296.819 20.3865 296.71 20.9592 296.71 21.5377C296.71 22.1162 296.819 22.6889 297.031 23.2229C297.242 23.7569 297.552 24.2416 297.942 24.6492C298.324 25.0576 298.779 25.382 299.281 25.6034C299.783 25.8248 300.322 25.9388 300.866 25.9388C301.41 25.9388 301.949 25.8248 302.451 25.6034C302.953 25.382 303.409 25.0576 303.79 24.6492C304.176 24.2398 304.482 23.7542 304.69 23.2203C304.897 22.6863 305.003 22.1145 305 21.5377C305 20.3355 304.597 19.2748 303.79 18.4261ZM299.219 23.8713H299.958V21.962H300.631C300.9 21.962 301.236 22.0327 301.505 22.1741C301.773 22.3155 301.908 22.7398 301.908 23.2349V23.8713H302.647V23.8006C302.58 23.7299 302.58 23.6592 302.58 23.5177V22.8105C302.58 22.5277 302.513 22.3155 302.311 22.1034C302.11 21.8205 301.841 21.6791 301.572 21.6084C301.773 21.6084 302.042 21.5377 302.177 21.3963C302.32 21.2941 302.437 21.1571 302.519 20.9971C302.6 20.8371 302.645 20.6587 302.647 20.4769C302.668 20.2279 302.614 19.9782 302.494 19.7628C302.373 19.5473 302.192 19.3768 301.975 19.2748C301.589 19.1215 301.178 19.0494 300.765 19.0626H299.152L299.219 23.8713ZM301.505 21.3255C301.262 21.3817 301.013 21.4054 300.765 21.3963H300.026V19.6991H300.698C301.034 19.6991 301.37 19.7698 301.706 19.8405C302.042 20.1233 302.11 20.6891 301.773 21.0426C301.694 21.1466 301.603 21.2414 301.505 21.3255Z" fill="white"/>
<path d="M77.1872 37.5513H69.3332V41.4673H75.2072V43.8653H69.3332V47.9793H77.1872V50.4653H66.3632V35.0653H77.1872V37.5513ZM82.718 50.4653H79.748V35.0653H83.136L88.042 46.5933L92.948 35.0653H96.336V50.4653H93.366V40.5213L89.208 50.4653H86.876L82.718 40.5213V50.4653ZM105.568 42.1053C106.155 42.1053 106.639 42.0173 107.02 41.8413C107.402 41.6507 107.68 41.3867 107.856 41.0493C108.047 40.6973 108.142 40.2867 108.142 39.8173C108.142 39.0987 107.93 38.5413 107.504 38.1453C107.094 37.7493 106.448 37.5513 105.568 37.5513H102.29V42.1053H105.568ZM111.178 39.8173C111.178 40.3893 111.076 40.9613 110.87 41.5333C110.665 42.0907 110.342 42.604 109.902 43.0733C109.462 43.528 108.89 43.8947 108.186 44.1733C107.497 44.452 106.654 44.5913 105.656 44.5913H102.29V50.4653H99.3202V35.0653H105.656C106.903 35.0653 107.93 35.2853 108.736 35.7253C109.558 36.1507 110.166 36.73 110.562 37.4633C110.973 38.182 111.178 38.9667 111.178 39.8173ZM113.414 35.0653H116.384V50.4653H113.414V35.0653ZM128.209 39.8173C128.209 39.128 127.996 38.578 127.571 38.1673C127.16 37.7567 126.515 37.5513 125.635 37.5513H122.357V42.1053H125.635C126.221 42.1053 126.705 42.0173 127.087 41.8413C127.468 41.6507 127.747 41.3867 127.923 41.0493C128.113 40.6973 128.209 40.2867 128.209 39.8173ZM125.723 35.0653C126.969 35.0653 127.996 35.2853 128.803 35.7253C129.624 36.1507 130.233 36.73 130.629 37.4633C131.039 38.182 131.245 38.9667 131.245 39.8173C131.245 40.3893 131.142 40.9613 130.937 41.5333C130.731 42.0907 130.409 42.604 129.969 43.0733C129.529 43.528 128.957 43.8947 128.253 44.1733C127.563 44.452 126.72 44.5913 125.723 44.5913H122.357V50.4653H119.387V35.0653H125.723ZM127.395 43.6013L131.553 50.4653H128.231L124.249 43.6013H127.395ZM144.648 37.5513H136.794V41.4673H142.668V43.8653H136.794V47.9793H144.648V50.4653H133.824V35.0653H144.648V37.5513ZM162.461 39.5093C162.461 38.864 162.256 38.38 161.845 38.0573C161.434 37.72 160.855 37.5513 160.107 37.5513H156.345V41.4453H160.085C160.833 41.4453 161.412 41.284 161.823 40.9613C162.248 40.624 162.461 40.14 162.461 39.5093ZM153.375 50.4653V35.0653H160.525C161.596 35.0653 162.498 35.2487 163.231 35.6153C163.964 35.9673 164.514 36.4513 164.881 37.0673C165.262 37.6687 165.453 38.3507 165.453 39.1133C165.453 39.788 165.328 40.36 165.079 40.8293C164.83 41.2987 164.485 41.6727 164.045 41.9513C163.62 42.2153 163.128 42.3987 162.571 42.5013V42.6773C163.246 42.7653 163.825 42.956 164.309 43.2493C164.793 43.528 165.167 43.924 165.431 44.4373C165.695 44.9507 165.827 45.574 165.827 46.3073C165.827 47.114 165.629 47.8327 165.233 48.4633C164.837 49.0793 164.258 49.5707 163.495 49.9373C162.747 50.2893 161.845 50.4653 160.789 50.4653H153.375ZM156.345 47.9793H160.393C161.17 47.9793 161.772 47.8107 162.197 47.4733C162.637 47.1213 162.857 46.6153 162.857 45.9553C162.857 45.266 162.622 44.7453 162.153 44.3933C161.698 44.0413 161.09 43.8653 160.327 43.8653H156.345V47.9793ZM168.219 35.0653H171.189V44.7893C171.189 45.508 171.335 46.1167 171.629 46.6153C171.922 47.0993 172.318 47.466 172.817 47.7153C173.33 47.9647 173.917 48.0893 174.577 48.0893C175.251 48.0893 175.845 47.9647 176.359 47.7153C176.872 47.466 177.275 47.0993 177.569 46.6153C177.862 46.1167 178.009 45.508 178.009 44.7893V35.0653H180.979V44.6353C180.979 45.6473 180.803 46.5273 180.451 47.2753C180.099 48.0233 179.615 48.6467 178.999 49.1453C178.397 49.644 177.708 50.018 176.931 50.2673C176.168 50.502 175.369 50.6193 174.533 50.6193C173.418 50.6193 172.377 50.3993 171.409 49.9593C170.455 49.5193 169.685 48.8593 169.099 47.9793C168.512 47.0993 168.219 45.9847 168.219 44.6353V35.0653ZM183.904 35.0653H186.874V50.4653H183.904V35.0653ZM192.847 35.0653V47.9793H199.711V50.4653H189.877V35.0653H192.847ZM207.435 35.0653C209.078 35.0653 210.501 35.388 211.703 36.0333C212.921 36.664 213.867 37.5587 214.541 38.7173C215.216 39.876 215.553 41.24 215.553 42.8093C215.553 44.364 215.216 45.7133 214.541 46.8573C213.867 48.0013 212.921 48.8887 211.703 49.5193C210.501 50.15 209.078 50.4653 207.435 50.4653H201.693V35.0653H207.435ZM207.347 47.9793C209.005 47.9793 210.281 47.5247 211.175 46.6153C212.07 45.6913 212.517 44.4227 212.517 42.8093C212.517 41.1813 212.07 39.898 211.175 38.9593C210.281 38.0207 209.005 37.5513 207.347 37.5513H204.663V47.9793H207.347ZM228.631 37.5513H220.777V41.4673H226.651V43.8653H220.777V47.9793H228.631V50.4653H217.807V35.0653H228.631V37.5513ZM240.013 39.8173C240.013 39.128 239.801 38.578 239.375 38.1673C238.965 37.7567 238.319 37.5513 237.439 37.5513H234.161V42.1053H237.439C238.026 42.1053 238.51 42.0173 238.891 41.8413C239.273 41.6507 239.551 41.3867 239.727 41.0493C239.918 40.6973 240.013 40.2867 240.013 39.8173ZM237.527 35.0653C238.774 35.0653 239.801 35.2853 240.607 35.7253C241.429 36.1507 242.037 36.73 242.433 37.4633C242.844 38.182 243.049 38.9667 243.049 39.8173C243.049 40.3893 242.947 40.9613 242.741 41.5333C242.536 42.0907 242.213 42.604 241.773 43.0733C241.333 43.528 240.761 43.8947 240.057 44.1733C239.368 44.452 238.525 44.5913 237.527 44.5913H234.161V50.4653H231.191V35.0653H237.527ZM239.199 43.6013L243.357 50.4653H240.035L236.053 43.6013H239.199Z" fill="white"/>
</g>
<defs>
<filter id="filter0_d_2757_57430" x="0" y="0" width="309" height="55" filterUnits="userSpaceOnUse" color-interpolation-filters="sRGB">
<feFlood flood-opacity="0" result="BackgroundImageFix"/>
<feColorMatrix in="SourceAlpha" type="matrix" values="0 0 0 0 0 0 0 0 0 0 0 0 0 0 0 0 0 0 127 0" result="hardAlpha"/>
<feOffset/>
<feGaussianBlur stdDeviation="2"/>
<feComposite in2="hardAlpha" operator="out"/>
<feColorMatrix type="matrix" values="0 0 0 0 0 0 0 0 0 0 0 0 0 0 0 0 0 0 0.8 0"/>
<feBlend mode="normal" in2="BackgroundImageFix" result="effect1_dropShadow_2757_57430"/>
<feBlend mode="normal" in="SourceGraphic" in2="effect1_dropShadow_2757_57430" result="shape"/>
</filter>
</defs>
</svg>
