<svg width="124" height="124" viewBox="0 0 124 124" fill="none" xmlns="http://www.w3.org/2000/svg">
<g clip-path="url(#clip0_3082_38407)">
<rect width="124" height="124" rx="8" fill="#030407" fill-opacity="0.8"/>
<path fill-rule="evenodd" clip-rule="evenodd" d="M20.2344 45.0981C20.6719 41.7287 20.4531 38.8221 20.2865 36.0298C19.7552 28.4746 19.3177 22.3182 32.4479 13.0107C37.9271 23.7637 33.5885 28.5318 28.1094 34.5167C25.4531 37.4805 22.4688 40.6835 20.2448 45.0981H20.2344ZM32.2292 44.5781C36.4583 44.4585 40.7448 44.3441 45.0312 40.2728C31.7396 31.8493 26.2031 37.4233 19.9115 48.8211C23.9219 44.8069 28.0469 44.6925 32.2292 44.5781ZM36.2917 85.8481C36.0833 102.243 43.349 104.567 55.8229 104.567C50.5625 102.882 48.3958 99.1594 46.224 95.3844C44.0521 91.547 41.7708 87.7096 36.2917 85.8481ZM25.0677 58.4717C28.6458 56.1423 32.3333 53.7608 34.0729 47.9475C18.5521 47.7135 16.4375 55.4455 16.3854 68.6423C17.9583 63.0631 21.4844 60.7908 25.0677 58.4665V58.4717ZM14.9219 65.9697C13.724 62.8291 12.151 60.3852 10.6875 58.1181C6.67708 51.9045 3.36458 46.7828 10.3125 31.7297C20.1354 38.1773 18.6146 44.5729 16.7188 52.6585C15.7917 56.6102 14.7552 60.9676 14.9219 65.9697ZM15.4062 74.3932C13.2396 66.4377 11.5 60.042 0 59.6312C1.08333 76.3171 6.34896 78.9897 12.75 82.3019C15.0833 83.5239 17.6302 84.803 20.1302 86.8361C17.6302 82.6503 16.4375 78.2878 15.4062 74.3932ZM4.22917 89.3423C14.4323 83.5863 18.8802 88.1776 24.5781 93.9337C27.3437 96.7831 30.4375 99.9237 34.5573 102.191C31.4115 101.723 28.5937 101.957 25.9896 102.134C18.8802 102.711 13.0208 103.174 4.22917 89.3423ZM28.2656 60.3956C14.7552 68.3563 16.4948 76.2027 22.6771 87.6576C21.375 81.9588 23.3854 78.1214 25.3906 74.284C27.3958 70.3894 29.4583 66.3805 28.2656 60.3956ZM29.0781 74.284C32.9323 78.8181 33.0365 83.3575 33.151 87.772C33.2552 92.1918 33.3646 96.5491 37.1094 100.792C26.3646 94.1677 21.1042 88.2972 29.0781 74.284ZM41.7188 105.966C34.0729 103.938 28.0469 102.362 21.9167 112.71C36.0833 120.093 40.9062 116.61 46.8229 112.361C48.9896 110.791 51.2708 109.164 54.2552 107.827C49.5885 108.004 45.4635 106.897 41.7188 105.966ZM69.1146 104.572C81.599 104.515 88.8698 102.248 88.6458 85.8533C83.1719 87.7148 80.9479 91.6094 78.724 95.3896C76.5521 99.1646 74.375 102.888 69.1146 104.572ZM92.776 44.5833C88.5417 44.4637 84.2552 44.3493 79.9688 40.278C93.2604 31.8545 98.7969 37.4285 105.089 48.8263C101.078 44.8121 96.9531 44.6977 92.776 44.5833ZM104.708 45.1033C104.276 41.7339 104.495 38.8273 104.708 36.035C105.25 28.4798 105.687 22.3182 92.5573 13.0159C87.0781 23.7689 91.4167 28.537 96.8958 34.5219C99.5521 37.4857 102.542 40.6887 104.708 45.1033ZM99.9375 58.4769C96.3542 56.1474 92.6667 53.766 90.875 47.9527C106.396 47.7187 108.505 55.4507 108.615 68.6475C107.042 63.0682 103.516 60.796 99.9375 58.4717V58.4769ZM110.078 65.9749C111.276 62.8343 112.849 60.3904 114.312 58.1233C118.323 51.9045 121.635 46.788 114.693 31.7349C104.87 38.1825 106.391 44.5781 108.286 52.6637C109.214 56.6154 110.245 60.9728 110.078 65.9749ZM109.594 74.3984C111.76 66.4429 113.448 60.0472 125 59.6364C123.917 76.3223 118.651 78.9949 112.25 82.3071C109.917 83.5291 107.37 84.8082 104.818 86.8413C107.318 82.6555 108.505 78.2982 109.594 74.4036V74.3984ZM120.714 89.3423C110.516 83.5863 106.068 88.1776 100.422 93.8765C97.6562 96.7259 94.5625 99.8665 90.4427 102.191C93.5885 101.723 96.4062 101.957 99.0104 102.134C106.12 102.711 111.979 103.174 120.714 89.3423ZM96.7344 60.3956C110.245 68.3563 108.505 76.2027 102.323 87.6576C103.625 81.9588 101.615 78.1214 99.6094 74.284C97.6042 70.3894 95.5417 66.3805 96.7344 60.3956ZM95.9219 74.284C92.0677 78.8181 91.9635 83.3575 91.849 87.772C91.7448 92.1918 91.6354 96.5491 87.8906 100.792C98.6354 94.1677 103.896 88.2972 95.9219 74.284ZM83.2812 105.966C90.875 103.938 96.9531 102.362 103.026 112.71C88.8698 120.093 84.0365 116.61 78.125 112.361C75.9531 110.791 73.6771 109.164 70.7448 107.827C75.4115 108.004 79.5365 106.897 83.2812 105.966Z" fill="url(#paint0_linear_3082_38407)"/>
<rect x="-10.5867" y="69.3462" width="137.473" height="37" transform="rotate(-6 -10.5867 69.3462)" fill="url(#paint1_linear_3082_38407)"/>
<path d="M50.5747 48.6577V27.6577L45.8547 28.7777L44.3747 22.7777L52.5747 20.4577H58.2147V48.6577H50.5747ZM65.9697 40.2577C63.6897 40.2577 62.1777 38.2657 62.1777 36.0097V35.9617C62.1777 33.6817 63.7137 31.6657 66.0177 31.6657C68.2737 31.6657 69.7857 33.6577 69.7857 35.9137V35.9617C69.7857 38.2417 68.2497 40.2577 65.9697 40.2577ZM65.9697 33.0097C64.6497 33.0097 63.7857 34.3297 63.7857 35.9137V35.9617C63.7857 37.6417 64.7697 38.9137 66.0177 38.9137C67.3137 38.9137 68.2017 37.6177 68.2017 36.0097V35.9617C68.2017 34.2817 67.1937 33.0097 65.9697 33.0097ZM70.3857 39.8977L76.2417 31.8577H77.9457L71.4657 40.6657L65.6337 48.6577H63.9057L70.3857 39.8977ZM75.8577 48.8497C73.6017 48.8497 72.0897 46.8577 72.0897 44.6017V44.5537C72.0897 42.2737 73.6257 40.2577 75.9057 40.2577C78.1857 40.2577 79.6737 42.2497 79.6737 44.5057V44.5537C79.6737 46.8337 78.1617 48.8497 75.8577 48.8497ZM75.9057 47.5057C77.2257 47.5057 78.0897 46.2097 78.0897 44.6017V44.5537C78.0897 42.8737 77.1057 41.6017 75.8577 41.6017C74.5617 41.6017 73.6737 42.9217 73.6737 44.5057V44.5537C73.6737 46.2337 74.6577 47.5057 75.9057 47.5057Z" fill="url(#paint2_linear_3082_38407)"/>
<path d="M9.40754 84.0959L8.5295 75.7419L11.7876 75.3995C12.5195 75.3226 13.1562 75.3723 13.6976 75.5487C14.239 75.725 14.6719 76.0174 14.9964 76.4257C15.3209 76.834 15.5149 77.3405 15.5784 77.9452C15.642 78.5499 15.5575 79.0856 15.325 79.5525C15.0917 80.0114 14.7286 80.3834 14.2357 80.6685C13.7428 80.9535 13.1304 81.1346 12.3984 81.2115L9.79675 81.4849L10.2761 80.8795L10.601 83.9705L9.40754 84.0959ZM14.9928 83.5089L12.5499 80.7009L13.8268 80.5666L16.2936 83.3722L14.9928 83.5089ZM10.2886 80.9989L9.69013 80.4705L12.256 80.2008C13.0198 80.1206 13.5795 79.8968 13.935 79.5297C14.2977 79.1537 14.4477 78.6673 14.385 78.0706C14.3223 77.4739 14.0749 77.0334 13.6428 76.749C13.2186 76.4637 12.6247 76.3613 11.8609 76.4415L9.29501 76.7112L9.76934 76.0581L10.2886 80.9989ZM18.6653 78.3206L22.9617 77.869L23.0683 78.8834L18.7719 79.335L18.6653 78.3206ZM19.1628 82.0208L24.032 81.5091L24.1411 82.5474L18.0785 83.1846L17.2005 74.8306L23.096 74.2109L23.2051 75.2492L18.503 75.7434L19.1628 82.0208ZM27.8784 82.1546L24.2078 74.0941L25.437 73.9649L28.8132 81.4047L28.1926 81.47L30.0436 73.4807L31.1416 73.3653L34.5535 80.8014L33.9568 80.8641L35.7482 72.8811L36.882 72.762L34.9674 81.4095L33.7143 81.5412L30.5283 74.6484L30.8506 74.6146L29.1554 82.0203L27.8784 82.1546ZM37.6868 81.1236L40.5919 72.372L41.7734 72.2479L46.4466 80.203L45.1935 80.3347L41.0083 73.004L41.4856 72.9538L38.916 80.9945L37.6868 81.1236ZM39.0784 78.8658L39.3003 77.8772L44.0024 77.383L44.4488 78.3014L39.0784 78.8658ZM47.6927 80.072L46.8147 71.718L50.0728 71.3756C50.8047 71.2986 51.4414 71.3483 51.9828 71.5247C52.5242 71.7011 52.9572 71.9934 53.2816 72.4018C53.6061 72.8101 53.8001 73.3166 53.8636 73.9213C53.9272 74.5259 53.8427 75.0617 53.6102 75.5285C53.3769 75.9874 53.0138 76.3594 52.5209 76.6445C52.028 76.9296 51.4156 77.1106 50.6836 77.1875L48.082 77.461L48.5613 76.8556L48.8862 79.9465L47.6927 80.072ZM53.278 79.485L50.8351 76.6769L52.112 76.5427L54.5788 79.3482L53.278 79.485ZM48.5738 76.9749L47.9753 76.4466L50.5412 76.1769C51.305 76.0966 51.8647 75.8729 52.2202 75.5057C52.5829 75.1297 52.7329 74.6434 52.6702 74.0467C52.6075 73.45 52.3601 73.0094 51.928 72.725C51.5038 72.4398 50.9099 72.3373 50.1461 72.4176L47.5802 72.6873L48.0545 72.0341L48.5738 76.9749ZM56.3637 79.1606L55.4857 70.8066L59.0063 70.4366C59.8974 70.343 60.6995 70.4356 61.4125 70.7146C62.1336 70.9928 62.7141 71.4265 63.1541 72.0157C63.602 72.6041 63.8695 73.312 63.9565 74.1395C64.0434 74.9669 63.929 75.715 63.6132 76.3836C63.3053 77.0515 62.8276 77.5964 62.1802 78.0184C61.5407 78.4395 60.7754 78.6969 59.8843 78.7906L56.3637 79.1606ZM57.448 77.9969L59.7036 77.7598C60.3958 77.6871 60.9787 77.4931 61.4524 77.1779C61.934 76.8618 62.2893 76.4544 62.5184 75.9557C62.7467 75.4491 62.8283 74.8855 62.763 74.2649C62.697 73.6364 62.5001 73.102 62.1723 72.6619C61.8444 72.2217 61.4122 71.8971 60.8754 71.6881C60.3465 71.4782 59.736 71.4097 59.0438 71.4824L56.7883 71.7195L57.448 77.9969ZM73.174 77.4903C72.5375 77.5572 71.9378 77.5157 71.3751 77.3657C70.8194 77.2069 70.3226 76.9575 69.8847 76.6174C69.4539 76.2685 69.0999 75.8472 68.8227 75.3534C68.5456 74.8597 68.3744 74.3026 68.3092 73.682C68.244 73.0614 68.2956 72.4808 68.464 71.9402C68.6324 71.3997 68.8955 70.9175 69.2531 70.4938C69.61 70.0622 70.0441 69.7149 70.5554 69.452C71.0738 69.1803 71.6513 69.011 72.2878 68.9441C72.9322 68.8764 73.5367 68.9255 74.1011 69.0914C74.6727 69.2485 75.172 69.5218 75.599 69.9113L74.9023 70.7447C74.5489 70.444 74.165 70.235 73.7505 70.1177C73.3351 69.9924 72.9007 69.9536 72.4471 70.0013C71.9777 70.0506 71.5485 70.1762 71.1595 70.3779C70.7784 70.5789 70.4557 70.838 70.1914 71.1554C69.9272 71.4727 69.7324 71.8391 69.6071 72.2545C69.489 72.6611 69.4541 73.0951 69.5026 73.5565C69.5511 74.018 69.6759 74.4393 69.8768 74.8203C70.0849 75.1926 70.3511 75.5065 70.6756 75.762C71.0001 76.0175 71.3696 76.2039 71.7841 76.3212C72.2066 76.4377 72.6526 76.4712 73.122 76.4219C73.5755 76.3742 73.9928 76.2499 74.3739 76.049C74.7541 75.8401 75.0854 75.5479 75.3677 75.1723L76.2224 75.8427C75.8857 76.3124 75.4545 76.6875 74.929 76.968C74.4114 77.2477 73.8264 77.4218 73.174 77.4903ZM78.0529 76.881L77.1748 68.527L80.4329 68.1846C81.1648 68.1077 81.8015 68.1574 82.3429 68.3337C82.8843 68.5101 83.3173 68.8025 83.6417 69.2108C83.9662 69.6191 84.1602 70.1256 84.2237 70.7303C84.2873 71.3349 84.2028 71.8707 83.9704 72.3376C83.737 72.7965 83.3739 73.1685 82.881 73.4535C82.3881 73.7386 81.7757 73.9196 81.0437 73.9966L78.4421 74.27L78.9214 73.6646L79.2463 76.7556L78.0529 76.881ZM83.6381 76.294L81.1952 73.4859L82.4722 73.3517L84.9389 76.1573L83.6381 76.294ZM78.934 73.7839L78.3355 73.2556L80.9013 72.9859C81.6651 72.9056 82.2248 72.6819 82.5804 72.3147C82.943 71.9388 83.093 71.4524 83.0303 70.8557C82.9676 70.259 82.7202 69.8184 82.2881 69.5341C81.864 69.2488 81.27 69.1464 80.5062 69.2266L77.9403 69.4963L78.4147 68.8432L78.934 73.7839ZM87.3106 71.1057L91.607 70.6541L91.7136 71.6685L87.4173 72.1201L87.3106 71.1057ZM87.8081 74.8059L92.6773 74.2942L92.7865 75.3324L86.7238 75.9696L85.8458 67.6157L91.7413 66.996L91.8505 68.0343L87.1484 68.5285L87.8081 74.8059ZM94.7189 75.1293L93.8408 66.7754L97.3614 66.4053C98.2525 66.3117 99.0546 66.4043 99.7677 66.6833C100.489 66.9615 101.069 67.3952 101.509 67.9844C101.957 68.5728 102.225 69.2807 102.312 70.1082C102.399 70.9356 102.284 71.6837 101.968 72.3524C101.66 73.0202 101.183 73.5651 100.535 73.9871C99.8959 74.4082 99.1306 74.6656 98.2395 74.7593L94.7189 75.1293ZM95.8032 73.9656L98.0587 73.7286C98.7509 73.6558 99.3338 73.4618 99.8075 73.1466C100.289 72.8305 100.644 72.4231 100.874 71.9244C101.102 71.4178 101.183 70.8542 101.118 70.2336C101.052 69.6051 100.855 69.0707 100.527 68.6306C100.2 68.1904 99.7673 67.8658 99.2305 67.6568C98.7017 67.4469 98.0912 67.3784 97.399 67.4511L95.1434 67.6882L95.8032 73.9656ZM104.579 74.093L103.701 65.7391L104.894 65.6136L105.772 73.9676L104.579 74.093ZM109.932 73.5304L109.163 66.2147L106.299 66.5157L106.19 65.4774L113.1 64.7512L113.209 65.7894L110.345 66.0905L111.113 73.4062L109.932 73.5304Z" fill="#242423"/>
<path d="M33.6725 96.797L32.6625 85.252L38.8308 84.7123C40.4251 84.5728 41.6266 84.7558 42.4353 85.2611C43.243 85.7555 43.6854 86.4425 43.7623 87.3221C43.8133 87.9049 43.6941 88.4416 43.4046 88.9322C43.1252 89.4109 42.6892 89.8092 42.0965 90.1269C41.5039 90.4447 40.7567 90.643 39.8551 90.7219L40.1071 89.8024C41.0087 89.7235 41.7949 89.7822 42.4657 89.9783C43.1476 90.1735 43.6856 90.4976 44.0798 90.9506C44.484 91.3916 44.7154 91.9475 44.7741 92.6182C44.8616 93.6188 44.5121 94.436 43.7255 95.0699C42.95 95.7028 41.765 96.089 40.1707 96.2284L33.6725 96.797ZM37.2608 93.7409L39.6028 93.536C40.0316 93.4985 40.3437 93.3936 40.5391 93.2214C40.7456 93.0482 40.8358 92.8132 40.8098 92.5163C40.7839 92.2194 40.6542 92.0037 40.4208 91.869C40.1984 91.7333 39.8728 91.6842 39.444 91.7218L36.8382 91.9497L36.6131 89.3769L38.6912 89.195C39.131 89.1566 39.4436 89.0572 39.629 88.897C39.8244 88.7247 39.9101 88.5012 39.8861 88.2263C39.8611 87.9404 39.7379 87.7352 39.5164 87.6105C39.306 87.4849 38.9809 87.4413 38.5411 87.4798L36.7269 87.6385L37.2608 93.7409ZM52.5047 95.4153C51.5701 95.497 50.6885 95.4246 49.8598 95.1979C49.0422 94.9703 48.3185 94.6126 47.6886 94.1248C47.0577 93.6261 46.5451 93.0228 46.1508 92.3149C45.7675 91.6062 45.5379 90.8175 45.4619 89.9488C45.3849 89.0692 45.4741 88.2526 45.7295 87.499C45.9949 86.7335 46.3954 86.0558 46.931 85.4661C47.4657 84.8653 48.1158 84.3819 48.8815 84.0158C49.6582 83.6487 50.5138 83.4243 51.4484 83.3425C52.394 83.2598 53.2756 83.3322 54.0933 83.5598C54.9109 83.7874 55.6351 84.1506 56.266 84.6494C56.8959 85.1372 57.4025 85.7355 57.7858 86.4442C58.1791 87.1411 58.4143 87.9293 58.4912 88.8089C58.5672 89.6775 58.4725 90.4946 58.2071 91.2602C57.9527 92.0247 57.5582 92.7074 57.0235 93.3081C56.4879 93.8979 55.8373 94.3758 55.0716 94.742C54.3059 95.1081 53.4503 95.3325 52.5047 95.4153ZM52.2291 92.2651C52.5919 92.2334 52.9215 92.1381 53.2178 91.9792C53.5251 91.8194 53.7837 91.6084 53.9934 91.3463C54.2132 91.0722 54.3736 90.7535 54.4748 90.3901C54.575 90.0157 54.6054 89.6031 54.5659 89.1523C54.5265 88.7015 54.4254 88.306 54.2627 87.9657C54.099 87.6144 53.8856 87.3284 53.6226 87.1076C53.3695 86.8749 53.0778 86.7066 52.7474 86.6025C52.428 86.4975 52.0869 86.4609 51.724 86.4926C51.3612 86.5244 51.0261 86.6202 50.7188 86.78C50.4225 86.9389 50.1644 87.1553 49.9447 87.4294C49.7349 87.6915 49.58 88.0097 49.4798 88.3841C49.3786 88.7475 49.3477 89.1546 49.3872 89.6054C49.4266 90.0562 49.5282 90.4573 49.6919 90.8086C49.8546 91.1489 50.0625 91.4354 50.3155 91.6681C50.5786 91.8888 50.8698 92.0517 51.1892 92.1567C51.5196 92.2607 51.8662 92.2969 52.2291 92.2651ZM66.485 94.1921C65.5504 94.2739 64.6687 94.2015 63.8401 93.9748C63.0225 93.7472 62.2987 93.3895 61.6688 92.9017C61.038 92.403 60.5254 91.7997 60.1311 91.0918C59.7478 90.383 59.5182 89.5943 59.4422 88.7257C59.3652 87.8461 59.4544 87.0295 59.7098 86.2759C59.9752 85.5104 60.3757 84.8327 60.9113 84.243C61.446 83.6422 62.0961 83.1588 62.8618 82.7927C63.6385 82.4256 64.4941 82.2011 65.4287 82.1194C66.3743 82.0366 67.2559 82.1091 68.0736 82.3367C68.8912 82.5643 69.6154 82.9275 70.2463 83.4263C70.8761 83.9141 71.3827 84.5123 71.7661 85.2211C72.1594 85.918 72.3946 86.7062 72.4715 87.5858C72.5475 88.4544 72.4528 89.2715 72.1874 90.037C71.933 90.8016 71.5385 91.4843 71.0038 92.085C70.4682 92.6748 69.8175 93.1527 69.0519 93.5189C68.2862 93.885 67.4305 94.1094 66.485 94.1921ZM66.2093 91.042C66.5722 91.0103 66.9018 90.915 67.1981 90.7561C67.5054 90.5962 67.7639 90.3853 67.9737 90.1232C68.1935 89.8491 68.3539 89.5304 68.4551 89.167C68.5553 88.7926 68.5857 88.38 68.5462 87.9292C68.5068 87.4784 68.4057 87.0829 68.243 86.7426C68.0793 86.3913 67.8659 86.1052 67.6028 85.8845C67.3498 85.6518 67.0581 85.4834 66.7277 85.3794C66.4083 85.2744 66.0672 85.2378 65.7043 85.2695C65.3415 85.3013 65.0064 85.397 64.6991 85.5569C64.4028 85.7158 64.1447 85.9322 63.9249 86.2063C63.7152 86.4684 63.5602 86.7866 63.46 87.161C63.3589 87.5244 63.328 87.9315 63.3675 88.3823C63.4069 88.8331 63.5085 89.2342 63.6721 89.5855C63.8349 89.9258 64.0427 90.2123 64.2958 90.4449C64.5588 90.6657 64.8501 90.8285 65.1695 90.9336C65.4999 91.0376 65.8465 91.0738 66.2093 91.042ZM78.717 93.122C77.7494 93.2066 76.8052 93.1784 75.8843 93.0374C74.9635 92.8964 74.1963 92.6755 73.5828 92.3746L74.588 89.4282C75.1657 89.6989 75.7985 89.9039 76.4866 90.0432C77.1846 90.1704 77.8525 90.2062 78.4902 90.1504C78.8641 90.1177 79.1535 90.0702 79.3586 90.0079C79.5737 89.9337 79.7269 89.8483 79.8181 89.7517C79.9084 89.6441 79.9478 89.5243 79.9363 89.3923C79.918 89.1834 79.7881 89.0286 79.5466 88.9279C79.3051 88.8271 78.9886 88.7551 78.597 88.7118C78.2155 88.6565 77.7955 88.6046 77.337 88.5561C76.8775 88.4966 76.4102 88.4101 75.9349 88.2966C75.4706 88.1821 75.035 88.0152 74.6281 87.796C74.2321 87.5758 73.9009 87.2724 73.6344 86.8858C73.3669 86.4882 73.2063 85.9815 73.1524 85.3657C73.0899 84.6511 73.231 83.985 73.5759 83.3676C73.9307 82.7383 74.4886 82.2131 75.2495 81.792C76.0214 81.3699 77.001 81.1069 78.1885 81.003C78.9692 80.9347 79.7461 80.9499 80.5192 81.0484C81.2923 81.147 81.9961 81.3402 82.6307 81.6282L81.7064 84.5509C81.1096 84.315 80.5356 84.1492 79.9844 84.0534C79.4441 83.9566 78.921 83.9304 78.4153 83.9746C78.0414 84.0073 77.7474 84.0663 77.5333 84.1515C77.3192 84.2367 77.1674 84.3386 77.0781 84.4572C76.9998 84.5749 76.9664 84.6997 76.9779 84.8316C76.9952 85.0295 77.1246 85.1789 77.3661 85.2796C77.6066 85.3694 77.9172 85.4364 78.2977 85.4806C78.6893 85.5239 79.1143 85.5698 79.5728 85.6184C80.0423 85.6659 80.5092 85.747 80.9735 85.8614C81.4378 85.9759 81.8679 86.1433 82.2638 86.3635C82.6708 86.5827 83.0075 86.8856 83.274 87.2722C83.5405 87.6588 83.7002 88.1545 83.7531 88.7593C83.8147 89.463 83.668 90.1295 83.3132 90.7588C82.9683 91.3762 82.4159 91.9009 81.656 92.333C80.8951 92.7541 79.9155 93.0171 78.717 93.122ZM87.5747 92.0811L86.8287 83.5543L83.4476 83.8501L83.1836 80.8319L93.838 79.8998L94.102 82.918L90.721 83.2138L91.467 91.7406L87.5747 92.0811Z" fill="#242423"/>
</g>
<rect x="0.5" y="0.5" width="123" height="123" rx="7.5" stroke="url(#paint3_linear_3082_38407)"/>
<defs>
<linearGradient id="paint0_linear_3082_38407" x1="62.5" y1="13.0107" x2="62.5" y2="117.011" gradientUnits="userSpaceOnUse">
<stop stop-color="#3D3D3D"/>
<stop offset="0.620984" stop-color="#2F2F2F"/>
<stop offset="1" stop-color="#272828"/>
</linearGradient>
<linearGradient id="paint1_linear_3082_38407" x1="-4.22218" y1="71.4974" x2="108.887" y2="137.29" gradientUnits="userSpaceOnUse">
<stop stop-color="#A57D24"/>
<stop offset="0.21" stop-color="#D8BD62"/>
<stop offset="0.33" stop-color="#F1DD80"/>
<stop offset="0.52" stop-color="#FBF2A8"/>
<stop offset="0.73" stop-color="#F1DD80"/>
<stop offset="1" stop-color="#A57D24"/>
</linearGradient>
<linearGradient id="paint2_linear_3082_38407" x1="47.9846" y1="49.6577" x2="81.5972" y2="25.6822" gradientUnits="userSpaceOnUse">
<stop stop-color="#B7833F"/>
<stop offset="0.24" stop-color="#E3B45F"/>
<stop offset="0.470096" stop-color="#F5E8BB"/>
<stop offset="0.645094" stop-color="#EEDB9F"/>
<stop offset="0.865" stop-color="#E3B45F"/>
<stop offset="1" stop-color="#D69F63"/>
</linearGradient>
<linearGradient id="paint3_linear_3082_38407" x1="12.5" y1="2.48" x2="101.563" y2="124.683" gradientUnits="userSpaceOnUse">
<stop stop-color="#F8E755"/>
<stop offset="0.1875" stop-color="#AC9D50"/>
<stop offset="0.394231" stop-color="#FEFDE9"/>
<stop offset="0.653846" stop-color="#7C520F"/>
<stop offset="0.826923" stop-color="#CFA32D"/>
<stop offset="1" stop-color="#E3C137"/>
</linearGradient>
<clipPath id="clip0_3082_38407">
<rect width="124" height="124" rx="8" fill="white"/>
</clipPath>
</defs>
</svg>
