<svg width="124" height="124" viewBox="0 0 124 124" fill="none" xmlns="http://www.w3.org/2000/svg">
<g clip-path="url(#clip0_3082_38785)">
<rect width="124" height="124" rx="8" fill="#030407" fill-opacity="0.8"/>
<path fill-rule="evenodd" clip-rule="evenodd" d="M20.2344 45.0981C20.6719 41.7287 20.4531 38.8221 20.2865 36.0298C19.7552 28.4746 19.3177 22.3182 32.4479 13.0107C37.9271 23.7637 33.5885 28.5318 28.1094 34.5167C25.4531 37.4805 22.4688 40.6835 20.2448 45.0981H20.2344ZM32.2292 44.5781C36.4583 44.4585 40.7448 44.3441 45.0312 40.2728C31.7396 31.8493 26.2031 37.4233 19.9115 48.8211C23.9219 44.8069 28.0469 44.6925 32.2292 44.5781ZM36.2917 85.8481C36.0833 102.243 43.349 104.567 55.8229 104.567C50.5625 102.882 48.3958 99.1594 46.224 95.3844C44.0521 91.547 41.7708 87.7096 36.2917 85.8481ZM25.0677 58.4717C28.6458 56.1423 32.3333 53.7608 34.0729 47.9475C18.5521 47.7135 16.4375 55.4455 16.3854 68.6423C17.9583 63.0631 21.4844 60.7908 25.0677 58.4665V58.4717ZM14.9219 65.9697C13.724 62.8291 12.151 60.3852 10.6875 58.1181C6.67708 51.9045 3.36458 46.7828 10.3125 31.7297C20.1354 38.1773 18.6146 44.5729 16.7188 52.6585C15.7917 56.6102 14.7552 60.9676 14.9219 65.9697ZM15.4062 74.3932C13.2396 66.4377 11.5 60.042 0 59.6312C1.08333 76.3171 6.34896 78.9897 12.75 82.3019C15.0833 83.5239 17.6302 84.803 20.1302 86.8361C17.6302 82.6503 16.4375 78.2878 15.4062 74.3932ZM4.22917 89.3423C14.4323 83.5863 18.8802 88.1776 24.5781 93.9337C27.3437 96.7831 30.4375 99.9237 34.5573 102.191C31.4115 101.723 28.5937 101.957 25.9896 102.134C18.8802 102.711 13.0208 103.174 4.22917 89.3423ZM28.2656 60.3956C14.7552 68.3563 16.4948 76.2027 22.6771 87.6576C21.375 81.9588 23.3854 78.1214 25.3906 74.284C27.3958 70.3894 29.4583 66.3805 28.2656 60.3956ZM29.0781 74.284C32.9323 78.8181 33.0365 83.3575 33.151 87.772C33.2552 92.1918 33.3646 96.5491 37.1094 100.792C26.3646 94.1677 21.1042 88.2972 29.0781 74.284ZM41.7188 105.966C34.0729 103.938 28.0469 102.362 21.9167 112.71C36.0833 120.093 40.9062 116.61 46.8229 112.361C48.9896 110.791 51.2708 109.164 54.2552 107.827C49.5885 108.004 45.4635 106.897 41.7188 105.966ZM69.1146 104.572C81.599 104.515 88.8698 102.248 88.6458 85.8533C83.1719 87.7148 80.9479 91.6094 78.724 95.3896C76.5521 99.1646 74.375 102.888 69.1146 104.572ZM92.776 44.5833C88.5417 44.4637 84.2552 44.3493 79.9688 40.278C93.2604 31.8545 98.7969 37.4285 105.089 48.8263C101.078 44.8121 96.9531 44.6977 92.776 44.5833ZM104.708 45.1033C104.276 41.7339 104.495 38.8273 104.708 36.035C105.25 28.4798 105.687 22.3182 92.5573 13.0159C87.0781 23.7689 91.4167 28.537 96.8958 34.5219C99.5521 37.4857 102.542 40.6887 104.708 45.1033ZM99.9375 58.4769C96.3542 56.1474 92.6667 53.766 90.875 47.9527C106.396 47.7187 108.505 55.4507 108.615 68.6475C107.042 63.0682 103.516 60.796 99.9375 58.4717V58.4769ZM110.078 65.9749C111.276 62.8343 112.849 60.3904 114.312 58.1233C118.323 51.9045 121.635 46.788 114.693 31.7349C104.87 38.1825 106.391 44.5781 108.286 52.6637C109.214 56.6154 110.245 60.9728 110.078 65.9749ZM109.594 74.3984C111.76 66.4429 113.448 60.0472 125 59.6364C123.917 76.3223 118.651 78.9949 112.25 82.3071C109.917 83.5291 107.37 84.8082 104.818 86.8413C107.318 82.6555 108.505 78.2982 109.594 74.4036V74.3984ZM120.714 89.3423C110.516 83.5863 106.068 88.1776 100.422 93.8765C97.6562 96.7259 94.5625 99.8665 90.4427 102.191C93.5885 101.723 96.4062 101.957 99.0104 102.134C106.12 102.711 111.979 103.174 120.714 89.3423ZM96.7344 60.3956C110.245 68.3563 108.505 76.2027 102.323 87.6576C103.625 81.9588 101.615 78.1214 99.6094 74.284C97.6042 70.3894 95.5417 66.3805 96.7344 60.3956ZM95.9219 74.284C92.0677 78.8181 91.9635 83.3575 91.849 87.772C91.7448 92.1918 91.6354 96.5491 87.8906 100.792C98.6354 94.1677 103.896 88.2972 95.9219 74.284ZM83.2812 105.966C90.875 103.938 96.9531 102.362 103.026 112.71C88.8698 120.093 84.0365 116.61 78.125 112.361C75.9531 110.791 73.6771 109.164 70.7448 107.827C75.4115 108.004 79.5365 106.897 83.2812 105.966Z" fill="url(#paint0_linear_3082_38785)"/>
<path d="M1 97.0107H124V115.011C124 119.429 120.418 123.011 116 123.011H9C4.58172 123.011 1 119.429 1 115.011V97.0107Z" fill="#030407"/>
<path d="M24.4863 113.418V115.011H18.6211V113.65L21.3145 110.226C21.5742 109.87 21.777 109.556 21.9229 109.282C22.0687 109.009 22.1735 108.765 22.2373 108.551C22.3011 108.332 22.333 108.125 22.333 107.929C22.333 107.637 22.2988 107.386 22.2305 107.177C22.1621 106.963 22.0596 106.799 21.9229 106.685C21.7907 106.566 21.6266 106.507 21.4307 106.507C21.1937 106.507 20.9977 106.58 20.8428 106.726C20.6878 106.871 20.5716 107.072 20.4941 107.327C20.4212 107.578 20.3848 107.863 20.3848 108.182H18.4639C18.4639 107.589 18.5846 107.045 18.8262 106.548C19.0723 106.047 19.4163 105.65 19.8584 105.358C20.305 105.062 20.8405 104.914 21.4648 104.914C22.071 104.914 22.5814 105.028 22.9961 105.256C23.4108 105.484 23.723 105.81 23.9326 106.233C24.1468 106.653 24.2539 107.156 24.2539 107.744C24.2539 108.072 24.2106 108.394 24.124 108.708C24.0374 109.018 23.9144 109.328 23.7549 109.638C23.5954 109.943 23.3971 110.255 23.1602 110.574C22.9277 110.893 22.668 111.224 22.3809 111.565L21.082 113.418H24.4863ZM31.4795 109.159V110.889C31.4795 111.636 31.4089 112.279 31.2676 112.816C31.1263 113.354 30.9281 113.796 30.6729 114.143C30.4176 114.484 30.1146 114.737 29.7637 114.901C29.4128 115.065 29.0254 115.147 28.6016 115.147C28.2643 115.147 27.9476 115.095 27.6514 114.99C27.3551 114.885 27.0863 114.726 26.8447 114.512C26.6077 114.293 26.4027 114.017 26.2295 113.685C26.0609 113.347 25.931 112.949 25.8398 112.488C25.7487 112.023 25.7031 111.49 25.7031 110.889V109.159C25.7031 108.412 25.7738 107.771 25.915 107.238C26.0609 106.701 26.2614 106.261 26.5166 105.919C26.7718 105.577 27.0749 105.326 27.4258 105.167C27.7812 105.003 28.1709 104.921 28.5947 104.921C28.9274 104.921 29.2419 104.973 29.5381 105.078C29.8343 105.178 30.1009 105.336 30.3379 105.55C30.5749 105.764 30.7777 106.04 30.9463 106.377C31.1195 106.71 31.2516 107.108 31.3428 107.573C31.4339 108.034 31.4795 108.562 31.4795 109.159ZM29.5586 111.155V108.879C29.5586 108.528 29.5426 108.22 29.5107 107.956C29.4834 107.692 29.4424 107.468 29.3877 107.286C29.3376 107.104 29.2715 106.956 29.1895 106.842C29.112 106.728 29.0231 106.646 28.9229 106.596C28.8226 106.541 28.7132 106.514 28.5947 106.514C28.4443 106.514 28.3099 106.555 28.1914 106.637C28.0729 106.719 27.9704 106.853 27.8838 107.04C27.7972 107.222 27.7311 107.466 27.6855 107.771C27.6445 108.072 27.624 108.441 27.624 108.879V111.155C27.624 111.506 27.6377 111.816 27.665 112.085C27.6969 112.354 27.7402 112.584 27.7949 112.775C27.8542 112.962 27.9202 113.113 27.9932 113.227C28.0706 113.34 28.1595 113.425 28.2598 113.479C28.3646 113.53 28.4785 113.555 28.6016 113.555C28.7474 113.555 28.8796 113.514 28.998 113.432C29.1211 113.345 29.2236 113.208 29.3057 113.021C29.3877 112.835 29.4492 112.589 29.4902 112.283C29.5358 111.973 29.5586 111.597 29.5586 111.155ZM38.5615 109.159V110.889C38.5615 111.636 38.4909 112.279 38.3496 112.816C38.2083 113.354 38.0101 113.796 37.7549 114.143C37.4997 114.484 37.1966 114.737 36.8457 114.901C36.4948 115.065 36.1074 115.147 35.6836 115.147C35.3464 115.147 35.0296 115.095 34.7334 114.99C34.4372 114.885 34.1683 114.726 33.9268 114.512C33.6898 114.293 33.4847 114.017 33.3115 113.685C33.1429 113.347 33.013 112.949 32.9219 112.488C32.8307 112.023 32.7852 111.49 32.7852 110.889V109.159C32.7852 108.412 32.8558 107.771 32.9971 107.238C33.1429 106.701 33.3434 106.261 33.5986 105.919C33.8538 105.577 34.1569 105.326 34.5078 105.167C34.8633 105.003 35.2529 104.921 35.6768 104.921C36.0094 104.921 36.3239 104.973 36.6201 105.078C36.9163 105.178 37.1829 105.336 37.4199 105.55C37.6569 105.764 37.8597 106.04 38.0283 106.377C38.2015 106.71 38.3337 107.108 38.4248 107.573C38.516 108.034 38.5615 108.562 38.5615 109.159ZM36.6406 111.155V108.879C36.6406 108.528 36.6247 108.22 36.5928 107.956C36.5654 107.692 36.5244 107.468 36.4697 107.286C36.4196 107.104 36.3535 106.956 36.2715 106.842C36.194 106.728 36.1051 106.646 36.0049 106.596C35.9046 106.541 35.7952 106.514 35.6768 106.514C35.5264 106.514 35.3919 106.555 35.2734 106.637C35.1549 106.719 35.0524 106.853 34.9658 107.04C34.8792 107.222 34.8132 107.466 34.7676 107.771C34.7266 108.072 34.7061 108.441 34.7061 108.879V111.155C34.7061 111.506 34.7197 111.816 34.7471 112.085C34.779 112.354 34.8223 112.584 34.877 112.775C34.9362 112.962 35.0023 113.113 35.0752 113.227C35.1527 113.34 35.2415 113.425 35.3418 113.479C35.4466 113.53 35.5605 113.555 35.6836 113.555C35.8294 113.555 35.9616 113.514 36.0801 113.432C36.2031 113.345 36.3057 113.208 36.3877 113.021C36.4697 112.835 36.5312 112.589 36.5723 112.283C36.6178 111.973 36.6406 111.597 36.6406 111.155ZM46.8057 105.058V115.011H44.8164V105.058H46.8057ZM49.2803 105.058V106.719H42.3896V105.058H49.2803ZM52.3564 107.614V115.011H50.4355V107.614H52.3564ZM50.3467 105.693C50.3467 105.397 50.4401 105.153 50.627 104.962C50.8184 104.771 51.0758 104.675 51.3994 104.675C51.7184 104.675 51.9714 104.771 52.1582 104.962C52.3451 105.153 52.4385 105.397 52.4385 105.693C52.4385 105.99 52.3451 106.236 52.1582 106.432C51.9714 106.623 51.7184 106.719 51.3994 106.719C51.0758 106.719 50.8184 106.623 50.627 106.432C50.4401 106.236 50.3467 105.99 50.3467 105.693ZM56.8545 115.147C56.3486 115.147 55.8997 115.07 55.5078 114.915C55.1204 114.76 54.7923 114.537 54.5234 114.245C54.2546 113.949 54.0495 113.591 53.9082 113.172C53.7669 112.753 53.6963 112.274 53.6963 111.736V111.128C53.6963 110.526 53.7646 110 53.9014 109.549C54.0381 109.093 54.2318 108.71 54.4824 108.4C54.7331 108.09 55.0407 107.86 55.4053 107.71C55.7744 107.555 56.1914 107.478 56.6562 107.478C57.1211 107.478 57.529 107.555 57.8799 107.71C58.2354 107.86 58.5293 108.088 58.7617 108.394C58.9941 108.694 59.1696 109.068 59.2881 109.515C59.4066 109.961 59.4658 110.481 59.4658 111.073V111.948H54.5098V110.602H57.5859V110.431C57.5859 110.13 57.554 109.879 57.4902 109.679C57.4264 109.474 57.3262 109.321 57.1895 109.221C57.0527 109.12 56.8704 109.07 56.6426 109.07C56.4512 109.07 56.2894 109.109 56.1572 109.187C56.0251 109.264 55.9202 109.385 55.8428 109.549C55.7653 109.713 55.7083 109.927 55.6719 110.191C55.6354 110.451 55.6172 110.763 55.6172 111.128V111.736C55.6172 112.078 55.6468 112.365 55.7061 112.598C55.7653 112.826 55.8519 113.012 55.9658 113.158C56.0843 113.299 56.2279 113.402 56.3965 113.466C56.5651 113.525 56.7611 113.555 56.9844 113.555C57.3216 113.555 57.6247 113.495 57.8936 113.377C58.167 113.254 58.3994 113.088 58.5908 112.878L59.3564 114.04C59.2243 114.213 59.042 114.386 58.8096 114.56C58.5771 114.733 58.2992 114.874 57.9756 114.983C57.652 115.093 57.2783 115.147 56.8545 115.147ZM62.4873 109.262V115.011H60.5732V107.614H62.3779L62.4873 109.262ZM64.2305 107.56L64.2031 109.467C64.1165 109.449 64.0117 109.435 63.8887 109.426C63.7702 109.417 63.6654 109.412 63.5742 109.412C63.36 109.412 63.1777 109.446 63.0273 109.515C62.877 109.578 62.7516 109.676 62.6514 109.809C62.5557 109.936 62.4827 110.096 62.4326 110.287C62.3825 110.479 62.3529 110.695 62.3438 110.937L61.9814 110.8C61.9814 110.317 62.0179 109.875 62.0908 109.474C62.1683 109.068 62.2822 108.717 62.4326 108.421C62.583 108.12 62.763 107.888 62.9727 107.724C63.1868 107.56 63.4284 107.478 63.6973 107.478C63.7884 107.478 63.8841 107.487 63.9844 107.505C64.0892 107.519 64.1712 107.537 64.2305 107.56ZM73.2744 111.695H75.2637C75.2363 112.443 75.0859 113.074 74.8125 113.589C74.5391 114.099 74.1494 114.487 73.6436 114.751C73.1423 115.015 72.5361 115.147 71.8252 115.147C71.2738 115.147 70.7839 115.056 70.3555 114.874C69.9271 114.687 69.5625 114.414 69.2617 114.054C68.9609 113.694 68.7331 113.249 68.5781 112.721C68.4277 112.188 68.3525 111.575 68.3525 110.882V109.193C68.3525 108.501 68.4323 107.888 68.5918 107.354C68.7559 106.821 68.9883 106.375 69.2891 106.015C69.5944 105.65 69.9613 105.377 70.3896 105.194C70.8226 105.007 71.3102 104.914 71.8525 104.914C72.5771 104.914 73.1833 105.051 73.6709 105.324C74.1585 105.593 74.5345 105.99 74.7988 106.514C75.0677 107.038 75.2295 107.676 75.2842 108.428H73.2881C73.2744 107.954 73.2197 107.582 73.124 107.313C73.0329 107.04 72.887 106.849 72.6865 106.739C72.486 106.625 72.208 106.568 71.8525 106.568C71.5882 106.568 71.3604 106.616 71.1689 106.712C70.9775 106.803 70.8203 106.951 70.6973 107.156C70.5742 107.361 70.4831 107.63 70.4238 107.963C70.3691 108.296 70.3418 108.701 70.3418 109.18V110.882C70.3418 111.351 70.3669 111.752 70.417 112.085C70.4671 112.413 70.5469 112.682 70.6562 112.892C70.7656 113.101 70.9137 113.254 71.1006 113.35C71.292 113.445 71.5335 113.493 71.8252 113.493C72.1624 113.493 72.4336 113.443 72.6387 113.343C72.8483 113.243 73.0033 113.062 73.1035 112.803C73.2038 112.543 73.2607 112.174 73.2744 111.695ZM78.333 109.262V115.011H76.4189V107.614H78.2236L78.333 109.262ZM80.0762 107.56L80.0488 109.467C79.9622 109.449 79.8574 109.435 79.7344 109.426C79.6159 109.417 79.5111 109.412 79.4199 109.412C79.2057 109.412 79.0234 109.446 78.873 109.515C78.7227 109.578 78.5973 109.676 78.4971 109.809C78.4014 109.936 78.3285 110.096 78.2783 110.287C78.2282 110.479 78.1986 110.695 78.1895 110.937L77.8271 110.8C77.8271 110.317 77.8636 109.875 77.9365 109.474C78.014 109.068 78.1279 108.717 78.2783 108.421C78.4287 108.12 78.6087 107.888 78.8184 107.724C79.0326 107.56 79.2741 107.478 79.543 107.478C79.6341 107.478 79.7298 107.487 79.8301 107.505C79.9349 107.519 80.0169 107.537 80.0762 107.56ZM83.8975 115.147C83.3916 115.147 82.9427 115.07 82.5508 114.915C82.1634 114.76 81.8353 114.537 81.5664 114.245C81.2975 113.949 81.0924 113.591 80.9512 113.172C80.8099 112.753 80.7393 112.274 80.7393 111.736V111.128C80.7393 110.526 80.8076 110 80.9443 109.549C81.0811 109.093 81.2747 108.71 81.5254 108.4C81.776 108.09 82.0837 107.86 82.4482 107.71C82.8174 107.555 83.2344 107.478 83.6992 107.478C84.1641 107.478 84.5719 107.555 84.9229 107.71C85.2783 107.86 85.5723 108.088 85.8047 108.394C86.0371 108.694 86.2126 109.068 86.3311 109.515C86.4495 109.961 86.5088 110.481 86.5088 111.073V111.948H81.5527V110.602H84.6289V110.431C84.6289 110.13 84.597 109.879 84.5332 109.679C84.4694 109.474 84.3691 109.321 84.2324 109.221C84.0957 109.12 83.9134 109.07 83.6855 109.07C83.4941 109.07 83.3324 109.109 83.2002 109.187C83.068 109.264 82.9632 109.385 82.8857 109.549C82.8083 109.713 82.7513 109.927 82.7148 110.191C82.6784 110.451 82.6602 110.763 82.6602 111.128V111.736C82.6602 112.078 82.6898 112.365 82.749 112.598C82.8083 112.826 82.8949 113.012 83.0088 113.158C83.1273 113.299 83.2708 113.402 83.4395 113.466C83.6081 113.525 83.804 113.555 84.0273 113.555C84.3646 113.555 84.6676 113.495 84.9365 113.377C85.21 113.254 85.4424 113.088 85.6338 112.878L86.3994 114.04C86.2673 114.213 86.085 114.386 85.8525 114.56C85.6201 114.733 85.3421 114.874 85.0186 114.983C84.695 115.093 84.3213 115.147 83.8975 115.147ZM91.1982 113.377V104.511H93.1191V115.011L91.3828 115.018L91.1982 113.377ZM87.3633 111.572V111.08C87.3633 110.479 87.4134 109.952 87.5137 109.501C87.6185 109.05 87.7734 108.674 87.9785 108.373C88.1836 108.072 88.4342 107.849 88.7305 107.703C89.0312 107.553 89.3753 107.478 89.7627 107.478C90.1136 107.478 90.4212 107.566 90.6855 107.744C90.9544 107.917 91.1823 108.161 91.3691 108.476C91.556 108.79 91.7064 109.161 91.8203 109.59C91.9342 110.018 92.014 110.488 92.0596 110.998V111.709C92.0049 112.192 91.9206 112.643 91.8066 113.062C91.6973 113.482 91.5469 113.846 91.3555 114.156C91.1686 114.466 90.943 114.71 90.6787 114.888C90.4144 115.061 90.1068 115.147 89.7559 115.147C89.3685 115.147 89.0244 115.07 88.7236 114.915C88.4274 114.76 88.1768 114.532 87.9717 114.231C87.7712 113.926 87.6185 113.552 87.5137 113.11C87.4134 112.664 87.3633 112.151 87.3633 111.572ZM89.2773 111.08V111.572C89.2773 111.919 89.2933 112.217 89.3252 112.468C89.3617 112.714 89.4186 112.917 89.4961 113.076C89.5781 113.231 89.6852 113.347 89.8174 113.425C89.9495 113.498 90.1136 113.534 90.3096 113.534C90.5648 113.534 90.7721 113.47 90.9316 113.343C91.0911 113.211 91.2096 113.031 91.2871 112.803C91.3691 112.57 91.4147 112.304 91.4238 112.003V110.711C91.4147 110.46 91.3851 110.235 91.335 110.034C91.2848 109.834 91.2142 109.663 91.123 109.521C91.0319 109.38 90.918 109.271 90.7812 109.193C90.6491 109.116 90.4941 109.077 90.3164 109.077C90.125 109.077 89.9609 109.116 89.8242 109.193C89.6921 109.271 89.5872 109.392 89.5098 109.556C89.4323 109.715 89.373 109.923 89.332 110.178C89.2956 110.428 89.2773 110.729 89.2773 111.08ZM96.5713 107.614V115.011H94.6504V107.614H96.5713ZM94.5615 105.693C94.5615 105.397 94.6549 105.153 94.8418 104.962C95.0332 104.771 95.2907 104.675 95.6143 104.675C95.9333 104.675 96.1862 104.771 96.373 104.962C96.5599 105.153 96.6533 105.397 96.6533 105.693C96.6533 105.99 96.5599 106.236 96.373 106.432C96.1862 106.623 95.9333 106.719 95.6143 106.719C95.2907 106.719 95.0332 106.623 94.8418 106.432C94.6549 106.236 94.5615 105.99 94.5615 105.693ZM101.315 107.614V109.057H97.542V107.614H101.315ZM98.4102 105.789H100.317V112.755C100.317 112.955 100.338 113.113 100.379 113.227C100.42 113.336 100.481 113.413 100.563 113.459C100.65 113.5 100.762 113.521 100.898 113.521C100.999 113.521 101.09 113.516 101.172 113.507C101.254 113.493 101.315 113.479 101.356 113.466V114.963C101.206 115.022 101.047 115.068 100.878 115.1C100.714 115.132 100.518 115.147 100.29 115.147C99.9072 115.147 99.5745 115.077 99.292 114.936C99.014 114.79 98.7975 114.555 98.6426 114.231C98.4876 113.908 98.4102 113.484 98.4102 112.96V105.789ZM105.663 113.015C105.663 112.887 105.62 112.773 105.533 112.673C105.447 112.573 105.31 112.47 105.123 112.365C104.936 112.256 104.688 112.135 104.378 112.003C104.041 111.866 103.742 111.725 103.482 111.579C103.223 111.433 103.002 111.271 102.819 111.094C102.642 110.916 102.507 110.713 102.416 110.485C102.325 110.257 102.279 109.998 102.279 109.706C102.279 109.392 102.336 109.102 102.45 108.838C102.569 108.569 102.737 108.334 102.956 108.134C103.175 107.929 103.441 107.769 103.756 107.655C104.075 107.537 104.433 107.478 104.829 107.478C105.385 107.478 105.861 107.576 106.258 107.771C106.659 107.963 106.966 108.232 107.181 108.578C107.395 108.924 107.502 109.328 107.502 109.788H105.588C105.588 109.624 105.563 109.478 105.513 109.351C105.463 109.218 105.381 109.116 105.267 109.043C105.157 108.97 105.009 108.934 104.822 108.934C104.686 108.934 104.562 108.963 104.453 109.022C104.348 109.082 104.264 109.161 104.2 109.262C104.141 109.357 104.111 109.471 104.111 109.604C104.111 109.704 104.132 109.793 104.173 109.87C104.218 109.948 104.289 110.023 104.385 110.096C104.48 110.169 104.608 110.246 104.768 110.328C104.932 110.406 105.132 110.492 105.369 110.588C105.861 110.77 106.265 110.966 106.579 111.176C106.898 111.385 107.135 111.632 107.29 111.914C107.445 112.192 107.522 112.536 107.522 112.946C107.522 113.274 107.459 113.573 107.331 113.842C107.208 114.111 107.028 114.343 106.791 114.539C106.554 114.735 106.269 114.885 105.937 114.99C105.608 115.095 105.242 115.147 104.836 115.147C104.239 115.147 103.735 115.029 103.325 114.792C102.915 114.555 102.605 114.252 102.396 113.883C102.186 113.509 102.081 113.122 102.081 112.721H103.899C103.909 112.967 103.954 113.16 104.036 113.302C104.123 113.438 104.239 113.534 104.385 113.589C104.531 113.644 104.692 113.671 104.87 113.671C105.048 113.671 105.194 113.648 105.308 113.603C105.426 113.552 105.515 113.477 105.574 113.377C105.633 113.272 105.663 113.151 105.663 113.015Z" fill="#F6F2ED"/>
<mask id="mask0_3082_38785" style="mask-type:luminance" maskUnits="userSpaceOnUse" x="22" y="31" width="79" height="49">
<path d="M100.5 31.051H22.5001V79.5897H100.5V31.051Z" fill="white"/>
</mask>
<g mask="url(#mask0_3082_38785)">
<path d="M99.8105 47.1968C100.479 47.873 100.525 48.1797 100.493 49.0732C100.029 50.1925 99.0486 50.6042 98.1068 51.2043C97.8146 51.3915 97.4693 51.5327 97.1699 51.7163C96.0204 52.4202 94.8311 53.0662 93.6756 53.7628C92.2423 54.6274 90.4819 55.4955 89.1586 56.4916C89.0753 56.5544 88.8869 56.6208 88.7323 56.7476C88.416 56.7597 88.1721 57.0712 87.9222 57.1738C87.8195 57.2161 87.7724 57.0652 87.7097 57.0881V57.0024C88.2639 56.6764 89.0101 56.4892 89.4991 56.0219L87.7097 57.0024C87.4609 57.1485 87.1977 57.2777 86.9429 57.4286C82.2762 59.5066 76.7945 62.9647 72.2425 65.5293C67.8885 67.9828 63.1686 70.5027 58.9487 73.118C58.7965 73.2121 58.6879 73.1904 58.8207 73.3739C56.7801 74.3568 54.9098 74.7045 52.6 74.4824C52.5638 74.4787 51.9854 74.1479 51.9178 74.2686C51.7053 74.6526 52.1641 74.911 52.1738 74.9508C52.4334 76.1136 51.0207 74.7456 50.5546 75.0788C49.9497 74.8035 49.5693 74.5246 49.0212 74.2264C48.6758 74.0392 48.3414 73.8207 47.9985 73.6299L50.5124 74.8241L50.8106 74.6961C50.8359 74.6103 50.4363 74.2409 50.7249 74.0139C49.1129 73.1155 47.4636 72.251 45.8674 71.3273C41.9034 69.0332 37.2463 66.6932 33.5105 64.1649C33.3149 64.0332 33.1241 63.8908 32.9141 63.7809C32.8875 63.601 33.0408 63.7036 33.1266 63.7386C35.6163 64.7589 38.6035 67.1798 41.1367 68.4283C41.1693 68.444 41.7923 68.7531 41.4772 68.4283L29.1626 61.2658C27.3828 59.7807 23.9392 59.2349 24.2194 56.3202C24.2858 56.1173 24.3582 55.9423 24.4753 55.766C25.1382 54.7614 36.9288 48.4997 38.9621 47.3671C41.814 45.7793 44.707 44.2483 47.5686 42.6774L47.8669 42.9334C51.6872 40.6743 55.6681 38.6965 59.5415 36.5376C60.1658 36.1899 61.5386 35.5319 62.0131 35.1733C62.2667 34.9825 62.3693 34.9426 62.3114 34.5768C65.5606 32.8417 68.9402 30.0417 72.8353 31.4218L99.8069 47.1968H99.8105Z" fill="url(#paint1_linear_3082_38785)"/>
<path d="M47.5723 42.6773C52.4865 39.9787 57.3694 37.2173 62.315 34.5767C62.3729 34.9425 62.2703 34.9824 62.0168 35.1731C61.5422 35.5317 60.1694 36.1898 59.5451 36.5375C55.6717 38.6964 51.6908 40.6742 47.8705 42.9333L47.5723 42.6773Z" fill="#FDE859"/>
<path d="M98.3617 52.3985C98.34 52.3164 98.5766 52.2524 98.5319 52.0145C98.5126 51.9143 98.2892 51.8841 98.276 51.8443C98.2096 51.6427 98.4136 51.3746 98.1057 51.2044C99.0475 50.6043 100.028 50.1925 100.492 49.0732C100.43 50.7636 100.041 51.7888 98.3605 52.3985H98.3617Z" fill="#764114"/>
<path d="M98.3616 52.3985C98.3689 52.4239 98.358 52.4564 98.3616 52.4842C98.0851 52.6376 97.7821 52.7523 97.5092 52.9104C97.3051 52.4214 97.9596 51.7646 97.1687 51.7163C97.4681 51.5328 97.8135 51.3915 98.1057 51.2043C98.4136 51.3746 98.2095 51.6426 98.2759 51.8443C98.2892 51.8841 98.5126 51.9143 98.5319 52.0145C98.5766 52.2524 98.3399 52.3164 98.3616 52.3985Z" fill="#94581A"/>
<path d="M97.5091 52.9105C96.2884 53.6168 95.0738 54.3461 93.8446 55.0428C93.5536 54.7421 93.6248 54.1203 93.6743 53.7641C94.8286 53.0674 96.0192 52.4215 97.1686 51.7175C97.9607 51.7658 97.3051 52.4227 97.5091 52.9117V52.9105Z" fill="#D1932C"/>
<path d="M93.8459 55.0416C92.2098 55.9677 90.5423 56.8503 88.9026 57.7704L88.5621 57.7281C88.5332 57.6424 89.3627 56.7103 89.1586 56.4917C90.482 55.4956 92.2424 54.6275 93.6756 53.7629C93.6261 54.1191 93.5549 54.7422 93.8459 55.0416Z" fill="#F8CE45"/>
<path d="M87.7097 57.0024L89.4991 56.022C89.0101 56.4905 88.2639 56.6764 87.7097 57.0024Z" fill="#F8F1B5"/>
<path d="M29.165 61.2669C27.6086 60.3288 25.5186 59.626 24.4355 58.1119C24.351 58.5079 24.4512 58.9173 24.223 59.3061C24.1807 59.2034 24.165 59.1684 24.1373 59.0501C23.9936 58.4234 24.0274 56.9153 24.223 56.3213C23.9417 59.236 27.3865 59.7818 29.1662 61.2669H29.165Z" fill="#6D431C"/>
<path d="M89.1586 56.4917C89.3626 56.7102 88.5331 57.6424 88.5621 57.7281L88.9026 57.7704C88.4486 58.0251 87.9922 58.2823 87.5394 58.5383C86.9912 58.0855 87.9572 57.7655 88.2216 57.4721C88.3798 57.2971 88.5379 56.9095 88.7323 56.7477C88.8869 56.6209 89.0753 56.5545 89.1586 56.4917Z" fill="#E4B03A"/>
<path d="M88.7324 56.7476C88.5368 56.9094 88.3798 57.2969 88.2216 57.472C87.9572 57.7642 86.9925 58.0854 87.5394 58.5382C84.9265 60.01 82.3318 61.529 79.7841 62.9719C79.9326 62.6277 79.7394 62.7074 79.4859 62.8016C78.666 63.1047 77.4743 63.7084 76.5458 64.0803C76.6231 63.9607 76.8199 63.7156 76.9297 63.6541C77.2702 63.4621 77.7339 63.293 78.1649 63.0576C80.1065 61.9975 82.2919 61.1378 84.0029 60.0728C84.7394 59.614 85.7705 59.224 85.8345 58.2822C86.1883 58.0769 86.6652 57.594 86.943 57.4298C87.176 57.3259 87.4827 57.175 87.7097 57.0893C87.7725 57.0651 87.8208 57.2172 87.9222 57.175C88.1709 57.0724 88.416 56.7608 88.7324 56.7488V56.7476Z" fill="#D3962C"/>
<path d="M87.7097 57.0024V57.0882C87.4815 57.1739 87.176 57.3248 86.943 57.4287C87.1978 57.2777 87.461 57.1485 87.7097 57.0024Z" fill="#F8F1B5"/>
<path d="M86.9429 57.4299C86.6652 57.5941 86.1883 58.0771 85.8345 58.2824C83.2265 59.7965 80.5363 61.2273 77.9089 62.7161C76.6593 63.4248 75.4108 64.1432 74.1599 64.8484C69.4666 67.4914 64.6139 70.3156 59.8434 72.7788C59.5596 72.9249 59.2771 73.1507 58.9909 73.2907C58.9342 73.3185 58.8786 73.3475 58.8207 73.3765C58.6879 73.1929 58.7965 73.2159 58.9487 73.1205C63.1686 70.504 67.8885 67.9841 72.2425 65.5318C76.7933 62.9672 82.2762 59.5091 86.9429 57.4311V57.4299Z" fill="#F8F1B5"/>
<path d="M29.165 61.2671L41.4796 68.4296C41.7948 68.7544 41.1705 68.4453 41.1391 68.4296C38.6059 67.1799 35.6176 64.7602 33.129 63.7399C33.0433 63.7049 32.89 63.6022 32.9165 63.7822C33.1266 63.8908 33.3174 64.0333 33.513 64.1661L33.4273 65.19C31.0269 63.7822 28.0977 62.3852 25.8434 60.8409C25.4969 60.6042 24.5007 59.8749 24.31 59.5622C24.3027 59.5501 24.2544 59.3799 24.2242 59.3062C24.4524 58.9186 24.3534 58.5081 24.4368 58.1121C25.5198 59.6262 27.6099 60.3277 29.1663 61.2671H29.165Z" fill="#F2D45F"/>
<path d="M85.8345 58.2822C85.7705 59.224 84.7382 59.614 84.0028 60.0728C82.2919 61.1378 80.1065 61.9975 78.1649 63.0576L77.9089 62.7171C80.5351 61.2272 83.2252 59.7976 85.8345 58.2834V58.2822Z" fill="#B36F1E"/>
<path d="M78.165 63.0578C77.7339 63.2932 77.269 63.4635 76.9298 63.6542C76.8199 63.717 76.6243 63.9609 76.5458 64.0805C75.7887 64.3835 75.0389 64.6999 74.3302 65.1044L74.1599 64.8484C75.4108 64.1432 76.6605 63.4248 77.909 62.7161L78.165 63.0566V63.0578Z" fill="#C68629"/>
<path d="M79.7841 62.972C73.1782 66.7162 66.6134 70.539 59.9279 74.1431C59.4642 74.2566 59.6224 74.0755 59.5874 74.0574L67.641 69.538C68.008 69.2168 67.9114 68.9246 67.9392 68.8981C68.747 68.1144 70.9723 67.3695 72.0722 66.7235C72.6965 66.3564 73.7216 65.4508 74.3301 65.1031C75.0389 64.6998 75.7887 64.3835 76.5458 64.0792C77.4743 63.7073 78.666 63.1036 79.4859 62.8005C79.7394 62.7064 79.9326 62.6267 79.7841 62.9708V62.972Z" fill="#E2B749"/>
<path d="M45.8674 71.3285C45.5088 71.6122 45.475 71.8948 45.6971 72.2667C44.3026 71.4758 42.9128 70.6729 41.5218 69.8796C38.8124 68.3341 36.1162 66.7668 33.426 65.1899L33.5118 64.166C37.2475 66.6956 41.9046 69.0344 45.8686 71.3285H45.8674Z" fill="#E2B848"/>
<path d="M74.1599 64.8484L74.3302 65.1044C73.7204 65.4509 72.6965 66.3577 72.0723 66.7247C70.9723 67.3707 68.747 68.1157 67.9392 68.8993C67.9115 68.9259 68.008 69.2181 67.641 69.5393L59.5874 74.0587C59.5102 74.02 59.4196 74.0768 59.3749 74.1444C59.218 73.6143 60.0571 73.4634 59.8434 72.78C64.6152 70.3168 69.4666 67.4927 74.1599 64.8496V64.8484Z" fill="#D19F36"/>
<path d="M47.9985 73.6312C47.2185 73.1965 46.4735 72.7063 45.6971 72.2668C45.4762 71.8949 45.5088 71.6124 45.8674 71.3286C47.4636 72.2523 49.113 73.1156 50.7249 74.0151C50.4351 74.2421 50.8348 74.6116 50.8106 74.6973L50.5124 74.8253L47.9985 73.6312Z" fill="#F2D45F"/>
<path d="M59.5875 74.0572C59.6225 74.0741 59.4643 74.2565 59.928 74.143C59.5561 74.4702 59.0888 74.6223 58.6493 74.8252L58.9898 73.2905C59.2747 73.1505 59.5585 72.9259 59.8422 72.7786C60.0559 73.462 59.2168 73.6129 59.3738 74.143C59.4184 74.0753 59.509 74.0198 59.5863 74.0572H59.5875Z" fill="#A96F20"/>
<path d="M58.6505 74.8252C56.3177 75.9034 54.7372 76.2258 52.1738 75.6776L52.7703 75.5496C52.7703 75.0751 52.3851 74.9857 52.6001 74.4835C54.9099 74.7056 56.7814 74.3567 58.8207 73.375C58.8787 73.3473 58.9342 73.3183 58.991 73.2893L58.6505 74.8239V74.8252Z" fill="#7D4B1A"/>
<path d="M52.6001 74.4836C52.3852 74.9847 52.7715 75.0753 52.7703 75.5498L52.1739 75.6778C51.8225 75.6029 51.5786 75.5425 51.2369 75.4218C50.9833 75.3324 50.7865 75.1851 50.5547 75.0801C51.0208 74.7468 52.4322 76.1149 52.1739 74.9521C52.1642 74.9123 51.7054 74.6551 51.9179 74.2699C51.9855 74.1492 52.5638 74.48 52.6001 74.4836Z" fill="#A6782B"/>
</g>
<path d="M48.3379 56.5557C48.9743 57.1425 50.0706 57.2403 50.8603 56.796C51.3903 56.4989 51.5678 56.0993 51.5558 55.7431L52.4867 55.795C52.5 56.3251 52.1546 56.8926 51.4084 57.3115C50.1322 58.036 48.4853 57.873 47.5471 57.0049C46.6137 56.1258 46.7598 54.9257 48.0276 54.2205C48.6301 53.8885 49.3268 53.7774 49.9752 53.8438L49.9004 54.5175C49.4609 54.4692 48.9791 54.5272 48.5782 54.7494C47.8043 55.1804 47.7173 55.9761 48.3367 56.5545L48.3379 56.5557Z" fill="black"/>
<path d="M53.3693 56.15L51.8044 52.2464L52.3478 51.9602L57.3719 53.9947L56.5653 54.4209L55.4497 53.9827L53.8341 54.8496L54.1879 55.702L53.3717 56.15H53.3693ZM53.5588 54.1879L54.5815 53.6422L53.0952 53.0396L53.5588 54.1891V54.1879Z" fill="black"/>
<path d="M55.9701 50.8904L56.656 51.4977L57.8706 50.8831L58.4418 51.3782L57.2259 51.9964L58.1556 52.7981L59.8255 51.9469L60.4014 52.4311L57.9612 53.6868L54.642 50.7721L57.0109 49.5803L57.5784 50.0838L55.9713 50.8916L55.9701 50.8904Z" fill="black"/>
<path d="M60.6115 51.121C61.0473 51.1874 61.5484 51.1512 61.907 50.9737C62.2427 50.8095 62.2994 50.5475 62.0543 50.3422C61.6221 49.98 60.8433 50.2891 60.0536 50.3229C59.5924 50.3434 59.1167 50.2686 58.7411 49.9426C58.1483 49.4234 58.4502 48.8088 59.0961 48.4973C59.491 48.3077 59.9377 48.2039 60.5378 48.2328L60.6259 48.8293C60.3458 48.7967 59.9896 48.8402 59.7337 48.9633C59.4499 49.101 59.2362 49.3461 59.4922 49.5695C60.0307 50.0331 61.6631 49.0225 62.7969 49.9727C63.3946 50.4666 63.1905 51.1077 62.4854 51.453C61.9577 51.7139 61.2804 51.802 60.5583 51.7392L60.6115 51.121Z" fill="black"/>
<path d="M64.0406 50.632L62.3357 47.0423L62.8573 46.8044L67.8826 48.8341L67.1075 49.1879L65.9906 48.7508L64.439 49.4729L64.8242 50.2565L64.0406 50.632ZM64.1432 48.8643L65.1249 48.4091L63.6385 47.8078L64.1444 48.8643H64.1432Z" fill="black"/>
<path d="M67.6037 47.0809L69.1142 48.2799L68.3764 48.6108L64.9872 45.8542L66.3697 45.2553C66.7585 45.0899 67.1026 45.0645 67.4455 45.1116C67.8246 45.1684 68.2002 45.3145 68.4718 45.5354C68.7435 45.7552 68.8618 46.0087 68.8316 46.2369C68.8159 46.3504 68.7604 46.4591 68.6517 46.5593L71.6389 47.1799L70.7358 47.5687L67.8705 46.965L67.6037 47.0821V47.0809ZM67.6302 46.3444C67.8415 46.2526 67.8947 46.1814 67.8971 46.1029C67.8995 46.0244 67.8452 45.9266 67.7486 45.8482C67.6472 45.7648 67.5071 45.7045 67.3791 45.6815C67.2511 45.6574 67.1159 45.661 66.9046 45.7528L66.2972 46.0148L67.0217 46.6088L67.629 46.3444H67.6302Z" fill="black"/>
<path d="M71.3902 46.1885C71.8213 46.2657 72.3103 46.2537 72.6544 46.1124C72.9756 45.9808 73.0178 45.749 72.7679 45.557C72.326 45.2165 71.5774 45.4568 70.8046 45.4531C70.353 45.4519 69.8834 45.3638 69.4994 45.0571C68.8933 44.5669 69.1601 44.032 69.7783 43.7821C70.1562 43.6311 70.5897 43.5587 71.1777 43.6118L71.2924 44.1467C71.0171 44.1057 70.6694 44.1274 70.4243 44.2264C70.1526 44.3363 69.9546 44.5452 70.2166 44.7565C70.7672 45.1935 72.3187 44.364 73.4767 45.2587C74.0876 45.7224 73.9198 46.2839 73.2448 46.5616C72.7401 46.7717 72.0797 46.8224 71.3673 46.7366L71.3902 46.1885Z" fill="black"/>
<path d="M54.2096 59.1661C54.2579 58.9403 54.1638 58.7073 53.9512 58.5261C53.7387 58.345 53.4296 58.2327 53.1012 58.2183C52.7837 58.205 52.4878 58.2822 52.1715 58.4622L50.882 59.2011L53.9452 61.8188L54.2881 61.6184L52.7221 60.3023L53.3415 59.9449L56.3528 60.4194H56.3589L56.7682 60.1864L53.7508 59.7082C54.0249 59.5368 54.1698 59.3641 54.2096 59.1661ZM53.612 58.7181C53.7484 58.8352 53.8088 58.9874 53.7774 59.1359C53.7508 59.2796 53.6361 59.3991 53.3934 59.538L52.4589 60.0765L51.4857 59.2337L52.419 58.6988C52.6617 58.5612 52.8525 58.5068 53.059 58.5189C53.2739 58.5274 53.4767 58.5998 53.6132 58.7169L53.612 58.7181Z" fill="black"/>
<path d="M56.4121 58.2048L57.7366 57.4719L57.4698 57.2522L56.1464 57.9839L55.166 57.1568L56.8552 56.2307L56.5908 56.0073L54.5659 57.117L57.6509 59.6864L59.741 58.52L59.4729 58.3051L57.7221 59.2795L56.4121 58.2048Z" fill="black"/>
<path d="M63.2521 55.8697L59.7481 54.3338L59.7409 54.3302L59.5199 54.4461L61.0884 57.0204L57.5832 55.4797L57.5748 55.4761L57.2355 55.6584L61.5472 57.5251L61.5545 57.5287L61.7778 57.4079L60.213 54.8675L63.7025 56.3744L63.7109 56.3768L63.9331 56.2609L62.0036 53.165L61.6692 53.3353L63.2521 55.8697Z" fill="black"/>
<path d="M63.9367 52.1968L63.7206 52.3042L65.2878 55.5402L65.2939 55.551L65.6247 55.3808L65.155 54.4124L66.8901 53.5406L68.304 54.02L68.3112 54.0224L68.6384 53.8606L63.9452 52.2004L63.9379 52.198L63.9367 52.1968ZM66.4808 53.3994L65.0137 54.1359L64.2724 52.6061L66.4808 53.4006V53.3994Z" fill="black"/>
<path d="M69.5658 51.1717C69.5984 50.9785 69.4922 50.7732 69.2736 50.6066C69.0551 50.44 68.7448 50.3277 68.4236 50.2987C68.1121 50.2721 67.8283 50.324 67.5301 50.4641L66.313 51.0413L69.4704 53.4501L69.794 53.2919L68.1797 52.0833L68.7641 51.8031L71.7416 52.3537H71.7476L72.134 52.1726L69.1504 51.6196C69.4076 51.4844 69.5404 51.3431 69.5658 51.1729V51.1717ZM68.9536 50.7563C69.0949 50.8638 69.1625 50.9978 69.1408 51.1258C69.1239 51.2477 69.0188 51.3467 68.7894 51.4554L67.9068 51.8768L66.9034 51.1004L67.7836 50.6839C68.0118 50.5764 68.1966 50.539 68.3982 50.5595C68.6095 50.5776 68.8112 50.6501 68.9524 50.7575L68.9536 50.7563Z" fill="black"/>
<path d="M72.2523 48.6831C71.744 48.6638 71.2671 48.7603 70.7515 48.9898L69.7445 49.4425L72.9237 51.8031L73.9367 51.3358C74.4559 51.0991 74.7433 50.8577 74.8423 50.5727C74.9799 50.167 74.7529 49.7046 74.2361 49.3315C73.7206 48.9559 72.9792 48.712 72.2523 48.6831ZM70.3349 49.5053L71.0099 49.2023C71.4808 48.9922 71.8865 48.9101 72.3272 48.933C72.9176 48.9644 73.4984 49.16 73.9222 49.4703C74.3472 49.7782 74.5356 50.1429 74.4378 50.4749C74.3641 50.7236 74.1202 50.9301 73.6469 51.145L72.9696 51.4565L70.3361 49.5065L70.3349 49.5053Z" fill="black"/>
<path d="M76.5327 48.3535C76.2985 48.3547 76.0678 48.3789 75.8433 48.4018C75.3168 48.4562 74.8616 48.5033 74.5308 48.2618C74.2096 48.0263 74.2651 47.7329 74.6612 47.5663C74.9172 47.4588 75.1864 47.4323 75.5933 47.4721H75.6054L75.5909 47.2379H75.5788C75.4025 47.2198 74.8664 47.1654 74.3774 47.3683C73.8063 47.6086 73.7447 48.0469 74.2313 48.4055C74.4137 48.5395 74.7083 48.6904 75.3651 48.6832C75.5885 48.6808 75.8143 48.6578 76.0316 48.6349C76.5882 48.5781 77.1123 48.525 77.5252 48.8148C77.8911 49.0695 77.7558 49.3811 77.4177 49.526C77.1654 49.6346 76.7814 49.7421 76.0413 49.6056L76.028 49.6032L75.9857 49.8375L75.9966 49.8399C76.6534 49.9643 77.2258 49.922 77.6943 49.7191C77.972 49.5996 78.141 49.4318 78.17 49.2446C78.2002 49.0538 78.0806 48.8558 77.8343 48.6844C77.5131 48.4598 77.0869 48.3511 76.5303 48.3547L76.5327 48.3535Z" fill="black"/>
<path d="M79.859 46.9228L79.9737 46.8624L79.8047 46.6547L79.8953 46.6076C79.9568 46.5762 80.0039 46.5593 80.0365 46.5581C80.0945 46.5557 80.1464 46.5847 80.1971 46.6463L80.2309 46.6873L80.2466 46.703C80.2466 46.703 80.2514 46.7054 80.2527 46.7078C80.2551 46.7078 80.2575 46.7103 80.2587 46.7127L80.3674 46.6559L80.3589 46.6523C80.3529 46.6499 80.342 46.6414 80.3299 46.6282C80.3179 46.6149 80.307 46.6028 80.2961 46.5907L80.2647 46.5521C80.243 46.5255 80.2092 46.505 80.1621 46.4893C80.1162 46.4736 80.0643 46.476 80.0075 46.4978C80.0438 46.47 80.0691 46.4458 80.0812 46.4229C80.1053 46.3782 80.0993 46.3323 80.0607 46.2865C80.0063 46.22 79.9363 46.1935 79.8506 46.2068C79.8023 46.214 79.7371 46.2382 79.6574 46.2804L79.4292 46.4L79.859 46.9252V46.9228ZM79.9544 46.47C79.9363 46.4905 79.9025 46.5135 79.8542 46.5388L79.7516 46.5919L79.5958 46.4024L79.6936 46.3517C79.7576 46.3178 79.8095 46.3009 79.8494 46.2985C79.8892 46.2961 79.9242 46.3142 79.9556 46.3529C79.9882 46.3927 79.9882 46.4326 79.9556 46.47M80.0305 45.981C79.8385 45.9484 79.6598 45.9749 79.4956 46.0619C79.3314 46.1488 79.2312 46.2659 79.1901 46.4193C79.1503 46.5726 79.1841 46.7151 79.2915 46.8467C79.399 46.9783 79.5499 47.0628 79.7407 47.0954C79.9339 47.1292 80.1114 47.1027 80.2756 47.017C80.4398 46.9312 80.5424 46.8117 80.5823 46.6571C80.6221 46.5038 80.5871 46.3601 80.4784 46.2273C80.3698 46.0945 80.2213 46.0136 80.0293 45.981M80.0075 46.0583C80.173 46.0872 80.3022 46.1573 80.3951 46.272C80.4881 46.3867 80.5183 46.5098 80.4857 46.6426C80.4531 46.7743 80.3649 46.8781 80.2225 46.9518C80.08 47.0254 79.9266 47.0483 79.7624 47.0194C79.597 46.9904 79.4678 46.9179 79.3749 46.8044C79.2819 46.6909 79.2529 46.569 79.2855 46.4362C79.3205 46.3034 79.4075 46.2007 79.5487 46.1271C79.69 46.0534 79.8445 46.0305 80.0088 46.0595" fill="white"/>
</g>
<rect x="0.5" y="0.5" width="123" height="123" rx="7.5" stroke="#EDC541"/>
<defs>
<linearGradient id="paint0_linear_3082_38785" x1="62.5" y1="13.0107" x2="62.5" y2="117.011" gradientUnits="userSpaceOnUse">
<stop stop-color="#3D3D3D"/>
<stop offset="0.620984" stop-color="#2F2F2F"/>
<stop offset="1" stop-color="#272828"/>
</linearGradient>
<linearGradient id="paint1_linear_3082_38785" x1="88.6961" y1="33.5758" x2="35.9664" y2="71.9347" gradientUnits="userSpaceOnUse">
<stop offset="0.28" stop-color="#F8E89C"/>
<stop offset="0.52" stop-color="#EDC66E"/>
<stop offset="1" stop-color="#A77831"/>
</linearGradient>
<clipPath id="clip0_3082_38785">
<rect width="124" height="124" rx="8" fill="white"/>
</clipPath>
</defs>
</svg>
